<svg width="24" height="24" viewBox="0 0 24 24" fill="none" xmlns="http://www.w3.org/2000/svg">
<path d="M14.4155 2.15039L14.6596 2.16797C15.8607 2.34256 16.5694 3.74923 15.9115 4.875L14.561 7.18555C14.3104 7.61525 14.6872 8.15635 15.1781 8.03125L15.3031 8.00391C16.5853 7.78201 17.5756 9.25976 16.8178 10.4268L9.6928 21.3936C9.38811 21.8618 8.88701 21.9403 8.48381 21.7637C8.08004 21.5865 7.78588 21.1571 7.90569 20.6035L9.40666 13.6738C9.51075 13.1921 9.09566 12.7623 8.6303 12.8516L8.53655 12.877C7.36245 13.2781 6.18391 12.2412 6.40862 10.9756L8.01311 3.6123C8.1704 2.76151 8.89373 2.15039 9.73088 2.15039H14.4155ZM9.71721 3.14941L9.60491 3.15918L9.58928 3.16016C9.27506 3.21842 9.02491 3.4695 8.96233 3.79395L7.35881 11.1514C7.26649 11.6591 7.7431 12.0959 8.23479 11.9277C9.43413 11.5184 10.6274 12.6069 10.349 13.8926L8.75725 20.5938C8.73564 20.6848 8.78414 20.7786 8.87053 20.8145C8.95594 20.8496 9.05433 20.8182 9.10393 20.7402L16.0151 9.87012C16.1512 9.66007 16.1301 9.40937 16.0073 9.22656C15.8852 9.04523 15.6675 8.93484 15.4115 9C14.1038 9.33503 13.0276 7.87735 13.7348 6.66797L15.0844 4.35645C15.3729 3.86197 15.0706 3.23549 14.5268 3.15625L14.5092 3.15527L14.4223 3.14844H9.72795L9.71721 3.14941Z" fill="#1A1B1B"/>
</svg>
