<svg width="60" height="21" viewBox="0 0 60 21" fill="none" xmlns="http://www.w3.org/2000/svg">
<rect x="2" y="6.18323" width="14" height="1" fill="white"/>
<rect x="2" y="10.1832" width="14" height="1" fill="white"/>
<rect x="2" y="14.1832" width="14" height="1" fill="white"/>
<path d="M23.6709 14H22.4097V7.52246H24.3784L25.5562 12.6157L26.7251 7.52246H28.6719V14H27.4106V9.61865C27.4106 9.49268 27.4121 9.31689 27.415 9.09131C27.418 8.86279 27.4194 8.68701 27.4194 8.56396L26.1934 14H24.8794L23.6621 8.56396C23.6621 8.68701 23.6636 8.86279 23.6665 9.09131C23.6694 9.31689 23.6709 9.49268 23.6709 9.61865V14ZM34.4375 11.1699H31.291V12.8354H34.877V14H29.9683V7.52246H34.7188V8.66943H31.291V10.0449H34.4375V11.1699ZM41.1699 14H39.8164L37.1709 9.39893V14H35.9097V7.52246H37.3291L39.9087 12.0444V7.52246H41.1699V14ZM46.2676 11.5039V7.52246H47.6431V11.5039C47.6431 12.1924 47.5361 12.7285 47.3223 13.1123C46.9238 13.8154 46.1636 14.167 45.0415 14.167C43.9194 14.167 43.1577 13.8154 42.7563 13.1123C42.5425 12.7285 42.4355 12.1924 42.4355 11.5039V7.52246H43.811V11.5039C43.811 11.9492 43.8638 12.2744 43.9692 12.4795C44.1333 12.8428 44.4907 13.0244 45.0415 13.0244C45.5894 13.0244 45.9453 12.8428 46.1094 12.4795C46.2148 12.2744 46.2676 11.9492 46.2676 11.5039Z" fill="white"/>
</svg>
