<svg width="16" height="16" viewBox="0 0 16 16" fill="none" xmlns="http://www.w3.org/2000/svg">
<path id="Vector" fill-rule="evenodd" clip-rule="evenodd" d="M8.13391 0.358089C7.35669 0.396622 6.60962 0.670801 5.99199 1.14418C5.56834 1.46626 5.14817 1.98035 4.89634 2.48261C4.55287 3.17377 4.42208 3.95127 4.52052 4.71676C4.61896 5.48226 4.94221 6.20137 5.44938 6.78313C5.99895 7.412 6.72034 7.83009 7.5739 8.01374C7.79025 8.06035 7.90295 8.0687 8.30434 8.0687C8.70573 8.0687 8.81843 8.06035 9.03477 8.01374C9.69077 7.87252 10.2292 7.61513 10.7217 7.20748C11.3249 6.70405 11.7617 6.02995 11.9748 5.27373C12.1878 4.51751 12.1671 3.71452 11.9155 2.97026C11.6222 2.11548 11.0434 1.38782 10.2765 0.909741C9.93109 0.705586 9.55812 0.552133 9.16904 0.454089C8.8292 0.379979 8.48157 0.34774 8.13391 0.358089ZM8.75025 1.07322C9.21843 1.14418 9.77564 1.37444 10.1436 1.64991C11.9781 3.02174 11.8236 5.82244 9.85077 6.98209C9.04869 7.45304 8.03025 7.524 7.14678 7.16922C5.57182 6.53826 4.78573 4.73652 5.37286 3.10452C5.57112 2.55357 6.00104 1.98522 6.49078 1.62905C6.70434 1.47322 7.18782 1.23531 7.42782 1.16783C7.83895 1.05235 8.36277 1.01478 8.75025 1.07322ZM4.45878 9.69235C2.87617 9.8447 1.5273 11.0092 1.13217 12.5633C1.02921 12.9689 1.02086 13.0857 1.00764 14.2266C0.995818 15.2367 0.998601 15.3529 1.03617 15.451C1.08695 15.5838 1.18017 15.6381 1.35756 15.6381C1.49808 15.6381 1.58295 15.5957 1.65112 15.492C1.69008 15.4322 1.69495 15.3174 1.70817 14.2322C1.72417 12.9473 1.72556 12.9348 1.86747 12.5028C2.04973 11.9504 2.46086 11.373 2.92625 11.0155C3.42712 10.6294 3.9746 10.4235 4.63199 10.372C5.02782 10.3414 11.5809 10.3414 11.9767 10.372C12.7816 10.4346 13.4348 10.7337 13.9913 11.2937C14.408 11.7132 14.6995 12.2496 14.8456 12.868C14.8789 13.0085 14.888 13.2437 14.9005 14.2322C14.9137 15.3174 14.9186 15.4322 14.9576 15.492C15.0257 15.5957 15.1106 15.6381 15.2511 15.6381C15.4285 15.6381 15.5217 15.5838 15.5725 15.451C15.6101 15.3529 15.6129 15.2367 15.601 14.2266C15.5878 13.0857 15.5795 12.9689 15.4765 12.5633C15.1983 11.4697 14.417 10.5188 13.4056 10.0416C13.0005 9.84686 12.5631 9.72825 12.1151 9.69165C11.7951 9.66105 4.7746 9.66174 4.45878 9.69235Z" fill="#84827E" stroke="#84827E" stroke-width="0.2"/>
</svg>
