<svg width="24" height="24" viewBox="0 0 24 24" fill="none" xmlns="http://www.w3.org/2000/svg">
<g clip-path="url(#clip0_12574_11237)">
<path d="M20.7197 5.6137C21.267 6.17277 20.542 7.11525 19.8624 6.65673C19.8206 6.62857 19.6657 6.44443 19.6358 6.48047C19.6343 7.18945 18.7595 7.3324 18.4228 6.75274C18.4767 7.34875 17.7914 7.70915 17.3862 7.25275C16.9568 6.76879 17.4662 6.05102 18.0538 6.29785C18.2172 6.3666 18.2709 6.48956 18.3926 6.60161C18.2928 5.89838 19.111 5.56646 19.5319 6.11705C19.6032 6.06495 19.5647 5.9738 19.5834 5.89778C19.7063 5.39292 20.3718 5.25876 20.7197 5.614V5.6137Z" fill="#1A1B1B"/>
<path d="M20.6418 12.2895C20.4952 12.9776 19.464 12.8546 19.4137 12.1687C19.3447 12.3525 19.3145 12.4994 19.1472 12.622C18.5892 13.0315 17.9306 12.3322 18.3209 11.7771C18.5652 11.4294 19.0888 11.4648 19.3053 11.8255C19.3678 11.93 19.3474 12.043 19.4282 12.1078C19.4614 11.37 20.4147 11.238 20.6561 11.9261C20.8429 11.3155 21.6846 11.2204 21.9399 11.8237C22.2505 12.5575 21.2638 13.1445 20.7893 12.516C20.7333 12.4418 20.7221 12.3371 20.6415 12.2892L20.6418 12.2895Z" fill="#1A1B1B"/>
<path d="M19.1337 14.8311C19.2373 14.732 19.2409 14.6054 19.3555 14.4985C19.7242 14.1542 20.3571 14.338 20.4059 14.8613C20.5783 14.6133 20.769 14.4268 21.0918 14.4443C21.3477 14.4582 21.6557 14.6766 21.7004 14.944C21.8633 15.9189 20.5674 16.1394 20.4057 15.2242C20.3672 15.2178 20.3677 15.2163 20.3441 15.2432C20.3017 15.2911 20.2854 15.3717 20.2132 15.4359C19.803 15.802 19.1393 15.4783 19.1627 14.9216C19.0765 14.9907 19.0807 15.1064 19.0016 15.1954C18.5905 15.6576 17.7637 15.226 17.9953 14.5897C18.2212 13.9682 19.1888 14.1375 19.1337 14.8311Z" fill="#1A1B1B"/>
<path d="M18.483 17.4935C18.5855 17.396 18.6181 17.2869 18.7395 17.1964C19.1449 16.8935 19.7186 17.1576 19.7254 17.6749C19.8062 17.6743 19.8234 17.5831 19.8924 17.5283C20.4246 17.1067 21.1558 17.598 20.9597 18.2567C20.7424 18.9856 19.6383 18.8057 19.6659 18.0383C19.2311 18.5919 18.422 18.3136 18.4824 17.5846L18.2609 17.8569C17.7379 18.2264 17.052 17.5892 17.4172 17.0546C17.7803 16.5237 18.6234 16.8402 18.4827 17.4935H18.483Z" fill="#1A1B1B"/>
<path d="M18.4835 3.69694C18.5536 4.25812 18.0179 4.60035 17.5384 4.34535L17.3 4.15091C17.5559 4.94651 16.3515 5.26663 16.1664 4.50828C15.9967 3.81293 16.8588 3.49705 17.2701 4.02977C17.1075 3.50493 17.5364 3.05973 18.0558 3.21146C18.1719 3.24538 18.23 3.32927 18.3354 3.3641C18.2033 2.6533 19.1285 2.27927 19.5318 2.88226C19.9915 3.56943 19.0299 4.31748 18.4838 3.69724L18.4835 3.69694Z" fill="#1A1B1B"/>
<path d="M17.4182 20.0044C17.4691 19.9781 17.4822 19.9145 17.5355 19.8679C17.9782 19.4811 18.6078 19.7731 18.6016 20.3679C18.9354 20.0314 19.61 20.1223 19.735 20.6153C20.0015 21.668 18.3694 21.8376 18.4532 20.7613C18.4319 20.7364 18.2616 20.8785 18.2166 20.8973C17.7135 21.1041 17.2716 20.6807 17.3584 20.1562C16.8733 20.8312 15.8975 20.0847 16.3994 19.4626C16.8028 18.9629 17.5912 19.3781 17.4182 20.0047V20.0044Z" fill="#1A1B1B"/>
<path d="M16.825 1.18566C16.9384 1.71626 16.4752 2.16086 15.9756 1.94795C15.8885 1.911 15.8453 1.83801 15.7597 1.82105C15.9883 2.43978 15.2805 2.93344 14.8159 2.49854C14.3512 2.06364 14.8354 1.27925 15.455 1.54243C15.542 1.57937 15.5853 1.65267 15.6712 1.66902C15.3898 1.04665 16.0455 0.508482 16.588 0.882507C16.4687 0.262867 17.0278 -0.240175 17.5852 0.120222C18.3327 0.603275 17.552 1.72353 16.8253 1.18506L16.825 1.18566Z" fill="#1A1B1B"/>
<path d="M15.9371 22.304C16.405 21.8606 17.1569 22.2089 17.0024 22.8788C17.449 22.5115 18.1242 22.8331 18.0638 23.4352C17.9779 24.2941 16.5981 24.1357 16.7948 23.2117C16.7195 23.2247 16.6819 23.2756 16.6011 23.3007C16.1098 23.4527 15.6335 22.9821 15.8483 22.4857C15.773 22.4891 15.7428 22.5587 15.6712 22.5917C15.1721 22.8204 14.6634 22.4 14.8659 21.8591C15.1156 21.1928 16.2196 21.5611 15.9374 22.3037L15.9371 22.304Z" fill="#1A1B1B"/>
<path d="M20.405 9.35485C20.3168 9.44207 20.3171 9.59471 20.2285 9.70313C19.9484 10.0454 19.3235 9.94935 19.1692 9.51475C18.9474 8.88936 19.6472 8.35089 20.1542 8.78003C20.2318 8.84575 20.2629 8.93994 20.3461 8.99172C20.4346 8.10345 21.7478 8.2149 21.6788 9.12922C21.6281 9.80125 20.6615 9.98933 20.405 9.35485Z" fill="#1A1B1B"/>
<path d="M18.3862 8.87788C18.789 8.80913 19.148 9.12076 19.0967 9.54325C19.0295 10.0972 18.3193 10.2474 18.0092 9.79371C17.7782 9.45542 17.9924 8.94511 18.3862 8.87788Z" fill="#1A1B1B"/>
<path d="M17.143 9.11954C18.0581 8.94601 18.0424 10.3388 17.1978 10.2292C16.5945 10.1508 16.5895 9.22433 17.143 9.11954Z" fill="#1A1B1B"/>
<path d="M17.9686 11.7856C18.4797 12.3813 17.5036 13.1384 17.0778 12.4697C16.7159 11.9013 17.5146 11.2565 17.9686 11.7856Z" fill="#1A1B1B"/>
<path d="M16.0465 4.49344C16.5808 5.04948 15.6621 5.85689 15.1986 5.22453C14.7663 4.63487 15.5819 4.01008 16.0465 4.49344Z" fill="#1A1B1B"/>
<path d="M16.2742 7.64979C15.7586 7.1619 16.417 6.3448 16.9885 6.78303C17.6051 7.25578 16.8076 8.15435 16.2742 7.64979Z" fill="#1A1B1B"/>
<path d="M17.1727 14.1118C18.0081 13.9543 18.1061 15.0697 17.4253 15.1866C16.6811 15.3144 16.5617 14.2272 17.1727 14.1118Z" fill="#1A1B1B"/>
<path d="M16.6713 16.5028C17.2873 16.4241 17.5246 17.2948 16.9856 17.5507C16.1939 17.9268 15.8457 16.6079 16.6713 16.5028Z" fill="#1A1B1B"/>
<path d="M15.3569 19.7522C15.0977 19.5044 15.175 19.028 15.4928 18.8681C15.9391 18.6437 16.4183 19.0365 16.2657 19.5374C16.1502 19.9163 15.6338 20.0166 15.3569 19.7519V19.7522Z" fill="#1A1B1B"/>
<path d="M14.0953 2.22172C14.9828 2.06454 14.9612 3.365 14.1809 3.30079C13.5554 3.2493 13.5172 2.32378 14.0953 2.22172Z" fill="#1A1B1B"/>
<path d="M14.7449 21.8712C14.505 22.0711 14.1405 22.029 13.9554 21.7746C13.6287 21.3255 14.1171 20.741 14.6264 20.9675C14.9724 21.1213 15.0342 21.6304 14.7449 21.8715V21.8712Z" fill="#1A1B1B"/>
<path d="M16.0208 9.33063C16.696 9.27611 16.7712 10.2979 16.1579 10.3806C15.3971 10.483 15.3562 9.38423 16.0208 9.33063Z" fill="#1A1B1B"/>
<path d="M16.2268 11.6614C16.9257 11.5457 17.0575 12.6348 16.3645 12.7111C15.7139 12.7829 15.5726 11.7695 16.2268 11.6614Z" fill="#1A1B1B"/>
<path d="M15.3077 7.09225C15.5935 7.03258 15.8974 7.14736 15.9758 7.45385C16.126 8.03867 15.3827 8.37544 15.0492 7.88754C14.8668 7.62042 14.9926 7.15827 15.3077 7.09255V7.09225Z" fill="#1A1B1B"/>
<path d="M14.3903 4.91381C15.1586 4.7533 15.2732 5.79421 14.6666 5.92232C13.9574 6.07193 13.8084 5.03556 14.3903 4.91381Z" fill="#1A1B1B"/>
<path d="M15.9599 13.9907C16.8487 13.8047 16.7909 15.1315 16.0195 15.0055C15.4544 14.9131 15.4953 14.0879 15.9599 13.9907Z" fill="#1A1B1B"/>
<path d="M15.4264 16.23C16.1582 16.0901 16.2936 17.1376 15.6491 17.2442C14.9372 17.362 14.8623 16.3381 15.4264 16.23Z" fill="#1A1B1B"/>
<path d="M14.571 18.3787C15.2637 18.2915 15.3552 19.3169 14.7081 19.3972C14.0151 19.4832 13.937 18.4584 14.571 18.3787Z" fill="#1A1B1B"/>
<path d="M13.6195 3.07214C13.8561 3.32926 13.7551 3.78203 13.4314 3.90226C12.9904 4.06641 12.6037 3.65847 12.7799 3.2057C12.909 2.87316 13.3903 2.82289 13.6198 3.07214H13.6195Z" fill="#1A1B1B"/>
<path d="M13.2674 20.3445C13.9545 20.1986 14.1046 21.2604 13.435 21.334C12.8069 21.4033 12.6893 20.4672 13.2674 20.3445Z" fill="#1A1B1B"/>
<path d="M14.9839 11.722C15.3195 11.6665 15.5919 11.9243 15.5513 12.2713C15.5048 12.6717 14.97 12.8401 14.7097 12.5324C14.4778 12.258 14.6327 11.7801 14.9839 11.722Z" fill="#1A1B1B"/>
<path d="M14.7455 9.57352C15.4882 9.41331 15.5611 10.6653 14.7407 10.5327C14.2817 10.4585 14.2595 9.6783 14.7455 9.57352Z" fill="#1A1B1B"/>
<path d="M14.6552 8.31576C14.2089 8.77216 13.5274 8.05773 13.9651 7.61011C14.4028 7.16249 15.0982 7.86269 14.6552 8.31576Z" fill="#1A1B1B"/>
<path d="M14.7457 13.8698C15.1751 13.7793 15.5041 14.1288 15.3211 14.5491C15.0999 15.0582 14.2102 14.7847 14.4655 14.1281C14.5079 14.0194 14.6311 13.894 14.7457 13.8701V13.8698Z" fill="#1A1B1B"/>
<path d="M13.3877 5.45802C14.0306 5.39351 14.0973 6.32993 13.5547 6.41776C12.873 6.528 12.7744 5.5198 13.3877 5.45802Z" fill="#1A1B1B"/>
<path d="M14.2442 15.9577C15.0304 15.8096 15.0636 16.9729 14.2963 16.8884C13.7697 16.8305 13.8002 16.0413 14.2442 15.9577Z" fill="#1A1B1B"/>
<path d="M13.5305 17.9284C14.1569 17.9153 14.1584 18.866 13.5545 18.8863C12.9282 18.9075 12.8982 17.9414 13.5305 17.9284Z" fill="#1A1B1B"/>
<path d="M12.1124 3.64334C12.8862 3.4801 12.9336 4.61459 12.2249 4.57552C11.7075 4.54705 11.6412 3.74267 12.1124 3.64334Z" fill="#1A1B1B"/>
<path d="M12.7329 19.8942C13.1567 20.3536 12.3529 21.0281 11.9901 20.4569C11.6801 19.9687 12.3701 19.5008 12.7329 19.8942Z" fill="#1A1B1B"/>
<path d="M13.4728 8.64859C13.0543 9.07653 12.4303 8.42418 12.8417 8.00321C13.253 7.58224 13.8894 8.22217 13.4728 8.64859Z" fill="#1A1B1B"/>
<path d="M14.1819 11.9067C14.5796 12.3428 13.9189 12.9721 13.5253 12.5327C13.1317 12.0933 13.7907 11.4779 14.1819 11.9067Z" fill="#1A1B1B"/>
<path d="M13.5327 9.81582C14.2194 9.68589 14.2692 10.6738 13.6662 10.7089C13.1275 10.7404 13.0609 9.90516 13.5327 9.81582Z" fill="#1A1B1B"/>
<path d="M13.5628 13.7487C14.3017 13.5918 14.3248 14.736 13.5874 14.6169C13.1402 14.5449 13.1535 13.8356 13.5628 13.7487Z" fill="#1A1B1B"/>
<path d="M12.8998 15.7793C13.2682 15.4026 13.9014 15.9047 13.5703 16.3593C13.2092 16.8553 12.4558 16.2333 12.8998 15.7793Z" fill="#1A1B1B"/>
<path d="M12.2904 6.03376C12.9541 5.92261 12.9949 7.01652 12.285 6.90174C11.8396 6.82966 11.8228 6.1119 12.2904 6.03376Z" fill="#1A1B1B"/>
<path d="M11.1961 4.33928C11.8639 4.23146 11.8719 5.28752 11.2213 5.20696C10.738 5.14729 10.7223 4.4156 11.1961 4.33928Z" fill="#1A1B1B"/>
<path d="M12.3491 17.5007C13.0217 17.3738 13.0406 18.353 12.4578 18.3681C11.9357 18.3817 11.8706 17.591 12.3491 17.5007Z" fill="#1A1B1B"/>
<path d="M11.2842 19.1646C11.9422 19.0277 11.9875 20.0853 11.3099 20.0023C10.8473 19.9457 10.8713 19.2503 11.2842 19.1646Z" fill="#1A1B1B"/>
<path d="M12.38 13.6278C12.9631 13.5046 13.0804 14.3244 12.5737 14.431C12.0371 14.544 11.9284 13.7232 12.38 13.6278Z" fill="#1A1B1B"/>
<path d="M12.4968 11.8422C13.1996 11.6778 13.1851 12.7202 12.5824 12.6505C12.1346 12.5987 12.1479 11.9237 12.4968 11.8422Z" fill="#1A1B1B"/>
<path d="M12.3201 10.0569C12.9882 9.90181 13.0237 10.8516 12.4587 10.8649C12.0044 10.8758 11.9315 10.1468 12.3201 10.0569Z" fill="#1A1B1B"/>
<path d="M11.7756 15.4767C12.1387 15.1088 12.7153 15.6261 12.37 16.0391C12.0288 16.4474 11.3912 15.8665 11.7756 15.4767Z" fill="#1A1B1B"/>
<path d="M11.8754 8.30214C12.5504 8.14405 12.58 9.12651 11.9918 9.10168C11.526 9.08199 11.5129 8.38694 11.8754 8.30214Z" fill="#1A1B1B"/>
<path d="M11.0069 6.70246C11.354 6.34751 11.9605 6.87054 11.6049 7.26849C11.2412 7.67553 10.6305 7.08708 11.0069 6.70246Z" fill="#1A1B1B"/>
<path d="M10.19 5.06522C10.8492 4.92682 10.869 5.9226 10.2454 5.84204C9.83074 5.78874 9.80734 5.14548 10.19 5.06522Z" fill="#1A1B1B"/>
<path d="M11.2851 17.0465C11.9074 16.9371 11.9219 17.9259 11.2798 17.8242C10.8673 17.7588 10.8768 17.1182 11.2851 17.0465Z" fill="#1A1B1B"/>
<path d="M10.2494 18.5892C10.9729 18.4211 10.9033 19.5226 10.2568 19.3251C9.9248 19.224 9.95885 18.6567 10.2494 18.5892Z" fill="#1A1B1B"/>
<path d="M11.1838 11.9664C11.5224 11.6738 12.0258 12.176 11.6787 12.5176C11.31 12.8804 10.822 12.2789 11.1838 11.9664Z" fill="#1A1B1B"/>
<path d="M11.1346 9.31428C10.7727 9.68436 10.2621 9.06563 10.656 8.74915C11.0049 8.46871 11.4524 8.98931 11.1346 9.31428Z" fill="#1A1B1B"/>
<path d="M11.2557 10.2698C11.6596 10.2465 11.7742 10.88 11.3765 10.9982C10.8582 11.152 10.7226 10.3007 11.2557 10.2698Z" fill="#1A1B1B"/>
<path d="M11.0661 13.57C11.4093 13.2735 11.8823 13.8065 11.5609 14.1212C11.1869 14.4876 10.7027 13.8837 11.0661 13.57Z" fill="#1A1B1B"/>
<path d="M10.1622 7.1525C10.7198 7.05982 10.7489 7.96324 10.1565 7.87026C9.77807 7.8106 9.79821 7.21307 10.1622 7.1525Z" fill="#1A1B1B"/>
<path d="M9.59597 6.37932C9.24532 6.72185 8.74009 6.15279 9.10524 5.83206C9.45263 5.52679 9.92232 6.06041 9.59597 6.37932Z" fill="#1A1B1B"/>
<path d="M10.8405 15.0797C11.3872 14.9652 11.4349 15.8505 10.8926 15.8002C10.4827 15.7624 10.4821 15.1548 10.8405 15.0797Z" fill="#1A1B1B"/>
<path d="M10.2199 16.5928C10.6496 16.5025 10.8033 17.0998 10.4612 17.2633C9.94532 17.5101 9.74986 16.6915 10.2199 16.5928Z" fill="#1A1B1B"/>
<path d="M9.33212 17.9844C9.80122 17.8863 9.89865 18.5489 9.5489 18.6598C9.02975 18.8242 8.89589 18.0756 9.33212 17.9844Z" fill="#1A1B1B"/>
<path d="M10.1607 11.9328C10.4947 11.8667 10.7094 12.324 10.4198 12.5315C9.97203 12.8525 9.66877 12.0303 10.1607 11.9328Z" fill="#1A1B1B"/>
<path d="M9.65686 9.08895C10.1517 8.97265 10.2533 9.73524 9.73919 9.7204C9.3616 9.7095 9.3385 9.16375 9.65686 9.08895Z" fill="#1A1B1B"/>
<path d="M9.7465 14.7759C10.242 14.7151 10.2206 15.5337 9.71599 15.4292C9.37512 15.3583 9.42636 14.8153 9.7465 14.7759Z" fill="#1A1B1B"/>
<path d="M10.0418 13.3856C10.5243 13.2856 10.5784 13.9967 10.1461 14.0379C9.76521 14.0743 9.67903 13.4607 10.0418 13.3856Z" fill="#1A1B1B"/>
<path d="M9.1563 7.69613C9.56262 7.64858 9.6494 8.3394 9.20694 8.35847C8.80655 8.37574 8.73814 7.74519 9.1563 7.69613Z" fill="#1A1B1B"/>
<path d="M8.29494 6.45655C8.74953 6.34964 8.83304 6.96989 8.51231 7.07165C8.04587 7.21974 7.92238 6.54408 8.29494 6.45655Z" fill="#1A1B1B"/>
<path d="M9.88174 11.0699C9.57848 10.7955 9.98687 10.2904 10.3183 10.5784C10.6186 10.8395 10.2105 11.3673 9.88174 11.0699Z" fill="#1A1B1B"/>
<path d="M9.185 16.1376C9.51017 16.0743 9.71274 16.5801 9.39082 16.7433C8.93149 16.9762 8.71915 16.2284 9.185 16.1376Z" fill="#1A1B1B"/>
<path d="M8.6805 17.938C8.42552 18.217 7.92117 17.8345 8.22976 17.4922C8.51288 17.1782 8.94911 17.6443 8.6805 17.938Z" fill="#1A1B1B"/>
<path d="M8.64472 9.46115C8.90237 9.46115 9.03534 9.79883 8.80879 9.97631C8.39122 10.3034 8.15607 9.46115 8.64472 9.46115Z" fill="#1A1B1B"/>
<path d="M8.85788 13.2641C9.26894 13.139 9.39658 13.7547 9.02165 13.8268C8.66242 13.8961 8.57861 13.3489 8.85788 13.2641Z" fill="#1A1B1B"/>
<path d="M7.92981 8.33514C8.15311 8.07711 8.57187 8.37723 8.37789 8.68766C8.16644 9.02625 7.66772 8.63799 7.92981 8.33514Z" fill="#1A1B1B"/>
<path d="M7.24931 7.18581C7.37162 7.06891 7.60143 7.0995 7.68021 7.25577C7.8037 7.50139 7.61624 7.75336 7.35089 7.6828C7.15217 7.6301 7.10627 7.3224 7.24931 7.18551V7.18581Z" fill="#1A1B1B"/>
<path d="M8.97624 11.9927C9.36331 11.9055 9.47585 12.4855 9.1101 12.556C8.74435 12.6266 8.64692 12.0669 8.97624 11.9927Z" fill="#1A1B1B"/>
<path d="M8.62305 14.5046C9.01782 14.4268 9.08682 15.0416 8.70094 15.0719C8.38583 15.0964 8.2653 14.5752 8.62305 14.5046Z" fill="#1A1B1B"/>
<path d="M8.88867 10.722C9.26389 10.6496 9.34385 11.2541 8.96685 11.291C8.62539 11.3243 8.54158 10.7892 8.88867 10.722Z" fill="#1A1B1B"/>
<path d="M7.98958 16.1818C7.67951 15.8641 8.24546 15.5004 8.42493 15.8123C8.60439 16.1243 8.22117 16.4192 7.98958 16.1818Z" fill="#1A1B1B"/>
<path d="M7.47011 16.803C7.85985 16.7521 7.87584 17.4526 7.43961 17.366C7.1405 17.3066 7.17248 16.8417 7.47011 16.803Z" fill="#1A1B1B"/>
<path d="M7.0541 8.78489C7.38608 8.71493 7.47078 9.2534 7.12902 9.28763C6.82251 9.31822 6.7692 8.84485 7.0541 8.78489Z" fill="#1A1B1B"/>
<path d="M7.85223 12.0218C8.16704 11.9646 8.24582 12.4985 7.93131 12.5315C7.61679 12.5645 7.55697 12.0754 7.85223 12.0218Z" fill="#1A1B1B"/>
<path d="M7.63214 13.206C7.80894 12.9809 8.24458 13.2741 8.00855 13.5458C7.79414 13.7923 7.44823 13.4398 7.63214 13.206Z" fill="#1A1B1B"/>
<path d="M6.40198 7.81787C6.73071 7.71793 6.85124 8.15918 6.61077 8.27336C6.25775 8.44144 6.13544 7.89873 6.40198 7.81787Z" fill="#1A1B1B"/>
<path d="M7.05257 15.2608C7.39463 15.156 7.50746 15.6382 7.24033 15.7251C6.8814 15.842 6.81832 15.3326 7.05257 15.2608Z" fill="#1A1B1B"/>
<path d="M7.73516 10.9339C8.09083 10.8543 8.14118 11.3455 7.86961 11.4061C7.52282 11.4833 7.4627 10.9948 7.73516 10.9339Z" fill="#1A1B1B"/>
<path d="M7.55737 14.202C7.86981 14.1706 7.91808 14.6948 7.57484 14.7002C7.27662 14.7051 7.25293 14.2326 7.55737 14.202Z" fill="#1A1B1B"/>
<path d="M6.49153 16.2278C6.86291 16.1491 6.8863 16.8375 6.43882 16.693C6.22174 16.623 6.2709 16.2748 6.49153 16.2278Z" fill="#1A1B1B"/>
<path d="M7.49742 9.84397C7.899 9.75856 7.85132 10.4872 7.42397 10.3001C7.21519 10.2086 7.29337 9.88758 7.49742 9.84397Z" fill="#1A1B1B"/>
<path d="M6.66842 12.0839C6.94473 12.0012 7.07474 12.3222 6.88224 12.4537C6.60267 12.6448 6.4232 12.1572 6.66842 12.0839Z" fill="#1A1B1B"/>
<path d="M6.43366 13.9283C6.72626 13.8762 6.75913 14.295 6.53791 14.3417C6.23968 14.4047 6.18726 13.9722 6.43366 13.9283Z" fill="#1A1B1B"/>
<path d="M5.97568 15.186C5.79473 15.0122 6.02217 14.6712 6.25021 14.8604C6.47825 15.0497 6.15692 15.3601 5.97568 15.186Z" fill="#1A1B1B"/>
<path d="M6.57905 11.1456C6.9368 11.0339 7.01321 11.5696 6.63206 11.5357C6.42357 11.5169 6.42949 11.1923 6.57905 11.1456Z" fill="#1A1B1B"/>
<path d="M5.48506 8.48325C5.76522 8.39724 5.86384 8.84576 5.5899 8.89604C5.33403 8.94328 5.26591 8.55048 5.48506 8.48325Z" fill="#1A1B1B"/>
<path d="M6.40292 10.2065C6.57291 10.1744 6.7204 10.3667 6.60223 10.5342C6.37538 10.8549 6.02148 10.2786 6.40292 10.2065Z" fill="#1A1B1B"/>
<path d="M5.75251 15.7154C5.83514 15.799 5.80256 16.0425 5.65478 16.071C5.32961 16.1337 5.32457 15.6467 5.5917 15.6555C5.61539 15.6564 5.7377 15.7003 5.75251 15.7154Z" fill="#1A1B1B"/>
<path d="M6.61048 13.0221C6.98334 12.9095 6.98363 13.5149 6.61048 13.4025C6.45826 13.3568 6.45767 13.0685 6.61048 13.0221Z" fill="#1A1B1B"/>
<path d="M5.98744 9.33094C6.36029 9.21828 6.36059 9.82369 5.98744 9.71133C5.83521 9.6656 5.83462 9.37728 5.98744 9.33094Z" fill="#1A1B1B"/>
<path d="M4.62802 15.1079C4.85398 15.0461 4.94371 15.4238 4.70324 15.4616C4.49238 15.4946 4.44796 15.1573 4.62802 15.1079Z" fill="#1A1B1B"/>
<path d="M5.36813 13.6557C5.58343 13.5969 5.68442 13.9716 5.44335 14.0094C5.23249 14.0424 5.18836 13.7047 5.36813 13.6557Z" fill="#1A1B1B"/>
<path d="M5.54568 11.3261C5.6831 11.3049 5.83236 11.4924 5.68754 11.6245C5.44618 11.8443 5.28033 11.3673 5.54568 11.3261Z" fill="#1A1B1B"/>
<path d="M5.0415 9.81338C5.27191 9.77734 5.30034 10.1695 5.06431 10.1695C4.86322 10.1695 4.83242 9.84608 5.0415 9.81338Z" fill="#1A1B1B"/>
<path d="M5.04039 14.4131C5.33239 14.3205 5.36852 14.792 5.06556 14.7405C4.91985 14.7157 4.89586 14.4592 5.04039 14.4131Z" fill="#1A1B1B"/>
<path d="M5.33834 10.5705C5.57526 10.5196 5.60695 10.8407 5.44377 10.8921C5.19027 10.9721 5.12215 10.6168 5.33834 10.5705Z" fill="#1A1B1B"/>
<path d="M5.78256 12.4034C5.62767 12.5606 5.31701 12.3059 5.56607 12.1363C5.73369 12.0221 5.89865 12.2856 5.78256 12.4034Z" fill="#1A1B1B"/>
<path d="M5.72367 13.1899C5.52525 13.3928 5.25871 12.9237 5.57115 12.8946C5.73818 12.8792 5.82407 13.0869 5.72367 13.1899Z" fill="#1A1B1B"/>
<path d="M4.59863 9.11713C4.80623 9.06049 4.88619 9.38243 4.70435 9.43967C4.43723 9.52386 4.42775 9.16377 4.59863 9.11713Z" fill="#1A1B1B"/>
<path d="M4.09541 13.9882C4.21861 13.9534 4.32789 14.1169 4.23549 14.2242C4.07142 14.4147 3.86382 14.054 4.09541 13.9882Z" fill="#1A1B1B"/>
<path d="M4.48021 12.7786C4.71536 12.7075 4.73964 13.08 4.50539 13.0466C4.36797 13.027 4.36175 12.8147 4.48021 12.7786Z" fill="#1A1B1B"/>
<path d="M4.33177 13.414C4.56692 13.3429 4.5912 13.7154 4.35695 13.6821C4.21953 13.6624 4.21331 13.4501 4.33177 13.414Z" fill="#1A1B1B"/>
<path d="M3.66761 14.7932C3.55211 14.6603 3.81302 14.4271 3.91223 14.6503C3.99042 14.8268 3.74609 14.8835 3.66761 14.7932Z" fill="#1A1B1B"/>
<path d="M4.30214 10.9031C4.52425 10.8352 4.56453 11.2044 4.32761 11.1708C4.19078 11.1514 4.18368 10.9394 4.30214 10.9031Z" fill="#1A1B1B"/>
<path d="M3.73868 9.72433C3.91015 9.70797 3.94213 9.99932 3.76415 10.0078C3.56869 10.0172 3.56632 9.74068 3.73868 9.72433Z" fill="#1A1B1B"/>
<path d="M4.06617 10.2979C4.24682 10.2713 4.27762 10.5187 4.14169 10.5599C3.93379 10.6229 3.87752 10.3258 4.06617 10.2979Z" fill="#1A1B1B"/>
<path d="M4.5392 12.1426C4.73851 12.0911 4.78352 12.5033 4.5081 12.4058C4.39438 12.3655 4.42163 12.1729 4.5392 12.1426Z" fill="#1A1B1B"/>
<path d="M4.4062 11.7677C4.28715 11.6447 4.45151 11.4446 4.59396 11.5606C4.74322 11.6823 4.52762 11.8931 4.4062 11.7677Z" fill="#1A1B1B"/>
<path d="M3.44502 11.2383C3.51225 11.3061 3.4622 11.4482 3.3538 11.4345C3.12873 11.4061 3.29635 11.0881 3.44502 11.2383Z" fill="#1A1B1B"/>
<path d="M3.00431 14.2217C2.9356 14.3314 2.69246 14.1687 2.8435 14.0418C2.9593 13.9446 3.05318 14.1439 3.00431 14.2217Z" fill="#1A1B1B"/>
<path d="M3.62274 12.2065C3.69974 12.2832 3.63133 12.3816 3.52678 12.3831C3.30645 12.3861 3.4714 12.0557 3.62274 12.2065Z" fill="#1A1B1B"/>
<path d="M3.27896 13.1711C3.33256 13.0854 3.55438 13.176 3.4682 13.3186C3.39001 13.4482 3.20462 13.2905 3.27896 13.1711Z" fill="#1A1B1B"/>
<path d="M3.24239 10.9545C3.19974 11.0239 2.9646 10.9527 3.05285 10.8064C3.14111 10.6602 3.31139 10.8419 3.24239 10.9545Z" fill="#1A1B1B"/>
<path d="M3.44254 11.6874C3.5844 11.6399 3.66702 11.8498 3.52013 11.8919C3.35903 11.9379 3.32586 11.7265 3.44254 11.6874Z" fill="#1A1B1B"/>
<path d="M3.14851 13.5951C3.35167 13.5361 3.32413 13.8868 3.12778 13.7874C3.04131 13.7438 3.05582 13.6218 3.14851 13.5951Z" fill="#1A1B1B"/>
<path d="M3.59628 12.6872C3.71207 12.8734 3.3333 12.9582 3.39815 12.7344C3.42421 12.6439 3.56489 12.6369 3.59628 12.6872Z" fill="#1A1B1B"/>
<path d="M2.85155 10.3276C3.04494 10.2716 3.02066 10.6175 2.83082 10.5196C2.74287 10.4742 2.76093 10.354 2.85155 10.3276Z" fill="#1A1B1B"/>
<path d="M2.50256 13.043C2.46998 13.0909 2.33701 13.0763 2.33405 12.9758C2.32931 12.805 2.58637 12.9207 2.50256 13.043Z" fill="#1A1B1B"/>
<path d="M2.4939 12.2014C2.66271 12.1478 2.64257 12.3658 2.55047 12.3728C2.47139 12.3788 2.39114 12.2338 2.4939 12.2014Z" fill="#1A1B1B"/>
<path d="M2.21254 13.3759C2.12518 13.2532 2.36328 13.1596 2.38549 13.3068C2.39853 13.3925 2.24986 13.4282 2.21254 13.3759Z" fill="#1A1B1B"/>
<path d="M2.04738 13.5303C2.16584 13.494 2.1845 13.6872 2.10602 13.7114C1.98756 13.7478 1.9689 13.5546 2.04738 13.5303Z" fill="#1A1B1B"/>
<path d="M2.50256 11.5327C2.46998 11.4848 2.33701 11.4994 2.33405 11.5999C2.32931 11.7707 2.58637 11.655 2.50256 11.5327Z" fill="#1A1B1B"/>
<path d="M2.21254 11.1999C2.12518 11.3225 2.36328 11.4161 2.38549 11.2689C2.39853 11.1832 2.24986 11.1475 2.21254 11.1999Z" fill="#1A1B1B"/>
<path d="M2.04738 11.0457C2.16584 11.082 2.1845 10.8888 2.10602 10.8646C1.98756 10.8282 1.9689 11.0215 2.04738 11.0457Z" fill="#1A1B1B"/>
<path d="M2.46481 12.5645C2.57468 12.53 2.64339 12.6436 2.5661 12.699C2.4503 12.782 2.3499 12.6009 2.46481 12.5645Z" fill="#1A1B1B"/>
<path d="M2.42109 11.9824C2.38141 11.9179 2.42494 11.8304 2.50846 11.8504C2.71132 11.8985 2.48536 12.0875 2.42109 11.9824Z" fill="#1A1B1B"/>
</g>
<defs>
<clipPath id="clip0_12574_11237">
<rect width="24" height="24" fill="white"/>
</clipPath>
</defs>
</svg>
