

<svg width="19" height="21" viewBox="0 0 19 21" fill="none" xmlns="http://www.w3.org/2000/svg">
<path d="M15.1248 5.24999C15.1248 2.3793 12.794 0 9.98191 0C7.12866 0 4.83907 2.3793 4.83907 5.24999H0.981934V17.7187C0.981934 19.5646 2.38799 21 4.19621 21H15.7676C16.1903 21.002 16.6092 20.9186 17.0001 20.7544C17.391 20.5903 17.7461 20.3487 18.045 20.0436C18.3439 19.7385 18.5806 19.3759 18.7414 18.9769C18.9022 18.5778 18.9839 18.1502 18.9819 17.7187V5.24999H15.1248ZM9.98191 1.3125C12.0709 1.3125 13.839 3.11744 13.839 5.24999H6.12478C6.12478 3.11744 7.85278 1.3125 9.98191 1.3125ZM17.6962 17.7187C17.6962 18.8265 16.8116 19.6875 15.7676 19.6875H4.19621C3.94203 19.6908 3.68976 19.6422 3.45427 19.5445C3.21879 19.4468 3.00487 19.3019 2.82512 19.1184C2.64537 18.9349 2.50344 18.7165 2.40769 18.4761C2.31195 18.2357 2.26433 17.9782 2.26765 17.7187V6.56249H4.83907V8.53123C4.83907 8.90083 5.11987 9.18748 5.48192 9.18748C5.65103 9.18297 5.81198 9.11238 5.9316 8.99027C6.05121 8.86817 6.12036 8.70386 6.12478 8.53123V6.56249H13.839V8.53123C13.839 8.90083 14.1198 9.18748 14.4819 9.18748C14.651 9.18297 14.812 9.11238 14.9316 8.99027C15.0512 8.86817 15.1203 8.70386 15.1248 8.53123V6.56249H17.6962V17.7187Z" fill="#84827E"/>
</svg>

