<svg width="24" height="24" viewBox="0 0 24 24" fill="none" xmlns="http://www.w3.org/2000/svg">
<g clip-path="url(#clip0_12574_13433)">
<path d="M21.9408 13.0323C21.6887 10.9716 20.6674 9.12013 19.0547 7.78818C19.1647 7.52231 19.2253 7.23203 19.2253 6.92781C19.2253 6.45099 19.0765 6.00817 18.8217 5.64075L18.9162 5.54835C18.9994 5.46685 19.0467 5.35571 19.0467 5.24021C19.0467 5.12471 18.9994 5.014 18.9162 4.93206L18.5483 4.57205L19.729 3.41662C19.9031 3.24664 19.9031 2.97031 19.729 2.80033L16.9983 0.127704C16.9146 0.0461999 16.8015 0 16.683 0C16.5645 0 16.4518 0.0461999 16.3681 0.127704L15.1874 1.28357L14.8195 0.923563C14.6458 0.753146 14.3639 0.753146 14.1897 0.923563L5.99688 8.94056C5.82318 9.11098 5.82318 9.38687 5.99688 9.55729L6.36477 9.9173L5.83164 10.439C5.6575 10.609 5.6575 10.8849 5.83164 11.0553L8.5623 13.7279C8.64603 13.8094 8.75916 13.8552 8.87763 13.8552C8.9961 13.8552 9.10879 13.8094 9.19252 13.7279L9.72564 13.2062L10.0935 13.5658C10.1768 13.6477 10.2904 13.6935 10.4084 13.6935C10.5264 13.6935 10.6396 13.6477 10.7233 13.5658L15.5615 8.83116C15.937 9.08047 16.3895 9.22604 16.8767 9.22604C17.5386 9.22604 18.1376 8.95669 18.5643 8.52433C19.9548 9.70853 20.8353 11.3321 21.0562 13.136C21.4874 16.6546 19.2591 19.8965 15.925 20.9273C15.5998 20.0394 14.7313 19.4031 13.7141 19.4031C12.6968 19.4031 11.8163 20.0477 11.4956 20.9447C10.6373 20.6858 9.82585 20.2713 9.0981 19.7117C7.66886 18.6125 6.7193 17.0744 6.38971 15.3414H9.29941C9.54526 15.3414 9.74479 15.1462 9.74479 14.9056C9.74479 14.665 9.54526 14.4697 9.29941 14.4697H2.44538C2.19953 14.4697 2 14.665 2 14.9056C2 15.1462 2.19953 15.3414 2.44538 15.3414H5.48469C5.82496 17.3481 6.90279 19.132 8.5476 20.3973C9.40096 21.0532 10.3568 21.5314 11.3682 21.8186C11.4306 23.032 12.459 24 13.7141 24C14.9692 24 16.0087 23.0206 16.0604 21.7981C19.8679 20.6897 22.4294 17.0199 21.9408 13.0323ZM16.683 1.05257L18.7843 3.10847L17.9185 3.95576L15.8172 1.89986L16.683 1.05257ZM8.87763 12.8031L6.77631 10.7472L6.99454 10.5336L9.09587 12.5895L8.87763 12.8031ZM10.4084 12.6414L10.3554 12.5895L9.72564 11.9732L7.62476 9.91686L6.99499 9.30057L6.94199 9.24871L14.5046 1.848L14.5576 1.89986L15.1874 2.51615L17.2887 4.57249L17.4076 4.68886C17.3417 4.67404 17.2749 4.6614 17.2068 4.65225C17.099 4.63743 16.9885 4.62958 16.8767 4.62958C15.9472 4.62958 15.142 5.16088 14.7621 5.92928C14.6329 6.18948 14.5527 6.47715 14.5331 6.78093C14.53 6.82931 14.5282 6.87856 14.5282 6.92781C14.5282 7.03721 14.5362 7.1453 14.5514 7.25078C14.5986 7.57853 14.7166 7.88406 14.8899 8.15211C14.9032 8.17347 14.9175 8.19395 14.9317 8.21444L10.4084 12.6414ZM16.8767 8.35434C16.6371 8.35434 16.4104 8.29725 16.2104 8.19613C15.9405 8.06015 15.7196 7.84397 15.5807 7.57984C15.5682 7.55674 15.5566 7.53364 15.5464 7.51011C15.4649 7.33359 15.4199 7.13833 15.419 6.93304V6.92781C15.419 6.66369 15.4925 6.41613 15.6212 6.20387L15.7205 6.10667C15.7107 6.10449 15.7009 6.10188 15.6907 6.0997C15.8092 5.93756 15.961 5.80071 16.137 5.69916C16.3539 5.57319 16.6068 5.50128 16.8767 5.50128C17.0883 5.50128 17.2901 5.54574 17.4718 5.6255C17.4958 5.63596 17.5194 5.64729 17.543 5.65906C17.8129 5.79548 18.0338 6.01166 18.1728 6.27578C18.2761 6.47148 18.3345 6.69333 18.3345 6.92781C18.3345 7.03242 18.3229 7.1344 18.3006 7.23247C18.2347 7.52885 18.0744 7.79123 17.8517 7.98736C17.5934 8.21531 17.2513 8.35434 16.8767 8.35434ZM13.7141 23.1283C13.0242 23.1283 12.4443 22.6567 12.2937 22.0252C12.2688 21.921 12.2559 21.8125 12.2559 21.7013C12.2559 21.5069 12.296 21.3217 12.3681 21.1526C12.5881 20.6374 13.1088 20.2748 13.7141 20.2748C14.3193 20.2748 14.8311 20.6318 15.0542 21.1404C15.1299 21.3126 15.1718 21.5026 15.1718 21.7013C15.1718 21.8077 15.1598 21.9118 15.1371 22.0117C14.9919 22.6497 14.4089 23.1283 13.7141 23.1283Z" fill="black"/>
</g>
<defs>
<clipPath id="clip0_12574_13433">
<rect width="24" height="24" fill="white"/>
</clipPath>
</defs>
</svg>
