<svg width="24" height="24" viewBox="0 0 24 24" fill="none" xmlns="http://www.w3.org/2000/svg">
<path d="M2.68005 13.4771C1.48746 14.6346 1.66409 16.0336 2.9085 17.0534C4.36073 18.2434 6.83839 18.7111 8.65905 18.9255C11.4519 19.2543 14.4534 19.2015 17.2036 18.6264C18.8279 18.2866 21.6688 17.4697 22.0819 15.574C22.5202 13.5616 19.9323 12.4326 18.4237 11.9785C18.2261 11.9191 17.8972 11.8716 17.7269 11.7871C17.3814 11.616 17.4315 11.0789 17.8045 10.9815C17.9765 10.9365 18.3567 11.0598 18.541 11.1117C20.3122 11.6093 22.5239 12.6311 22.9407 14.6315C22.9865 14.8507 23.0186 15.247 22.9885 15.4783C22.9851 15.5046 22.9633 15.4962 22.9593 15.5092C22.9453 15.5567 22.9519 15.6391 22.941 15.6898C22.3931 18.242 19.06 19.1802 16.8606 19.577C13.8036 20.1285 10.4382 20.1386 7.37027 19.6182C5.12221 19.237 1.6137 18.3042 1.05949 15.6895C1.01311 15.4706 0.98191 15.0709 1.01168 14.843C1.01512 14.8167 1.03687 14.8251 1.04088 14.8121C1.05663 14.7591 1.04775 14.6718 1.0592 14.6171C1.45883 12.7288 3.47903 11.7214 5.15026 11.2042C5.38529 11.1316 5.70963 11.0238 5.94494 10.9817C6.5441 10.8746 6.75193 11.633 6.14619 11.8321C5.92433 11.905 5.67156 11.9491 5.44455 12.0185C4.48641 12.3113 3.40632 12.772 2.68005 13.4771Z" fill="#1A1B1B"/>
<path d="M14.9667 13.0567C13.0498 15.1674 9.60889 14.6329 8.36362 12.0819C7.71608 10.755 7.84576 9.43179 8.53767 8.16364C9.41394 6.55778 10.3898 5.0035 11.2727 3.4008C11.6308 2.87234 12.3522 2.86398 12.7206 3.39216C13.6072 4.99687 14.5828 6.5549 15.4614 8.16364C16.3654 9.81906 16.2512 11.6425 14.9667 13.0567ZM11.9798 3.90997L9.12825 8.88719C7.9826 11.3373 10.0953 14.0125 12.7401 13.4002C14.7511 12.9345 15.7874 10.6472 14.8287 8.80045L12.0353 3.92351C12.0238 3.90507 11.9975 3.90334 11.9798 3.90997Z" fill="#1A1B1B"/>
<path d="M7.64423 17.368C7.21168 17.2859 6.78342 17.1853 6.36318 17.0606C5.51583 16.809 3.95509 16.2244 3.95853 15.1458C3.96139 14.1511 5.35637 13.5636 6.14848 13.3175C6.39009 13.2426 6.60365 13.1507 6.81234 13.3478C6.96749 13.4941 7.00013 13.7402 6.87159 13.9157C6.74163 14.0932 6.49801 14.1131 6.30564 14.1814C5.89456 14.3275 5.27479 14.5663 4.96963 14.8813C4.67248 15.1879 4.90092 15.4017 5.17116 15.5971C6.02338 16.2131 7.73612 16.5379 8.77528 16.6779C8.8394 16.6865 8.9041 16.694 8.96937 16.7007C9.64553 16.7701 11.67 16.8741 12.0533 16.8796C12.609 16.8874 14.6031 16.745 15.3428 16.6508C15.7284 16.6015 16.1129 16.5422 16.4954 16.4604C17.1667 16.3169 18.6146 15.9238 19.0597 15.3985C19.2973 15.1181 19.101 14.9268 18.8651 14.7447C18.3988 14.3848 17.8878 14.2863 17.3613 14.084C16.9084 13.9099 16.9677 13.2996 17.4177 13.2279C17.5276 13.2103 17.7369 13.2826 17.8508 13.3178C18.4022 13.4889 19.115 13.7944 19.5478 14.1799C20.5131 15.0403 19.9423 15.9734 19.0125 16.5027C18.1843 16.9744 17.0685 17.2582 15.9947 17.4334C15.1728 17.5674 12.5992 17.7415 12.0533 17.7438C11.4711 17.7464 8.58892 17.5473 7.64423 17.368Z" fill="#1A1B1B"/>
</svg>
