<svg width="12" height="10" viewBox="0 0 12 10" fill="none" xmlns="http://www.w3.org/2000/svg">
<g clip-path="url(#clip0_7075_300)">
<path d="M6.34129 0.965032C6.34129 0.75176 6.25415 0.547223 6.09904 0.396417C5.94392 0.245611 5.73354 0.160889 5.51417 0.160889C5.29481 0.160889 5.08443 0.245611 4.92931 0.396417C4.7742 0.547223 4.68706 0.75176 4.68706 0.965032H6.34129ZM4.68706 8.68481C4.68706 8.89808 4.7742 9.10262 4.92931 9.25342C5.08443 9.40423 5.29481 9.48895 5.51417 9.48895C5.73354 9.48895 5.94392 9.40423 6.09904 9.25342C6.25415 9.10262 6.34129 8.89808 6.34129 8.68481H4.68706ZM1.10288 4.02078C0.88351 4.02078 0.673129 4.1055 0.518014 4.2563C0.362899 4.40711 0.275757 4.61165 0.275757 4.82492C0.275757 5.03819 0.362899 5.24273 0.518014 5.39353C0.673129 5.54434 0.88351 5.62906 1.10288 5.62906V4.02078ZM9.92547 5.62906C10.1448 5.62906 10.3552 5.54434 10.5103 5.39353C10.6654 5.24273 10.7526 5.03819 10.7526 4.82492C10.7526 4.61165 10.6654 4.40711 10.5103 4.2563C10.3552 4.1055 10.1448 4.02078 9.92547 4.02078V5.62906ZM4.68706 0.965032V8.68481H6.34129V0.965032H4.68706ZM1.10288 5.62906H9.92547V4.02078H1.10288V5.62906Z" fill="#84827E"/>
</g>
<defs>
<clipPath id="clip0_7075_300">
<rect width="11.0282" height="9.64972" fill="white"/>
</clipPath>
</defs>
</svg>
