<svg width="26" height="26" viewBox="0 0 26 26" fill="none" xmlns="http://www.w3.org/2000/svg">
<circle cx="13" cy="13" r="13" fill="#F3F2F1"/>
<path d="M14.8571 8.74999C14.8571 7.2463 13.5623 6 12 6C10.4149 6 9.14285 7.2463 9.14285 8.74999H7V15.2812C7 16.2481 7.78114 17 8.78571 17H15.2143C15.4491 17.0011 15.6818 16.9574 15.899 16.8714C16.1161 16.7854 16.3134 16.6588 16.4795 16.499C16.6455 16.3392 16.777 16.1493 16.8664 15.9403C16.9557 15.7312 17.0011 15.5072 17 15.2812V8.74999H14.8571ZM12 6.6875C13.1606 6.6875 14.1428 7.63295 14.1428 8.74999H9.85714C9.85714 7.63295 10.8171 6.6875 12 6.6875ZM16.2857 15.2812C16.2857 15.8615 15.7943 16.3125 15.2143 16.3125H8.78571C8.6445 16.3143 8.50435 16.2888 8.37352 16.2376C8.2427 16.1864 8.12385 16.1105 8.02399 16.0144C7.92413 15.9183 7.84528 15.8039 7.79209 15.678C7.7389 15.552 7.71244 15.4171 7.71428 15.2812V9.43749H9.14285V10.4687C9.14285 10.6623 9.29885 10.8125 9.49999 10.8125C9.59394 10.8101 9.68336 10.7732 9.74981 10.7092C9.81626 10.6452 9.85468 10.5592 9.85714 10.4687V9.43749H14.1428V10.4687C14.1428 10.6623 14.2988 10.8125 14.5 10.8125C14.5939 10.8101 14.6834 10.7732 14.7498 10.7092C14.8163 10.6452 14.8547 10.5592 14.8571 10.4687V9.43749H16.2857V15.2812Z" fill="#1A1F2A"/>
<circle cx="15.5" cy="16.5" r="3.75" fill="#1A1F2A" stroke="white" stroke-width="0.5"/>
<path d="M14 16.5H17H14ZM15.5 15V18V15Z" fill="#1A1F2A"/>
<path d="M14 16.5H17M15.5 15V18" stroke="white" stroke-width="0.375" stroke-linecap="round" stroke-linejoin="round"/>
</svg>
