<svg width="11" height="12" viewBox="0 0 11 12" fill="none" xmlns="http://www.w3.org/2000/svg">
<path id="Vector" d="M10.9825 4.67316C10.9416 4.55095 10.8357 4.46191 10.7084 4.44232L7.32665 3.92562L5.81146 0.697915C5.75474 0.57725 5.63339 0.500244 5.50017 0.500244C5.36696 0.500244 5.24578 0.57725 5.18888 0.697915L3.67369 3.92562L0.291971 4.44249C0.164603 4.46191 0.0588915 4.55112 0.0178103 4.67334C-0.023099 4.79538 0.00766895 4.93014 0.0977382 5.02244L2.5547 7.5418L1.97407 11.1006C1.95275 11.2305 2.00758 11.3613 2.11536 11.4369C2.17449 11.4787 2.24376 11.4999 2.3132 11.4999C2.37027 11.4999 2.42768 11.4854 2.47959 11.4569L5.5 9.78631L8.52041 11.4569C8.57232 11.4854 8.62973 11.4999 8.6868 11.4999C8.75624 11.4999 8.82569 11.4787 8.88464 11.4369C8.99242 11.3613 9.04725 11.2305 9.02593 11.1006L8.4453 7.5418L10.9023 5.02244C10.9925 4.92997 11.0234 4.79521 10.9825 4.67316Z" fill="#1A1F2A"/>
</svg>
