<svg width="9" height="9" viewBox="0 0 9 9" fill="none" xmlns="http://www.w3.org/2000/svg">
<path fill-rule="evenodd" clip-rule="evenodd" d="M8.83157 1.01683C8.94087 0.903666 9.00134 0.752104 8.99998 0.594786C8.99861 0.437468 8.93551 0.286981 8.82426 0.175736C8.71302 0.0644912 8.56253 0.00138973 8.40521 2.26815e-05C8.2479 -0.00134437 8.09633 0.0591325 7.98317 0.168427L4.50737 3.64423L1.03157 0.168427C0.918411 0.0591325 0.76685 -0.00134437 0.609532 2.26815e-05C0.452214 0.00138973 0.301727 0.0644912 0.190482 0.175736C0.0792369 0.286981 0.0161354 0.437468 0.0147684 0.594786C0.0134013 0.752104 0.0738782 0.903666 0.183173 1.01683L3.65897 4.49263L0.183173 7.96843C0.125867 8.02377 0.0801575 8.08998 0.0487121 8.16318C0.0172667 8.23639 0.000714944 8.31512 2.26542e-05 8.39479C-0.000669636 8.47445 0.0145113 8.55346 0.0446798 8.6272C0.0748483 8.70094 0.1194 8.76793 0.175736 8.82426C0.232071 8.8806 0.299063 8.92515 0.3728 8.95532C0.446538 8.98549 0.525546 9.00067 0.605214 8.99998C0.684881 8.99928 0.763613 8.98273 0.836815 8.95129C0.910018 8.91984 0.976225 8.87413 1.03157 8.81683L4.50737 5.34103L7.98317 8.81683C8.09633 8.92612 8.2479 8.9866 8.40521 8.98523C8.56253 8.98386 8.71302 8.92076 8.82426 8.80952C8.93551 8.69827 8.99861 8.54778 8.99998 8.39047C9.00134 8.23315 8.94087 8.08159 8.83157 7.96843L5.35577 4.49263L8.83157 1.01683Z" fill="#84827E"/>
</svg>
