<svg width="8" height="7" viewBox="0 0 8 7" fill="none" xmlns="http://www.w3.org/2000/svg">
<g clip-path="url(#clip0_4342_2501)">
<path d="M4.6002 0.700033C4.6002 0.545323 4.53698 0.39695 4.42446 0.287554C4.31194 0.178157 4.15933 0.116699 4.0002 0.116699C3.84107 0.116699 3.68845 0.178157 3.57593 0.287554C3.46341 0.39695 3.4002 0.545323 3.4002 0.700033H4.6002ZM3.4002 6.30003C3.4002 6.45474 3.46341 6.60312 3.57593 6.71251C3.68845 6.82191 3.84107 6.88337 4.0002 6.88337C4.15933 6.88337 4.31194 6.82191 4.42446 6.71251C4.53698 6.60312 4.6002 6.45474 4.6002 6.30003H3.4002ZM0.800195 2.9167C0.641065 2.9167 0.488453 2.97816 0.375931 3.08755C0.263409 3.19695 0.200195 3.34532 0.200195 3.50003C0.200195 3.65474 0.263409 3.80312 0.375931 3.91251C0.488453 4.02191 0.641065 4.08337 0.800195 4.08337V2.9167ZM7.2002 4.08337C7.35933 4.08337 7.51194 4.02191 7.62446 3.91251C7.73698 3.80312 7.8002 3.65474 7.8002 3.50003C7.8002 3.34532 7.73698 3.19695 7.62446 3.08755C7.51194 2.97816 7.35933 2.9167 7.2002 2.9167V4.08337ZM3.4002 0.700033V6.30003H4.6002V0.700033H3.4002ZM0.800195 4.08337H7.2002V2.9167H0.800195V4.08337Z" fill="#84827E"/>
</g>
<defs>
<clipPath id="clip0_4342_2501">
<rect width="8" height="7" fill="white"/>
</clipPath>
</defs>
</svg>
