<svg width="8" height="2" viewBox="0 0 8 2" fill="none" xmlns="http://www.w3.org/2000/svg">
<path d="M0.799951 0.300049C0.640821 0.300049 0.488209 0.363263 0.375687 0.475785C0.263165 0.588307 0.199951 0.740919 0.199951 0.900049C0.199951 1.05918 0.263165 1.21179 0.375687 1.32431C0.488209 1.43683 0.640821 1.50005 0.799951 1.50005V0.300049ZM7.19995 1.50005C7.35908 1.50005 7.51169 1.43683 7.62422 1.32431C7.73674 1.21179 7.79995 1.05918 7.79995 0.900049C7.79995 0.740919 7.73674 0.588307 7.62422 0.475785C7.51169 0.363263 7.35908 0.300049 7.19995 0.300049V1.50005ZM0.799951 1.50005H7.19995V0.300049H0.799951V1.50005Z" fill="#84827E"/>
</svg>
