<svg width="12" height="11" viewBox="0 0 12 11" fill="none" xmlns="http://www.w3.org/2000/svg">
<g clip-path="url(#clip0_947_896)">
<path d="M2.13918 3.12257C2.21035 3.03363 2.19593 2.90383 2.10699 2.83266C2.01805 2.76152 1.88826 2.77593 1.81709 2.86487L2.13918 3.12257ZM2.52986 2.22496C2.51516 2.33791 2.59481 2.4414 2.70776 2.45611L4.54848 2.69572C4.66145 2.71042 4.76493 2.63077 4.77964 2.51782C4.79433 2.40486 4.71469 2.30137 4.60172 2.28667L2.96554 2.07368L3.17852 0.437485C3.19323 0.324532 3.11358 0.221042 3.00062 0.206338C2.88767 0.191634 2.78418 0.271284 2.76947 0.38424L2.52986 2.22496ZM9.33048 4.23343C9.37143 4.33972 9.49081 4.39271 9.59709 4.35176C9.70338 4.31082 9.75638 4.19144 9.71543 4.08515L9.33048 4.23343ZM9.8837 4.88636C9.79166 4.81926 9.66265 4.8395 9.59555 4.93157L8.50232 6.43173C8.43522 6.5238 8.45549 6.6528 8.54753 6.7199C8.6396 6.78697 8.7686 6.76673 8.8357 6.67469L9.80744 5.34119L11.1409 6.31295C11.233 6.38005 11.362 6.35981 11.4291 6.26774C11.4962 6.1757 11.4759 6.04667 11.3839 5.9796L9.8837 4.88636ZM3.62338 9.92194C3.73046 9.88311 3.78582 9.76484 3.74699 9.65775L3.1144 7.91263C3.07558 7.80554 2.9573 7.75019 2.85021 7.78902C2.74312 7.82782 2.68777 7.9461 2.72659 8.05321L3.2889 9.60443L1.73767 10.1667C1.63059 10.2056 1.57524 10.3238 1.61406 10.4309C1.65288 10.538 1.77116 10.5934 1.87825 10.5546L3.62338 9.92194ZM4.95669 9.90949C4.84344 9.89717 4.74167 9.97898 4.72935 10.0922C4.71703 10.2055 4.79884 10.3072 4.91208 10.3196L4.95669 9.90949ZM9.60939 5.74054C9.60939 8.05667 7.73177 9.93429 5.41564 9.93429V10.3468C7.95961 10.3468 10.0219 8.28451 10.0219 5.74054H9.60939ZM1.22189 5.74054C1.22189 4.74996 1.56507 3.84013 2.13918 3.12257L1.81709 2.86487C1.18657 3.65291 0.809387 4.65297 0.809387 5.74054H1.22189ZM2.86018 2.41503C3.56772 1.87049 4.45358 1.54679 5.41564 1.54679V1.13429C4.35942 1.13429 3.3857 1.49004 2.60859 2.08814L2.86018 2.41503ZM5.41564 1.54679C7.20022 1.54679 8.72496 2.66155 9.33048 4.23343L9.71543 4.08515C9.05059 2.35937 7.37644 1.13429 5.41564 1.13429V1.54679ZM9.55849 5.08502C9.59198 5.29848 9.60939 5.51741 9.60939 5.74054H10.0219C10.0219 5.49593 10.0028 5.25561 9.96601 5.02106L9.55849 5.08502ZM3.64051 9.54123C2.21128 8.87249 1.22189 7.42186 1.22189 5.74054H0.809387C0.809387 7.58788 1.89687 9.18082 3.46569 9.91485L3.64051 9.54123ZM5.41564 9.93429C5.26048 9.93429 5.10736 9.92588 4.95669 9.90949L4.91208 10.3196C5.07752 10.3376 5.24555 10.3468 5.41564 10.3468V9.93429Z" fill="#1A1F2A"/>
</g>
<defs>
<clipPath id="clip0_947_896">
<rect width="11" height="11" fill="white" transform="translate(0.5)"/>
</clipPath>
</defs>
</svg>
