<svg width="24" height="24" viewBox="0 0 24 24" fill="none" xmlns="http://www.w3.org/2000/svg">
<path d="M11.9902 14.4432C12.0849 14.4432 12.1616 14.3664 12.1616 14.2717C12.1616 14.1769 12.0849 14.1002 11.9902 14.1002C11.8956 14.1002 11.8189 14.1769 11.8189 14.2717C11.8189 14.3664 11.8956 14.4432 11.9902 14.4432Z" fill="#1A1B1B"/>
<path d="M11.9902 15.7858C12.1057 15.7858 12.1993 15.6921 12.1993 15.5765C12.1993 15.461 12.1057 15.3673 11.9902 15.3673C11.8747 15.3673 11.7811 15.461 11.7811 15.5765C11.7811 15.6921 11.8747 15.7858 11.9902 15.7858Z" fill="#1A1B1B"/>
<path d="M11.9902 17.1288C12.1267 17.1288 12.2374 17.018 12.2374 16.8814C12.2374 16.7448 12.1267 16.6341 11.9902 16.6341C11.8537 16.6341 11.7431 16.7448 11.7431 16.8814C11.7431 17.018 11.8537 17.1288 11.9902 17.1288Z" fill="#1A1B1B"/>
<path d="M11.9902 18.4717C12.1476 18.4717 12.2751 18.3441 12.2751 18.1866C12.2751 18.0291 12.1476 17.9015 11.9902 17.9015C11.8329 17.9015 11.7053 18.0291 11.7053 18.1866C11.7053 18.3441 11.8329 18.4717 11.9902 18.4717Z" fill="#1A1B1B"/>
<path d="M11.9902 19.8144C12.1684 19.8144 12.3129 19.6698 12.3129 19.4915C12.3129 19.3131 12.1684 19.1686 11.9902 19.1686C11.812 19.1686 11.6676 19.3131 11.6676 19.4915C11.6676 19.6698 11.812 19.8144 11.9902 19.8144Z" fill="#1A1B1B"/>
<path d="M11.9902 21.1571C12.1893 21.1571 12.3506 20.9956 12.3506 20.7964C12.3506 20.5971 12.1893 20.4356 11.9902 20.4356C11.7912 20.4356 11.6298 20.5971 11.6298 20.7964C11.6298 20.9956 11.7912 21.1571 11.9902 21.1571Z" fill="#1A1B1B"/>
<path d="M11.9902 22.5C12.2101 22.5 12.3884 22.3216 12.3884 22.1015C12.3884 21.8814 12.2101 21.703 11.9902 21.703C11.7703 21.703 11.5921 21.8814 11.5921 22.1015C11.5921 22.3216 11.7703 22.5 11.9902 22.5Z" fill="#1A1B1B"/>
<path d="M11.6504 14.9542C11.7451 14.9542 11.8218 14.8774 11.8218 14.7827C11.8218 14.688 11.7451 14.6112 11.6504 14.6112C11.5558 14.6112 11.4791 14.688 11.4791 14.7827C11.4791 14.8774 11.5558 14.9542 11.6504 14.9542Z" fill="#1A1B1B"/>
<path d="M11.6322 16.3186C11.7471 16.3186 11.8403 16.2253 11.8403 16.1103C11.8403 15.9953 11.7471 15.9021 11.6322 15.9021C11.5173 15.9021 11.4242 15.9953 11.4242 16.1103C11.4242 16.2253 11.5173 16.3186 11.6322 16.3186Z" fill="#1A1B1B"/>
<path d="M11.614 17.6826C11.749 17.6826 11.8585 17.5731 11.8585 17.438C11.8585 17.3028 11.749 17.1933 11.614 17.1933C11.479 17.1933 11.3695 17.3028 11.3695 17.438C11.3695 17.5731 11.479 17.6826 11.614 17.6826Z" fill="#1A1B1B"/>
<path d="M11.5958 19.047C11.7511 19.047 11.877 18.921 11.877 18.7656C11.877 18.6101 11.7511 18.4841 11.5958 18.4841C11.4405 18.4841 11.3146 18.6101 11.3146 18.7656C11.3146 18.921 11.4405 19.047 11.5958 19.047Z" fill="#1A1B1B"/>
<path d="M11.5778 20.4113C11.7532 20.4113 11.8954 20.269 11.8954 20.0934C11.8954 19.9179 11.7532 19.7755 11.5778 19.7755C11.4024 19.7755 11.2602 19.9179 11.2602 20.0934C11.2602 20.269 11.4024 20.4113 11.5778 20.4113Z" fill="#1A1B1B"/>
<path d="M11.5596 21.7757C11.7553 21.7757 11.9139 21.6169 11.9139 21.4211C11.9139 21.2252 11.7553 21.0664 11.5596 21.0664C11.3639 21.0664 11.2053 21.2252 11.2053 21.4211C11.2053 21.6169 11.3639 21.7757 11.5596 21.7757Z" fill="#1A1B1B"/>
<path d="M11.2428 15.3842C11.3374 15.3842 11.4141 15.3074 11.4141 15.2127C11.4141 15.118 11.3374 15.0412 11.2428 15.0412C11.1481 15.0412 11.0714 15.118 11.0714 15.2127C11.0714 15.3074 11.1481 15.3842 11.2428 15.3842Z" fill="#1A1B1B"/>
<path d="M11.2032 16.7953C11.3134 16.7953 11.4028 16.7058 11.4028 16.5955C11.4028 16.4852 11.3134 16.3957 11.2032 16.3957C11.0929 16.3957 11.0036 16.4852 11.0036 16.5955C11.0036 16.7058 11.0929 16.7953 11.2032 16.7953Z" fill="#1A1B1B"/>
<path d="M11.1638 18.2069C11.2898 18.2069 11.3919 18.1047 11.3919 17.9786C11.3919 17.8525 11.2898 17.7503 11.1638 17.7503C11.0378 17.7503 10.9357 17.8525 10.9357 17.9786C10.9357 18.1047 11.0378 18.2069 11.1638 18.2069Z" fill="#1A1B1B"/>
<path d="M11.1242 19.6183C11.2658 19.6183 11.3806 19.5034 11.3806 19.3617C11.3806 19.22 11.2658 19.1051 11.1242 19.1051C10.9826 19.1051 10.8679 19.22 10.8679 19.3617C10.8679 19.5034 10.9826 19.6183 11.1242 19.6183Z" fill="#1A1B1B"/>
<path d="M11.0846 21.0297C11.2418 21.0297 11.3692 20.9022 11.3692 20.7448C11.3692 20.5875 11.2418 20.46 11.0846 20.46C10.9274 20.46 10.8 20.5875 10.8 20.7448C10.8 20.9022 10.9274 21.0297 11.0846 21.0297Z" fill="#1A1B1B"/>
<path d="M10.8082 16.0094C10.9028 16.0094 10.9795 15.9326 10.9795 15.8379C10.9795 15.7432 10.9028 15.6664 10.8082 15.6664C10.7135 15.6664 10.6368 15.7432 10.6368 15.8379C10.6368 15.9326 10.7135 16.0094 10.8082 16.0094Z" fill="#1A1B1B"/>
<path d="M10.7554 17.3843C10.8709 17.3843 10.9645 17.2906 10.9645 17.175C10.9645 17.0594 10.8709 16.9657 10.7554 16.9657C10.6399 16.9657 10.5463 17.0594 10.5463 17.175C10.5463 17.2906 10.6399 17.3843 10.7554 17.3843Z" fill="#1A1B1B"/>
<path d="M10.7028 18.7592C10.8392 18.7592 10.9497 18.6486 10.9497 18.5121C10.9497 18.3757 10.8392 18.2651 10.7028 18.2651C10.5665 18.2651 10.456 18.3757 10.456 18.5121C10.456 18.6486 10.5665 18.7592 10.7028 18.7592Z" fill="#1A1B1B"/>
<path d="M10.65 20.1339C10.8072 20.1339 10.9347 20.0063 10.9347 19.849C10.9347 19.6917 10.8072 19.5641 10.65 19.5641C10.4928 19.5641 10.3654 19.6917 10.3654 19.849C10.3654 20.0063 10.4928 20.1339 10.65 20.1339Z" fill="#1A1B1B"/>
<path d="M12.349 14.9542C12.4437 14.9542 12.5204 14.8774 12.5204 14.7827C12.5204 14.688 12.4437 14.6112 12.349 14.6112C12.2544 14.6112 12.1777 14.688 12.1777 14.7827C12.1777 14.8774 12.2544 14.9542 12.349 14.9542Z" fill="#1A1B1B"/>
<path d="M12.3673 16.3186C12.4822 16.3186 12.5753 16.2253 12.5753 16.1103C12.5753 15.9953 12.4822 15.9021 12.3673 15.9021C12.2524 15.9021 12.1592 15.9953 12.1592 16.1103C12.1592 16.2253 12.2524 16.3186 12.3673 16.3186Z" fill="#1A1B1B"/>
<path d="M12.3855 17.6826C12.5205 17.6826 12.63 17.5731 12.63 17.438C12.63 17.3028 12.5205 17.1933 12.3855 17.1933C12.2505 17.1933 12.141 17.3028 12.141 17.438C12.141 17.5731 12.2505 17.6826 12.3855 17.6826Z" fill="#1A1B1B"/>
<path d="M12.4037 19.047C12.559 19.047 12.6849 18.921 12.6849 18.7656C12.6849 18.6101 12.559 18.4841 12.4037 18.4841C12.2484 18.4841 12.1225 18.6101 12.1225 18.7656C12.1225 18.921 12.2484 19.047 12.4037 19.047Z" fill="#1A1B1B"/>
<path d="M12.4217 20.4113C12.5971 20.4113 12.7393 20.269 12.7393 20.0934C12.7393 19.9179 12.5971 19.7755 12.4217 19.7755C12.2462 19.7755 12.104 19.9179 12.104 20.0934C12.104 20.269 12.2462 20.4113 12.4217 20.4113Z" fill="#1A1B1B"/>
<path d="M12.4399 21.7757C12.6356 21.7757 12.7942 21.6169 12.7942 21.4211C12.7942 21.2252 12.6356 21.0664 12.4399 21.0664C12.2442 21.0664 12.0855 21.2252 12.0855 21.4211C12.0855 21.6169 12.2442 21.7757 12.4399 21.7757Z" fill="#1A1B1B"/>
<path d="M12.7567 15.3842C12.8513 15.3842 12.9281 15.3074 12.9281 15.2127C12.9281 15.118 12.8513 15.0412 12.7567 15.0412C12.6621 15.0412 12.5853 15.118 12.5853 15.2127C12.5853 15.3074 12.6621 15.3842 12.7567 15.3842Z" fill="#1A1B1B"/>
<path d="M12.796 16.7953C12.9063 16.7953 12.9956 16.7058 12.9956 16.5955C12.9956 16.4852 12.9063 16.3957 12.796 16.3957C12.6858 16.3957 12.5964 16.4852 12.5964 16.5955C12.5964 16.7058 12.6858 16.7953 12.796 16.7953Z" fill="#1A1B1B"/>
<path d="M12.8356 18.2069C12.9616 18.2069 13.0638 18.1047 13.0638 17.9786C13.0638 17.8525 12.9616 17.7503 12.8356 17.7503C12.7097 17.7503 12.6075 17.8525 12.6075 17.9786C12.6075 18.1047 12.7097 18.2069 12.8356 18.2069Z" fill="#1A1B1B"/>
<path d="M12.8752 19.6183C13.0168 19.6183 13.1316 19.5034 13.1316 19.3617C13.1316 19.22 13.0168 19.1051 12.8752 19.1051C12.7337 19.1051 12.6189 19.22 12.6189 19.3617C12.6189 19.5034 12.7337 19.6183 12.8752 19.6183Z" fill="#1A1B1B"/>
<path d="M12.9149 21.0297C13.072 21.0297 13.1995 20.9022 13.1995 20.7448C13.1995 20.5875 13.072 20.46 12.9149 20.46C12.7577 20.46 12.6302 20.5875 12.6302 20.7448C12.6302 20.9022 12.7577 21.0297 12.9149 21.0297Z" fill="#1A1B1B"/>
<path d="M13.1913 16.0094C13.2859 16.0094 13.3626 15.9326 13.3626 15.8379C13.3626 15.7432 13.2859 15.6664 13.1913 15.6664C13.0967 15.6664 13.0199 15.7432 13.0199 15.8379C13.0199 15.9326 13.0967 16.0094 13.1913 16.0094Z" fill="#1A1B1B"/>
<path d="M13.2441 17.3843C13.3596 17.3843 13.4532 17.2906 13.4532 17.175C13.4532 17.0594 13.3596 16.9657 13.2441 16.9657C13.1286 16.9657 13.035 17.0594 13.035 17.175C13.035 17.2906 13.1286 17.3843 13.2441 17.3843Z" fill="#1A1B1B"/>
<path d="M13.2966 18.7592C13.433 18.7592 13.5435 18.6486 13.5435 18.5121C13.5435 18.3757 13.433 18.2651 13.2966 18.2651C13.1603 18.2651 13.0498 18.3757 13.0498 18.5121C13.0498 18.6486 13.1603 18.7592 13.2966 18.7592Z" fill="#1A1B1B"/>
<path d="M13.3494 20.1339C13.5066 20.1339 13.6341 20.0063 13.6341 19.849C13.6341 19.6917 13.5066 19.5641 13.3494 19.5641C13.1922 19.5641 13.0648 19.6917 13.0648 19.849C13.0648 20.0063 13.1922 20.1339 13.3494 20.1339Z" fill="#1A1B1B"/>
<path d="M10.658 14.0037C10.7526 14.0037 10.8293 13.9269 10.8293 13.8322C10.8293 13.7375 10.7526 13.6607 10.658 13.6607C10.5633 13.6607 10.4866 13.7375 10.4866 13.8322C10.4866 13.9269 10.5633 14.0037 10.658 14.0037Z" fill="#1A1B1B"/>
<path d="M9.89175 15.0972C10.0072 15.0972 10.1009 15.0035 10.1009 14.8879C10.1009 14.7723 10.0072 14.6786 9.89175 14.6786C9.77626 14.6786 9.68264 14.7723 9.68264 14.8879C9.68264 15.0035 9.77626 15.0972 9.89175 15.0972Z" fill="#1A1B1B"/>
<path d="M9.12528 16.1909C9.26177 16.1909 9.37241 16.0802 9.37241 15.9436C9.37241 15.807 9.26177 15.6963 9.12528 15.6963C8.9888 15.6963 8.87815 15.807 8.87815 15.9436C8.87815 16.0802 8.9888 16.1909 9.12528 16.1909Z" fill="#1A1B1B"/>
<path d="M8.35881 17.2844C8.51615 17.2844 8.6437 17.1568 8.6437 16.9993C8.6437 16.8418 8.51615 16.7142 8.35881 16.7142C8.20147 16.7142 8.07393 16.8418 8.07393 16.9993C8.07393 17.1568 8.20147 17.2844 8.35881 17.2844Z" fill="#1A1B1B"/>
<path d="M7.59261 18.3782C7.7708 18.3782 7.91525 18.2336 7.91525 18.0552C7.91525 17.8769 7.7708 17.7323 7.59261 17.7323C7.41442 17.7323 7.26997 17.8769 7.26997 18.0552C7.26997 18.2336 7.41442 18.3782 7.59261 18.3782Z" fill="#1A1B1B"/>
<path d="M6.82614 19.4716C7.02518 19.4716 7.18653 19.3102 7.18653 19.1109C7.18653 18.9117 7.02518 18.7502 6.82614 18.7502C6.6271 18.7502 6.46574 18.9117 6.46574 19.1109C6.46574 19.3102 6.6271 19.4716 6.82614 19.4716Z" fill="#1A1B1B"/>
<path d="M6.05967 20.5651C6.27956 20.5651 6.45782 20.3867 6.45782 20.1666C6.45782 19.9466 6.27956 19.7681 6.05967 19.7681C5.83978 19.7681 5.66152 19.9466 5.66152 20.1666C5.66152 20.3867 5.83978 20.5651 6.05967 20.5651Z" fill="#1A1B1B"/>
<path d="M10.0829 14.2172C10.1775 14.2172 10.2543 14.1404 10.2543 14.0457C10.2543 13.951 10.1775 13.8742 10.0829 13.8742C9.98827 13.8742 9.91155 13.951 9.91155 14.0457C9.91155 14.1404 9.98827 14.2172 10.0829 14.2172Z" fill="#1A1B1B"/>
<path d="M9.28845 15.3173C9.40335 15.3173 9.4965 15.2241 9.4965 15.1091C9.4965 14.9941 9.40335 14.9008 9.28845 14.9008C9.17354 14.9008 9.0804 14.9941 9.0804 15.1091C9.0804 15.2241 9.17354 15.3173 9.28845 15.3173Z" fill="#1A1B1B"/>
<path d="M8.49399 16.4171C8.62902 16.4171 8.73848 16.3076 8.73848 16.1724C8.73848 16.0373 8.62902 15.9277 8.49399 15.9277C8.35897 15.9277 8.24951 16.0373 8.24951 16.1724C8.24951 16.3076 8.35897 16.4171 8.49399 16.4171Z" fill="#1A1B1B"/>
<path d="M7.6998 17.5172C7.8551 17.5172 7.98099 17.3912 7.98099 17.2358C7.98099 17.0804 7.8551 16.9544 7.6998 16.9544C7.54451 16.9544 7.41861 17.0804 7.41861 17.2358C7.41861 17.3912 7.54451 17.5172 7.6998 17.5172Z" fill="#1A1B1B"/>
<path d="M6.90535 18.6173C7.08077 18.6173 7.22297 18.475 7.22297 18.2994C7.22297 18.1238 7.08077 17.9815 6.90535 17.9815C6.72993 17.9815 6.58772 18.1238 6.58772 18.2994C6.58772 18.475 6.72993 18.6173 6.90535 18.6173Z" fill="#1A1B1B"/>
<path d="M6.11089 19.7174C6.30658 19.7174 6.46521 19.5586 6.46521 19.3628C6.46521 19.1669 6.30658 19.0081 6.11089 19.0081C5.9152 19.0081 5.75657 19.1669 5.75657 19.3628C5.75657 19.5586 5.9152 19.7174 6.11089 19.7174Z" fill="#1A1B1B"/>
<path d="M9.50073 14.3253C9.59536 14.3253 9.67208 14.2485 9.67208 14.1538C9.67208 14.0591 9.59536 13.9823 9.50073 13.9823C9.40609 13.9823 9.32937 14.0591 9.32937 14.1538C9.32937 14.2485 9.40609 14.3253 9.50073 14.3253Z" fill="#1A1B1B"/>
<path d="M8.65637 15.4492C8.76661 15.4492 8.85597 15.3597 8.85597 15.2494C8.85597 15.1391 8.76661 15.0496 8.65637 15.0496C8.54613 15.0496 8.45677 15.1391 8.45677 15.2494C8.45677 15.3597 8.54613 15.4492 8.65637 15.4492Z" fill="#1A1B1B"/>
<path d="M7.81228 16.5733C7.93826 16.5733 8.0404 16.4711 8.0404 16.345C8.0404 16.2189 7.93826 16.1167 7.81228 16.1167C7.68629 16.1167 7.58416 16.2189 7.58416 16.345C7.58416 16.4711 7.68629 16.5733 7.81228 16.5733Z" fill="#1A1B1B"/>
<path d="M6.96792 17.6974C7.10951 17.6974 7.22429 17.5826 7.22429 17.4409C7.22429 17.2991 7.10951 17.1843 6.96792 17.1843C6.82633 17.1843 6.71155 17.2991 6.71155 17.4409C6.71155 17.5826 6.82633 17.6974 6.96792 17.6974Z" fill="#1A1B1B"/>
<path d="M6.12383 18.8213C6.28102 18.8213 6.40845 18.6938 6.40845 18.5365C6.40845 18.3791 6.28102 18.2516 6.12383 18.2516C5.96664 18.2516 5.83921 18.3791 5.83921 18.5365C5.83921 18.6938 5.96664 18.8213 6.12383 18.8213Z" fill="#1A1B1B"/>
<path d="M8.78178 14.5753C8.87642 14.5753 8.95314 14.4985 8.95314 14.4038C8.95314 14.3091 8.87642 14.2323 8.78178 14.2323C8.68715 14.2323 8.61043 14.3091 8.61043 14.4038C8.61043 14.4985 8.68715 14.5753 8.78178 14.5753Z" fill="#1A1B1B"/>
<path d="M7.95406 15.664C8.06955 15.664 8.16317 15.5703 8.16317 15.4547C8.16317 15.3391 8.06955 15.2454 7.95406 15.2454C7.83857 15.2454 7.74495 15.3391 7.74495 15.4547C7.74495 15.5703 7.83857 15.664 7.95406 15.664Z" fill="#1A1B1B"/>
<path d="M7.12607 16.7525C7.26241 16.7525 7.37294 16.6419 7.37294 16.5054C7.37294 16.3689 7.26241 16.2583 7.12607 16.2583C6.98973 16.2583 6.87921 16.3689 6.87921 16.5054C6.87921 16.6419 6.98973 16.7525 7.12607 16.7525Z" fill="#1A1B1B"/>
<path d="M6.29835 17.8409C6.45554 17.8409 6.58297 17.7134 6.58297 17.5561C6.58297 17.3987 6.45554 17.2712 6.29835 17.2712C6.14116 17.2712 6.01373 17.3987 6.01373 17.5561C6.01373 17.7134 6.14116 17.8409 6.29835 17.8409Z" fill="#1A1B1B"/>
<path d="M10.6482 14.6281C10.7428 14.6281 10.8195 14.5514 10.8195 14.4566C10.8195 14.3619 10.7428 14.2851 10.6482 14.2851C10.5535 14.2851 10.4768 14.3619 10.4768 14.4566C10.4768 14.5514 10.5535 14.6281 10.6482 14.6281Z" fill="#1A1B1B"/>
<path d="M9.8833 15.7496C9.9982 15.7496 10.0914 15.6564 10.0914 15.5414C10.0914 15.4264 9.9982 15.3332 9.8833 15.3332C9.7684 15.3332 9.67525 15.4264 9.67525 15.5414C9.67525 15.6564 9.7684 15.7496 9.8833 15.7496Z" fill="#1A1B1B"/>
<path d="M9.11815 16.8709C9.25318 16.8709 9.36264 16.7613 9.36264 16.6262C9.36264 16.491 9.25318 16.3815 9.11815 16.3815C8.98312 16.3815 8.87366 16.491 8.87366 16.6262C8.87366 16.7613 8.98312 16.8709 9.11815 16.8709Z" fill="#1A1B1B"/>
<path d="M8.35327 17.9926C8.50856 17.9926 8.63446 17.8666 8.63446 17.7112C8.63446 17.5558 8.50856 17.4298 8.35327 17.4298C8.19797 17.4298 8.07208 17.5558 8.07208 17.7112C8.07208 17.8666 8.19797 17.9926 8.35327 17.9926Z" fill="#1A1B1B"/>
<path d="M7.58812 19.1138C7.76354 19.1138 7.90574 18.9715 7.90574 18.796C7.90574 18.6204 7.76354 18.4781 7.58812 18.4781C7.4127 18.4781 7.2705 18.6204 7.2705 18.796C7.2705 18.9715 7.4127 19.1138 7.58812 19.1138Z" fill="#1A1B1B"/>
<path d="M6.82297 20.2353C7.01866 20.2353 7.17729 20.0766 7.17729 19.8807C7.17729 19.6849 7.01866 19.5261 6.82297 19.5261C6.62728 19.5261 6.46865 19.6849 6.46865 19.8807C6.46865 20.0766 6.62728 20.2353 6.82297 20.2353Z" fill="#1A1B1B"/>
<path d="M10.7255 15.2158C10.8202 15.2158 10.8969 15.1391 10.8969 15.0443C10.8969 14.9496 10.8202 14.8728 10.7255 14.8728C10.6309 14.8728 10.5542 14.9496 10.5542 15.0443C10.5542 15.1391 10.6309 15.2158 10.7255 15.2158Z" fill="#1A1B1B"/>
<path d="M9.94508 16.3862C10.0553 16.3862 10.1447 16.2968 10.1447 16.1864C10.1447 16.0761 10.0553 15.9867 9.94508 15.9867C9.83484 15.9867 9.74548 16.0761 9.74548 16.1864C9.74548 16.2968 9.83484 16.3862 9.94508 16.3862Z" fill="#1A1B1B"/>
<path d="M9.16488 17.5569C9.29087 17.5569 9.393 17.4546 9.393 17.3285C9.393 17.2025 9.29087 17.1002 9.16488 17.1002C9.0389 17.1002 8.93677 17.2025 8.93677 17.3285C8.93677 17.4546 9.0389 17.5569 9.16488 17.5569Z" fill="#1A1B1B"/>
<path d="M8.38469 18.7275C8.52628 18.7275 8.64106 18.6126 8.64106 18.4709C8.64106 18.3292 8.52628 18.2143 8.38469 18.2143C8.2431 18.2143 8.12832 18.3292 8.12832 18.4709C8.12832 18.6126 8.2431 18.7275 8.38469 18.7275Z" fill="#1A1B1B"/>
<path d="M7.60422 19.8979C7.76142 19.8979 7.88884 19.7704 7.88884 19.613C7.88884 19.4557 7.76142 19.3282 7.60422 19.3282C7.44703 19.3282 7.3196 19.4557 7.3196 19.613C7.3196 19.7704 7.44703 19.8979 7.60422 19.8979Z" fill="#1A1B1B"/>
<path d="M10.71 15.9774C10.8046 15.9774 10.8813 15.9006 10.8813 15.8059C10.8813 15.7112 10.8046 15.6344 10.71 15.6344C10.6153 15.6344 10.5386 15.7112 10.5386 15.8059C10.5386 15.9006 10.6153 15.9774 10.71 15.9774Z" fill="#1A1B1B"/>
<path d="M9.96726 17.128C10.0827 17.128 10.1764 17.0343 10.1764 16.9187C10.1764 16.8031 10.0827 16.7094 9.96726 16.7094C9.85177 16.7094 9.75815 16.8031 9.75815 16.9187C9.75815 17.0343 9.85177 17.128 9.96726 17.128Z" fill="#1A1B1B"/>
<path d="M9.22456 18.2783C9.36089 18.2783 9.47142 18.1677 9.47142 18.0312C9.47142 17.8947 9.36089 17.7841 9.22456 17.7841C9.08822 17.7841 8.97769 17.8947 8.97769 18.0312C8.97769 18.1677 9.08822 18.2783 9.22456 18.2783Z" fill="#1A1B1B"/>
<path d="M8.48211 19.4288C8.6393 19.4288 8.76673 19.3013 8.76673 19.144C8.76673 18.9866 8.6393 18.8591 8.48211 18.8591C8.32492 18.8591 8.19749 18.9866 8.19749 19.144C8.19749 19.3013 8.32492 19.4288 8.48211 19.4288Z" fill="#1A1B1B"/>
<path d="M9.83842 12.8645C9.93305 12.8645 10.0098 12.7877 10.0098 12.693C10.0098 12.5983 9.93305 12.5215 9.83842 12.5215C9.74378 12.5215 9.66706 12.5983 9.66706 12.693C9.66706 12.7877 9.74378 12.8645 9.83842 12.8645Z" fill="#1A1B1B"/>
<path d="M8.59828 13.3055C8.71377 13.3055 8.80739 13.2118 8.80739 13.0963C8.80739 12.9807 8.71377 12.887 8.59828 12.887C8.4828 12.887 8.38917 12.9807 8.38917 13.0963C8.38917 13.2118 8.4828 13.3055 8.59828 13.3055Z" fill="#1A1B1B"/>
<path d="M7.35815 13.7469C7.49464 13.7469 7.60528 13.6361 7.60528 13.4995C7.60528 13.3629 7.49464 13.2522 7.35815 13.2522C7.22167 13.2522 7.11102 13.3629 7.11102 13.4995C7.11102 13.6361 7.22167 13.7469 7.35815 13.7469Z" fill="#1A1B1B"/>
<path d="M6.11828 14.1879C6.27562 14.1879 6.40317 14.0602 6.40317 13.9028C6.40317 13.7453 6.27562 13.6176 6.11828 13.6176C5.96095 13.6176 5.8334 13.7453 5.8334 13.9028C5.8334 14.0602 5.96095 14.1879 6.11828 14.1879Z" fill="#1A1B1B"/>
<path d="M4.87815 14.6289C5.05634 14.6289 5.20079 14.4844 5.20079 14.306C5.20079 14.1277 5.05634 13.9831 4.87815 13.9831C4.69996 13.9831 4.55551 14.1277 4.55551 14.306C4.55551 14.4844 4.69996 14.6289 4.87815 14.6289Z" fill="#1A1B1B"/>
<path d="M3.63802 15.07C3.83706 15.07 3.99842 14.9085 3.99842 14.7093C3.99842 14.5101 3.83706 14.3486 3.63802 14.3486C3.43898 14.3486 3.27762 14.5101 3.27762 14.7093C3.27762 14.9085 3.43898 15.07 3.63802 15.07Z" fill="#1A1B1B"/>
<path d="M2.39815 15.511C2.61805 15.511 2.7963 15.3326 2.7963 15.1125C2.7963 14.8924 2.61805 14.714 2.39815 14.714C2.17826 14.714 2 14.8924 2 15.1125C2 15.3326 2.17826 15.511 2.39815 15.511Z" fill="#1A1B1B"/>
<path d="M9.24752 12.6988C9.34216 12.6988 9.41888 12.622 9.41888 12.5273C9.41888 12.4326 9.34216 12.3558 9.24752 12.3558C9.15289 12.3558 9.07617 12.4326 9.07617 12.5273C9.07617 12.622 9.15289 12.6988 9.24752 12.6988Z" fill="#1A1B1B"/>
<path d="M7.98046 13.1285C8.09537 13.1285 8.18851 13.0353 8.18851 12.9203C8.18851 12.8053 8.09537 12.712 7.98046 12.712C7.86556 12.712 7.77241 12.8053 7.77241 12.9203C7.77241 13.0353 7.86556 13.1285 7.98046 13.1285Z" fill="#1A1B1B"/>
<path d="M6.71314 13.5579C6.84816 13.5579 6.95762 13.4484 6.95762 13.3132C6.95762 13.1781 6.84816 13.0685 6.71314 13.0685C6.57811 13.0685 6.46865 13.1781 6.46865 13.3132C6.46865 13.4484 6.57811 13.5579 6.71314 13.5579Z" fill="#1A1B1B"/>
<path d="M5.44607 13.9879C5.60137 13.9879 5.72726 13.8619 5.72726 13.7064C5.72726 13.551 5.60137 13.425 5.44607 13.425C5.29078 13.425 5.16488 13.551 5.16488 13.7064C5.16488 13.8619 5.29078 13.9879 5.44607 13.9879Z" fill="#1A1B1B"/>
<path d="M4.17875 14.4173C4.35416 14.4173 4.49637 14.2749 4.49637 14.0994C4.49637 13.9238 4.35416 13.7815 4.17875 13.7815C4.00333 13.7815 3.86112 13.9238 3.86112 14.0994C3.86112 14.2749 4.00333 14.4173 4.17875 14.4173Z" fill="#1A1B1B"/>
<path d="M2.91142 14.8469C3.10711 14.8469 3.26574 14.6882 3.26574 14.4923C3.26574 14.2965 3.10711 14.1377 2.91142 14.1377C2.71573 14.1377 2.5571 14.2965 2.5571 14.4923C2.5571 14.6882 2.71573 14.8469 2.91142 14.8469Z" fill="#1A1B1B"/>
<path d="M8.71314 12.4438C8.80777 12.4438 8.88449 12.367 8.88449 12.2723C8.88449 12.1776 8.80777 12.1008 8.71314 12.1008C8.6185 12.1008 8.54178 12.1776 8.54178 12.2723C8.54178 12.367 8.6185 12.4438 8.71314 12.4438Z" fill="#1A1B1B"/>
<path d="M7.38667 12.8619C7.4969 12.8619 7.58627 12.7724 7.58627 12.6621C7.58627 12.5518 7.4969 12.4623 7.38667 12.4623C7.27643 12.4623 7.18706 12.5518 7.18706 12.6621C7.18706 12.7724 7.27643 12.8619 7.38667 12.8619Z" fill="#1A1B1B"/>
<path d="M6.0602 13.2802C6.18618 13.2802 6.28832 13.178 6.28832 13.0519C6.28832 12.9258 6.18618 12.8235 6.0602 12.8235C5.93421 12.8235 5.83208 12.9258 5.83208 13.0519C5.83208 13.178 5.93421 13.2802 6.0602 13.2802Z" fill="#1A1B1B"/>
<path d="M4.73373 13.6982C4.87532 13.6982 4.9901 13.5833 4.9901 13.4416C4.9901 13.2999 4.87532 13.185 4.73373 13.185C4.59214 13.185 4.47736 13.2999 4.47736 13.4416C4.47736 13.5833 4.59214 13.6982 4.73373 13.6982Z" fill="#1A1B1B"/>
<path d="M3.40726 14.1163C3.56445 14.1163 3.69188 13.9887 3.69188 13.8314C3.69188 13.6741 3.56445 13.5465 3.40726 13.5465C3.25007 13.5465 3.12264 13.6741 3.12264 13.8314C3.12264 13.9887 3.25007 14.1163 3.40726 14.1163Z" fill="#1A1B1B"/>
<path d="M7.98469 12.2232C8.07932 12.2232 8.15604 12.1464 8.15604 12.0517C8.15604 11.9569 8.07932 11.8802 7.98469 11.8802C7.89005 11.8802 7.81333 11.9569 7.81333 12.0517C7.81333 12.1464 7.89005 12.2232 7.98469 12.2232Z" fill="#1A1B1B"/>
<path d="M6.69782 12.624C6.81331 12.624 6.90693 12.5303 6.90693 12.4147C6.90693 12.2992 6.81331 12.2055 6.69782 12.2055C6.58233 12.2055 6.48871 12.2992 6.48871 12.4147C6.48871 12.5303 6.58233 12.624 6.69782 12.624Z" fill="#1A1B1B"/>
<path d="M5.41096 13.0249C5.5473 13.0249 5.65782 12.9143 5.65782 12.7778C5.65782 12.6414 5.5473 12.5308 5.41096 12.5308C5.27462 12.5308 5.16409 12.6414 5.16409 12.7778C5.16409 12.9143 5.27462 13.0249 5.41096 13.0249Z" fill="#1A1B1B"/>
<path d="M4.12409 13.4258C4.28128 13.4258 4.40871 13.2982 4.40871 13.1409C4.40871 12.9836 4.28128 12.8561 4.12409 12.8561C3.9669 12.8561 3.83947 12.9836 3.83947 13.1409C3.83947 13.2982 3.9669 13.4258 4.12409 13.4258Z" fill="#1A1B1B"/>
<path d="M9.4635 13.3639C9.55813 13.3639 9.63485 13.2872 9.63485 13.1924C9.63485 13.0977 9.55813 13.0209 9.4635 13.0209C9.36886 13.0209 9.29215 13.0977 9.29215 13.1924C9.29215 13.2872 9.36886 13.3639 9.4635 13.3639Z" fill="#1A1B1B"/>
<path d="M8.20752 13.8282C8.32243 13.8282 8.41558 13.735 8.41558 13.62C8.41558 13.505 8.32243 13.4118 8.20752 13.4118C8.09262 13.4118 7.99947 13.505 7.99947 13.62C7.99947 13.735 8.09262 13.8282 8.20752 13.8282Z" fill="#1A1B1B"/>
<path d="M6.95155 14.2923C7.08658 14.2923 7.19604 14.1827 7.19604 14.0476C7.19604 13.9124 7.08658 13.8029 6.95155 13.8029C6.81652 13.8029 6.70706 13.9124 6.70706 14.0476C6.70706 14.1827 6.81652 14.2923 6.95155 14.2923Z" fill="#1A1B1B"/>
<path d="M5.69558 14.7566C5.85087 14.7566 5.97677 14.6306 5.97677 14.4751C5.97677 14.3197 5.85087 14.1937 5.69558 14.1937C5.54028 14.1937 5.41439 14.3197 5.41439 14.4751C5.41439 14.6306 5.54028 14.7566 5.69558 14.7566Z" fill="#1A1B1B"/>
<path d="M4.4396 15.2206C4.61502 15.2206 4.75723 15.0783 4.75723 14.9027C4.75723 14.7271 4.61502 14.5848 4.4396 14.5848C4.26419 14.5848 4.12198 14.7271 4.12198 14.9027C4.12198 15.0783 4.26419 15.2206 4.4396 15.2206Z" fill="#1A1B1B"/>
<path d="M3.18363 15.6849C3.37932 15.6849 3.53795 15.5261 3.53795 15.3303C3.53795 15.1344 3.37932 14.9756 3.18363 14.9756C2.98794 14.9756 2.82931 15.1344 2.82931 15.3303C2.82931 15.5261 2.98794 15.6849 3.18363 15.6849Z" fill="#1A1B1B"/>
<path d="M9.18099 13.8848C9.27563 13.8848 9.35234 13.808 9.35234 13.7133C9.35234 13.6186 9.27563 13.5418 9.18099 13.5418C9.08635 13.5418 9.00964 13.6186 9.00964 13.7133C9.00964 13.808 9.08635 13.8848 9.18099 13.8848Z" fill="#1A1B1B"/>
<path d="M7.87881 14.3782C7.98905 14.3782 8.07842 14.2887 8.07842 14.1784C8.07842 14.068 7.98905 13.9786 7.87881 13.9786C7.76857 13.9786 7.67921 14.068 7.67921 14.1784C7.67921 14.2887 7.76857 14.3782 7.87881 14.3782Z" fill="#1A1B1B"/>
<path d="M6.5769 14.8715C6.70288 14.8715 6.80502 14.7693 6.80502 14.6432C6.80502 14.5171 6.70288 14.4149 6.5769 14.4149C6.45091 14.4149 6.34878 14.5171 6.34878 14.6432C6.34878 14.7693 6.45091 14.8715 6.5769 14.8715Z" fill="#1A1B1B"/>
<path d="M5.27472 15.3649C5.41631 15.3649 5.53109 15.25 5.53109 15.1083C5.53109 14.9666 5.41631 14.8517 5.27472 14.8517C5.13313 14.8517 5.01835 14.9666 5.01835 15.1083C5.01835 15.25 5.13313 15.3649 5.27472 15.3649Z" fill="#1A1B1B"/>
<path d="M3.97281 15.8582C4.13 15.8582 4.25743 15.7307 4.25743 15.5734C4.25743 15.416 4.13 15.2885 3.97281 15.2885C3.81561 15.2885 3.68818 15.416 3.68818 15.5734C3.68818 15.7307 3.81561 15.8582 3.97281 15.8582Z" fill="#1A1B1B"/>
<path d="M8.72106 14.4918C8.81569 14.4918 8.89241 14.415 8.89241 14.3203C8.89241 14.2256 8.81569 14.1488 8.72106 14.1488C8.62642 14.1488 8.5497 14.2256 8.5497 14.3203C8.5497 14.415 8.62642 14.4918 8.72106 14.4918Z" fill="#1A1B1B"/>
<path d="M7.46693 14.9928C7.58242 14.9928 7.67604 14.8991 7.67604 14.7835C7.67604 14.6679 7.58242 14.5742 7.46693 14.5742C7.35144 14.5742 7.25782 14.6679 7.25782 14.7835C7.25782 14.8991 7.35144 14.9928 7.46693 14.9928Z" fill="#1A1B1B"/>
<path d="M6.21254 15.4941C6.34888 15.4941 6.45941 15.3835 6.45941 15.247C6.45941 15.1106 6.34888 14.9999 6.21254 14.9999C6.0762 14.9999 5.96568 15.1106 5.96568 15.247C5.96568 15.3835 6.0762 15.4941 6.21254 15.4941Z" fill="#1A1B1B"/>
<path d="M4.95842 15.9951C5.11561 15.9951 5.24304 15.8676 5.24304 15.7103C5.24304 15.5529 5.11561 15.4254 4.95842 15.4254C4.80122 15.4254 4.6738 15.5529 4.6738 15.7103C4.6738 15.8676 4.80122 15.9951 4.95842 15.9951Z" fill="#1A1B1B"/>
<path d="M9.84422 11.4605C9.93886 11.4605 10.0156 11.3837 10.0156 11.289C10.0156 11.1943 9.93886 11.1175 9.84422 11.1175C9.74959 11.1175 9.67287 11.1943 9.67287 11.289C9.67287 11.3837 9.74959 11.4605 9.84422 11.4605Z" fill="#1A1B1B"/>
<path d="M8.60409 11.0951C8.71958 11.0951 8.8132 11.0014 8.8132 10.8858C8.8132 10.7702 8.71958 10.6765 8.60409 10.6765C8.48861 10.6765 8.39498 10.7702 8.39498 10.8858C8.39498 11.0014 8.48861 11.0951 8.60409 11.0951Z" fill="#1A1B1B"/>
<path d="M7.36396 10.7299C7.50045 10.7299 7.61109 10.6191 7.61109 10.4825C7.61109 10.3459 7.50045 10.2352 7.36396 10.2352C7.22747 10.2352 7.11683 10.3459 7.11683 10.4825C7.11683 10.6191 7.22747 10.7299 7.36396 10.7299Z" fill="#1A1B1B"/>
<path d="M6.12409 10.3644C6.28143 10.3644 6.40898 10.2367 6.40898 10.0793C6.40898 9.9218 6.28143 9.79414 6.12409 9.79414C5.96676 9.79414 5.83921 9.9218 5.83921 10.0793C5.83921 10.2367 5.96676 10.3644 6.12409 10.3644Z" fill="#1A1B1B"/>
<path d="M4.88396 9.99894C5.06215 9.99894 5.2066 9.85436 5.2066 9.67602C5.2066 9.49767 5.06215 9.3531 4.88396 9.3531C4.70577 9.3531 4.56132 9.49767 4.56132 9.67602C4.56132 9.85436 4.70577 9.99894 4.88396 9.99894Z" fill="#1A1B1B"/>
<path d="M3.64383 9.63347C3.84287 9.63347 4.00422 9.47198 4.00422 9.27277C4.00422 9.07355 3.84287 8.91206 3.64383 8.91206C3.44479 8.91206 3.28343 9.07355 3.28343 9.27277C3.28343 9.47198 3.44479 9.63347 3.64383 9.63347Z" fill="#1A1B1B"/>
<path d="M2.40396 9.26801C2.62385 9.26801 2.80211 9.0896 2.80211 8.86952C2.80211 8.64943 2.62385 8.47102 2.40396 8.47102C2.18407 8.47102 2.00581 8.64943 2.00581 8.86952C2.00581 9.0896 2.18407 9.26801 2.40396 9.26801Z" fill="#1A1B1B"/>
<path d="M9.4635 10.9791C9.55813 10.9791 9.63485 10.9023 9.63485 10.8076C9.63485 10.7128 9.55813 10.6361 9.4635 10.6361C9.36886 10.6361 9.29215 10.7128 9.29215 10.8076C9.29215 10.9023 9.36886 10.9791 9.4635 10.9791Z" fill="#1A1B1B"/>
<path d="M8.20752 10.5882C8.32243 10.5882 8.41558 10.495 8.41558 10.38C8.41558 10.265 8.32243 10.1718 8.20752 10.1718C8.09262 10.1718 7.99947 10.265 7.99947 10.38C7.99947 10.495 8.09262 10.5882 8.20752 10.5882Z" fill="#1A1B1B"/>
<path d="M6.95155 10.1971C7.08658 10.1971 7.19604 10.0876 7.19604 9.95243C7.19604 9.81728 7.08658 9.70773 6.95155 9.70773C6.81652 9.70773 6.70706 9.81728 6.70706 9.95243C6.70706 10.0876 6.81652 10.1971 6.95155 10.1971Z" fill="#1A1B1B"/>
<path d="M5.69558 9.8063C5.85087 9.8063 5.97677 9.68029 5.97677 9.52487C5.97677 9.36944 5.85087 9.24343 5.69558 9.24343C5.54028 9.24343 5.41439 9.36944 5.41439 9.52487C5.41439 9.68029 5.54028 9.8063 5.69558 9.8063Z" fill="#1A1B1B"/>
<path d="M4.4396 9.4152C4.61502 9.4152 4.75723 9.27287 4.75723 9.0973C4.75723 8.92173 4.61502 8.7794 4.4396 8.7794C4.26419 8.7794 4.12198 8.92173 4.12198 9.0973C4.12198 9.27287 4.26419 9.4152 4.4396 9.4152Z" fill="#1A1B1B"/>
<path d="M3.18363 9.02437C3.37932 9.02437 3.53795 8.8656 3.53795 8.66974C3.53795 8.47388 3.37932 8.31511 3.18363 8.31511C2.98794 8.31511 2.82931 8.47388 2.82931 8.66974C2.82931 8.8656 2.98794 9.02437 3.18363 9.02437Z" fill="#1A1B1B"/>
<path d="M9.18099 10.4582C9.27563 10.4582 9.35234 10.3814 9.35234 10.2867C9.35234 10.192 9.27563 10.1152 9.18099 10.1152C9.08635 10.1152 9.00964 10.192 9.00964 10.2867C9.00964 10.3814 9.08635 10.4582 9.18099 10.4582Z" fill="#1A1B1B"/>
<path d="M7.87881 10.0217C7.98905 10.0217 8.07842 9.93222 8.07842 9.82189C8.07842 9.71155 7.98905 9.62211 7.87881 9.62211C7.76857 9.62211 7.67921 9.71155 7.67921 9.82189C7.67921 9.93222 7.76857 10.0217 7.87881 10.0217Z" fill="#1A1B1B"/>
<path d="M6.5769 9.58511C6.70288 9.58511 6.80502 9.48289 6.80502 9.3568C6.80502 9.2307 6.70288 9.12848 6.5769 9.12848C6.45091 9.12848 6.34878 9.2307 6.34878 9.3568C6.34878 9.48289 6.45091 9.58511 6.5769 9.58511Z" fill="#1A1B1B"/>
<path d="M5.27472 9.1483C5.41631 9.1483 5.53109 9.03342 5.53109 8.89171C5.53109 8.75 5.41631 8.63512 5.27472 8.63512C5.13313 8.63512 5.01835 8.75 5.01835 8.89171C5.01835 9.03342 5.13313 9.1483 5.27472 9.1483Z" fill="#1A1B1B"/>
<path d="M3.97281 8.71149C4.13 8.71149 4.25743 8.58395 4.25743 8.42663C4.25743 8.2693 4.13 8.14176 3.97281 8.14176C3.81561 8.14176 3.68818 8.2693 3.68818 8.42663C3.68818 8.58395 3.81561 8.71149 3.97281 8.71149Z" fill="#1A1B1B"/>
<path d="M8.72106 9.85122C8.81569 9.85122 8.89241 9.77444 8.89241 9.67972C8.89241 9.585 8.81569 9.50822 8.72106 9.50822C8.62642 9.50822 8.5497 9.585 8.5497 9.67972C8.5497 9.77444 8.62642 9.85122 8.72106 9.85122Z" fill="#1A1B1B"/>
<path d="M7.46693 9.42577C7.58242 9.42577 7.67604 9.33207 7.67604 9.21648C7.67604 9.10089 7.58242 9.00719 7.46693 9.00719C7.35144 9.00719 7.25782 9.10089 7.25782 9.21648C7.25782 9.33207 7.35144 9.42577 7.46693 9.42577Z" fill="#1A1B1B"/>
<path d="M6.21254 9.00032C6.34888 9.00032 6.45941 8.8897 6.45941 8.75324C6.45941 8.61679 6.34888 8.50617 6.21254 8.50617C6.0762 8.50617 5.96568 8.61679 5.96568 8.75324C5.96568 8.8897 6.0762 9.00032 6.21254 9.00032Z" fill="#1A1B1B"/>
<path d="M4.95842 8.57461C5.11561 8.57461 5.24304 8.44707 5.24304 8.28974C5.24304 8.13241 5.11561 8.00488 4.95842 8.00488C4.80122 8.00488 4.6738 8.13241 4.6738 8.28974C4.6738 8.44707 4.80122 8.57461 4.95842 8.57461Z" fill="#1A1B1B"/>
<path d="M9.24779 11.6442C9.34242 11.6442 9.41914 11.5674 9.41914 11.4727C9.41914 11.378 9.34242 11.3012 9.24779 11.3012C9.15315 11.3012 9.07644 11.378 9.07644 11.4727C9.07644 11.5674 9.15315 11.6442 9.24779 11.6442Z" fill="#1A1B1B"/>
<path d="M7.98046 11.288C8.09537 11.288 8.18851 11.1947 8.18851 11.0797C8.18851 10.9647 8.09537 10.8715 7.98046 10.8715C7.86556 10.8715 7.77241 10.9647 7.77241 11.0797C7.77241 11.1947 7.86556 11.288 7.98046 11.288Z" fill="#1A1B1B"/>
<path d="M6.71314 10.9315C6.84816 10.9315 6.95762 10.8219 6.95762 10.6868C6.95762 10.5516 6.84816 10.4421 6.71314 10.4421C6.57811 10.4421 6.46865 10.5516 6.46865 10.6868C6.46865 10.8219 6.57811 10.9315 6.71314 10.9315Z" fill="#1A1B1B"/>
<path d="M5.44607 10.5753C5.60137 10.5753 5.72726 10.4493 5.72726 10.2938C5.72726 10.1384 5.60137 10.0124 5.44607 10.0124C5.29078 10.0124 5.16488 10.1384 5.16488 10.2938C5.16488 10.4493 5.29078 10.5753 5.44607 10.5753Z" fill="#1A1B1B"/>
<path d="M4.17875 10.2185C4.35416 10.2185 4.49637 10.0762 4.49637 9.90063C4.49637 9.72506 4.35416 9.58274 4.17875 9.58274C4.00333 9.58274 3.86112 9.72506 3.86112 9.90063C3.86112 10.0762 4.00333 10.2185 4.17875 10.2185Z" fill="#1A1B1B"/>
<path d="M2.91142 9.86232C3.10711 9.86232 3.26574 9.70354 3.26574 9.50769C3.26574 9.31183 3.10711 9.15306 2.91142 9.15306C2.71573 9.15306 2.5571 9.31183 2.5571 9.50769C2.5571 9.70354 2.71573 9.86232 2.91142 9.86232Z" fill="#1A1B1B"/>
<path d="M8.71314 11.8992C8.80777 11.8992 8.88449 11.8224 8.88449 11.7277C8.88449 11.633 8.80777 11.5562 8.71314 11.5562C8.6185 11.5562 8.54178 11.633 8.54178 11.7277C8.54178 11.8224 8.6185 11.8992 8.71314 11.8992Z" fill="#1A1B1B"/>
<path d="M7.38667 11.5377C7.4969 11.5377 7.58627 11.4482 7.58627 11.3379C7.58627 11.2276 7.4969 11.1381 7.38667 11.1381C7.27643 11.1381 7.18706 11.2276 7.18706 11.3379C7.18706 11.4482 7.27643 11.5377 7.38667 11.5377Z" fill="#1A1B1B"/>
<path d="M6.0602 11.1765C6.18618 11.1765 6.28832 11.0742 6.28832 10.9481C6.28832 10.822 6.18618 10.7198 6.0602 10.7198C5.93421 10.7198 5.83208 10.822 5.83208 10.9481C5.83208 11.0742 5.93421 11.1765 6.0602 11.1765Z" fill="#1A1B1B"/>
<path d="M4.73373 10.815C4.87532 10.815 4.9901 10.7001 4.9901 10.5584C4.9901 10.4167 4.87532 10.3018 4.73373 10.3018C4.59214 10.3018 4.47736 10.4167 4.47736 10.5584C4.47736 10.7001 4.59214 10.815 4.73373 10.815Z" fill="#1A1B1B"/>
<path d="M3.40726 10.4535C3.56445 10.4535 3.69188 10.3259 3.69188 10.1686C3.69188 10.0113 3.56445 9.88372 3.40726 9.88372C3.25007 9.88372 3.12264 10.0113 3.12264 10.1686C3.12264 10.3259 3.25007 10.4535 3.40726 10.4535Z" fill="#1A1B1B"/>
<path d="M7.98469 12.1198C8.07932 12.1198 8.15604 12.0431 8.15604 11.9483C8.15604 11.8536 8.07932 11.7768 7.98469 11.7768C7.89005 11.7768 7.81333 11.8536 7.81333 11.9483C7.81333 12.0431 7.89005 12.1198 7.98469 12.1198Z" fill="#1A1B1B"/>
<path d="M6.69782 11.7945C6.81331 11.7945 6.90693 11.7008 6.90693 11.5853C6.90693 11.4697 6.81331 11.376 6.69782 11.376C6.58233 11.376 6.48871 11.4697 6.48871 11.5853C6.48871 11.7008 6.58233 11.7945 6.69782 11.7945Z" fill="#1A1B1B"/>
<path d="M5.41096 11.4692C5.5473 11.4692 5.65782 11.3586 5.65782 11.2222C5.65782 11.0857 5.5473 10.9751 5.41096 10.9751C5.27462 10.9751 5.16409 11.0857 5.16409 11.2222C5.16409 11.3586 5.27462 11.4692 5.41096 11.4692Z" fill="#1A1B1B"/>
<path d="M4.12409 11.1439C4.28128 11.1439 4.40871 11.0164 4.40871 10.8591C4.40871 10.7018 4.28128 10.5742 4.12409 10.5742C3.9669 10.5742 3.83947 10.7018 3.83947 10.8591C3.83947 11.0164 3.9669 11.1439 4.12409 11.1439Z" fill="#1A1B1B"/>
<path d="M10.6733 10.3282C10.7679 10.3282 10.8446 10.2514 10.8446 10.1567C10.8446 10.062 10.7679 9.9852 10.6733 9.9852C10.5786 9.9852 10.5019 10.062 10.5019 10.1567C10.5019 10.2514 10.5786 10.3282 10.6733 10.3282Z" fill="#1A1B1B"/>
<path d="M9.90706 9.31029C10.0226 9.31029 10.1162 9.21659 10.1162 9.101C10.1162 8.98541 10.0226 8.89171 9.90706 8.89171C9.79157 8.89171 9.69795 8.98541 9.69795 9.101C9.69795 9.21659 9.79157 9.31029 9.90706 9.31029Z" fill="#1A1B1B"/>
<path d="M9.14059 8.29265C9.27708 8.29265 9.38772 8.18191 9.38772 8.04531C9.38772 7.9087 9.27708 7.79797 9.14059 7.79797C9.00411 7.79797 8.89347 7.9087 8.89347 8.04531C8.89347 8.18191 9.00411 8.29265 9.14059 8.29265Z" fill="#1A1B1B"/>
<path d="M8.37413 7.27448C8.53146 7.27448 8.65901 7.14682 8.65901 6.98935C8.65901 6.83187 8.53146 6.70422 8.37413 6.70422C8.21679 6.70422 8.08924 6.83187 8.08924 6.98935C8.08924 7.14682 8.21679 7.27448 8.37413 7.27448Z" fill="#1A1B1B"/>
<path d="M7.60792 6.25657C7.78611 6.25657 7.93056 6.112 7.93056 5.93365C7.93056 5.75531 7.78611 5.61073 7.60792 5.61073C7.42973 5.61073 7.28528 5.75531 7.28528 5.93365C7.28528 6.112 7.42973 6.25657 7.60792 6.25657Z" fill="#1A1B1B"/>
<path d="M6.84145 5.23867C7.04049 5.23867 7.20185 5.07717 7.20185 4.87796C7.20185 4.67875 7.04049 4.51725 6.84145 4.51725C6.64241 4.51725 6.48106 4.67875 6.48106 4.87796C6.48106 5.07717 6.64241 5.23867 6.84145 5.23867Z" fill="#1A1B1B"/>
<path d="M6.07498 4.22076C6.29488 4.22076 6.47313 4.04235 6.47313 3.82226C6.47313 3.60218 6.29488 3.42377 6.07498 3.42377C5.85509 3.42377 5.67683 3.60218 5.67683 3.82226C5.67683 4.04235 5.85509 4.22076 6.07498 4.22076Z" fill="#1A1B1B"/>
<path d="M10.6482 9.71486C10.7428 9.71486 10.8195 9.63808 10.8195 9.54336C10.8195 9.44865 10.7428 9.37186 10.6482 9.37186C10.5535 9.37186 10.4768 9.44865 10.4768 9.54336C10.4768 9.63808 10.5535 9.71486 10.6482 9.71486Z" fill="#1A1B1B"/>
<path d="M9.8833 8.66683C9.9982 8.66683 10.0914 8.5736 10.0914 8.4586C10.0914 8.3436 9.9982 8.25037 9.8833 8.25037C9.7684 8.25037 9.67525 8.3436 9.67525 8.4586C9.67525 8.5736 9.7684 8.66683 9.8833 8.66683Z" fill="#1A1B1B"/>
<path d="M9.11815 7.61827C9.25318 7.61827 9.36264 7.50872 9.36264 7.37357C9.36264 7.23843 9.25318 7.12887 9.11815 7.12887C8.98312 7.12887 8.87366 7.23843 8.87366 7.37357C8.87366 7.50872 8.98312 7.61827 9.11815 7.61827Z" fill="#1A1B1B"/>
<path d="M8.35327 6.57024C8.50856 6.57024 8.63446 6.44424 8.63446 6.28881C8.63446 6.13338 8.50856 6.00738 8.35327 6.00738C8.19797 6.00738 8.07208 6.13338 8.07208 6.28881C8.07208 6.44424 8.19797 6.57024 8.35327 6.57024Z" fill="#1A1B1B"/>
<path d="M7.58812 5.52195C7.76354 5.52195 7.90574 5.37962 7.90574 5.20405C7.90574 5.02848 7.76354 4.88615 7.58812 4.88615C7.4127 4.88615 7.2705 5.02848 7.2705 5.20405C7.2705 5.37962 7.4127 5.52195 7.58812 5.52195Z" fill="#1A1B1B"/>
<path d="M6.82297 4.47391C7.01866 4.47391 7.17729 4.31514 7.17729 4.11929C7.17729 3.92343 7.01866 3.76466 6.82297 3.76466C6.62728 3.76466 6.46865 3.92343 6.46865 4.11929C6.46865 4.31514 6.62728 4.47391 6.82297 4.47391Z" fill="#1A1B1B"/>
<path d="M10.7255 9.12716C10.8202 9.12716 10.8969 9.05038 10.8969 8.95566C10.8969 8.86095 10.8202 8.78416 10.7255 8.78416C10.6309 8.78416 10.5542 8.86095 10.5542 8.95566C10.5542 9.05038 10.6309 9.12716 10.7255 9.12716Z" fill="#1A1B1B"/>
<path d="M9.94508 8.01333C10.0553 8.01333 10.1447 7.92389 10.1447 7.81356C10.1447 7.70322 10.0553 7.61378 9.94508 7.61378C9.83484 7.61378 9.74548 7.70322 9.74548 7.81356C9.74548 7.92389 9.83484 8.01333 9.94508 8.01333Z" fill="#1A1B1B"/>
<path d="M9.16488 6.89977C9.29087 6.89977 9.393 6.79755 9.393 6.67145C9.393 6.54536 9.29087 6.44314 9.16488 6.44314C9.0389 6.44314 8.93677 6.54536 8.93677 6.67145C8.93677 6.79755 9.0389 6.89977 9.16488 6.89977Z" fill="#1A1B1B"/>
<path d="M8.38469 5.78567C8.52628 5.78567 8.64106 5.67079 8.64106 5.52908C8.64106 5.38737 8.52628 5.27249 8.38469 5.27249C8.2431 5.27249 8.12832 5.38737 8.12832 5.52908C8.12832 5.67079 8.2431 5.78567 8.38469 5.78567Z" fill="#1A1B1B"/>
<path d="M7.60422 4.67184C7.76142 4.67184 7.88884 4.5443 7.88884 4.38697C7.88884 4.22965 7.76142 4.10211 7.60422 4.10211C7.44703 4.10211 7.3196 4.22965 7.3196 4.38697C7.3196 4.5443 7.44703 4.67184 7.60422 4.67184Z" fill="#1A1B1B"/>
<path d="M10.71 8.36558C10.8046 8.36558 10.8813 8.2888 10.8813 8.19408C10.8813 8.09936 10.8046 8.02258 10.71 8.02258C10.6153 8.02258 10.5386 8.09936 10.5386 8.19408C10.5386 8.2888 10.6153 8.36558 10.71 8.36558Z" fill="#1A1B1B"/>
<path d="M9.96726 7.2906C10.0827 7.2906 10.1764 7.1969 10.1764 7.08131C10.1764 6.96572 10.0827 6.87202 9.96726 6.87202C9.85177 6.87202 9.75815 6.96572 9.75815 7.08131C9.75815 7.1969 9.85177 7.2906 9.96726 7.2906Z" fill="#1A1B1B"/>
<path d="M9.22456 6.21588C9.36089 6.21588 9.47142 6.10526 9.47142 5.9688C9.47142 5.83234 9.36089 5.72172 9.22456 5.72172C9.08822 5.72172 8.97769 5.83234 8.97769 5.9688C8.97769 6.10526 9.08822 6.21588 9.22456 6.21588Z" fill="#1A1B1B"/>
<path d="M8.48211 5.14089C8.6393 5.14089 8.76673 5.01335 8.76673 4.85603C8.76673 4.6987 8.6393 4.57116 8.48211 4.57116C8.32492 4.57116 8.19749 4.6987 8.19749 4.85603C8.19749 5.01335 8.32492 5.14089 8.48211 5.14089Z" fill="#1A1B1B"/>
<path d="M10.0829 10.1258C10.1775 10.1258 10.2543 10.049 10.2543 9.95428C10.2543 9.85956 10.1775 9.78278 10.0829 9.78278C9.98827 9.78278 9.91155 9.85956 9.91155 9.95428C9.91155 10.049 9.98827 10.1258 10.0829 10.1258Z" fill="#1A1B1B"/>
<path d="M9.28845 9.09915C9.40335 9.09915 9.4965 9.00592 9.4965 8.89092C9.4965 8.77592 9.40335 8.68269 9.28845 8.68269C9.17354 8.68269 9.0804 8.77592 9.0804 8.89092C9.0804 9.00592 9.17354 9.09915 9.28845 9.09915Z" fill="#1A1B1B"/>
<path d="M8.49399 8.07226C8.62902 8.07226 8.73848 7.96271 8.73848 7.82756C8.73848 7.69242 8.62902 7.58286 8.49399 7.58286C8.35897 7.58286 8.24951 7.69242 8.24951 7.82756C8.24951 7.96271 8.35897 8.07226 8.49399 8.07226Z" fill="#1A1B1B"/>
<path d="M7.6998 7.04563C7.8551 7.04563 7.98099 6.91963 7.98099 6.7642C7.98099 6.60877 7.8551 6.48277 7.6998 6.48277C7.54451 6.48277 7.41861 6.60877 7.41861 6.7642C7.41861 6.91963 7.54451 7.04563 7.6998 7.04563Z" fill="#1A1B1B"/>
<path d="M6.90535 6.01848C7.08077 6.01848 7.22297 5.87615 7.22297 5.70058C7.22297 5.52501 7.08077 5.38268 6.90535 5.38268C6.72993 5.38268 6.58772 5.52501 6.58772 5.70058C6.58772 5.87615 6.72993 6.01848 6.90535 6.01848Z" fill="#1A1B1B"/>
<path d="M6.11089 4.99185C6.30658 4.99185 6.46521 4.83308 6.46521 4.63722C6.46521 4.44137 6.30658 4.28259 6.11089 4.28259C5.9152 4.28259 5.75657 4.44137 5.75657 4.63722C5.75657 4.83308 5.9152 4.99185 6.11089 4.99185Z" fill="#1A1B1B"/>
<path d="M9.50073 10.0177C9.59536 10.0177 9.67208 9.94092 9.67208 9.8462C9.67208 9.75148 9.59536 9.6747 9.50073 9.6747C9.40609 9.6747 9.32937 9.75148 9.32937 9.8462C9.32937 9.94092 9.40609 10.0177 9.50073 10.0177Z" fill="#1A1B1B"/>
<path d="M8.65637 8.95038C8.76661 8.95038 8.85597 8.86093 8.85597 8.7506C8.85597 8.64027 8.76661 8.55083 8.65637 8.55083C8.54613 8.55083 8.45677 8.64027 8.45677 8.7506C8.45677 8.86093 8.54613 8.95038 8.65637 8.95038Z" fill="#1A1B1B"/>
<path d="M7.81228 7.88332C7.93826 7.88332 8.0404 7.7811 8.0404 7.655C8.0404 7.52891 7.93826 7.42669 7.81228 7.42669C7.68629 7.42669 7.58416 7.52891 7.58416 7.655C7.58416 7.7811 7.68629 7.88332 7.81228 7.88332Z" fill="#1A1B1B"/>
<path d="M6.96792 6.81573C7.10951 6.81573 7.22429 6.70085 7.22429 6.55914C7.22429 6.41743 7.10951 6.30255 6.96792 6.30255C6.82633 6.30255 6.71155 6.41743 6.71155 6.55914C6.71155 6.70085 6.82633 6.81573 6.96792 6.81573Z" fill="#1A1B1B"/>
<path d="M6.12383 5.74841C6.28102 5.74841 6.40845 5.62087 6.40845 5.46355C6.40845 5.30622 6.28102 5.17868 6.12383 5.17868C5.96664 5.17868 5.83921 5.30622 5.83921 5.46355C5.83921 5.62087 5.96664 5.74841 6.12383 5.74841Z" fill="#1A1B1B"/>
<path d="M8.78178 9.76771C8.87642 9.76771 8.95314 9.69093 8.95314 9.59621C8.95314 9.5015 8.87642 9.42471 8.78178 9.42471C8.68715 9.42471 8.61043 9.5015 8.61043 9.59621C8.61043 9.69093 8.68715 9.76771 8.78178 9.76771Z" fill="#1A1B1B"/>
<path d="M7.95406 8.75456C8.06955 8.75456 8.16317 8.66086 8.16317 8.54528C8.16317 8.42969 8.06955 8.33599 7.95406 8.33599C7.83857 8.33599 7.74495 8.42969 7.74495 8.54528C7.74495 8.66086 7.83857 8.75456 7.95406 8.75456Z" fill="#1A1B1B"/>
<path d="M7.12607 7.74168C7.26241 7.74168 7.37294 7.63106 7.37294 7.4946C7.37294 7.35814 7.26241 7.24752 7.12607 7.24752C6.98973 7.24752 6.87921 7.35814 6.87921 7.4946C6.87921 7.63106 6.98973 7.74168 7.12607 7.74168Z" fill="#1A1B1B"/>
<path d="M6.29835 6.72879C6.45554 6.72879 6.58297 6.60125 6.58297 6.44393C6.58297 6.2866 6.45554 6.15906 6.29835 6.15906C6.14116 6.15906 6.01373 6.2866 6.01373 6.44393C6.01373 6.60125 6.14116 6.72879 6.29835 6.72879Z" fill="#1A1B1B"/>
<path d="M12.0092 9.89984C12.1039 9.89984 12.1806 9.82306 12.1806 9.72834C12.1806 9.63362 12.1039 9.55684 12.0092 9.55684C11.9146 9.55684 11.8379 9.63362 11.8379 9.72834C11.8379 9.82306 11.9146 9.89984 12.0092 9.89984Z" fill="#1A1B1B"/>
<path d="M12.0092 8.63274C12.1247 8.63274 12.2183 8.53904 12.2183 8.42345C12.2183 8.30787 12.1247 8.21417 12.0092 8.21417C11.8938 8.21417 11.8001 8.30787 11.8001 8.42345C11.8001 8.53904 11.8938 8.63274 12.0092 8.63274Z" fill="#1A1B1B"/>
<path d="M12.0092 7.36591C12.1457 7.36591 12.2564 7.25517 12.2564 7.11857C12.2564 6.98197 12.1457 6.87123 12.0092 6.87123C11.8728 6.87123 11.7621 6.98197 11.7621 7.11857C11.7621 7.25517 11.8728 7.36591 12.0092 7.36591Z" fill="#1A1B1B"/>
<path d="M12.0092 6.09855C12.1666 6.09855 12.2941 5.97089 12.2941 5.81342C12.2941 5.65594 12.1666 5.52829 12.0092 5.52829C11.8519 5.52829 11.7244 5.65594 11.7244 5.81342C11.7244 5.97089 11.8519 6.09855 12.0092 6.09855Z" fill="#1A1B1B"/>
<path d="M12.0092 4.83145C12.1874 4.83145 12.3319 4.68687 12.3319 4.50853C12.3319 4.33019 12.1874 4.18561 12.0092 4.18561C11.8311 4.18561 11.6866 4.33019 11.6866 4.50853C11.6866 4.68687 11.8311 4.83145 12.0092 4.83145Z" fill="#1A1B1B"/>
<path d="M12.0092 3.56435C12.2083 3.56435 12.3696 3.40286 12.3696 3.20365C12.3696 3.00443 12.2083 2.84294 12.0092 2.84294C11.8102 2.84294 11.6488 3.00443 11.6488 3.20365C11.6488 3.40286 11.8102 3.56435 12.0092 3.56435Z" fill="#1A1B1B"/>
<path d="M12.0092 2.29699C12.2291 2.29699 12.4074 2.11858 12.4074 1.8985C12.4074 1.67841 12.2291 1.5 12.0092 1.5C11.7893 1.5 11.6111 1.67841 11.6111 1.8985C11.6111 2.11858 11.7893 2.29699 12.0092 2.29699Z" fill="#1A1B1B"/>
<path d="M12.349 9.38904C12.4437 9.38904 12.5204 9.31225 12.5204 9.21754C12.5204 9.12282 12.4437 9.04604 12.349 9.04604C12.2544 9.04604 12.1777 9.12282 12.1777 9.21754C12.1777 9.31225 12.2544 9.38904 12.349 9.38904Z" fill="#1A1B1B"/>
<path d="M12.3673 8.09789C12.4822 8.09789 12.5753 8.00466 12.5753 7.88966C12.5753 7.77466 12.4822 7.68143 12.3673 7.68143C12.2524 7.68143 12.1592 7.77466 12.1592 7.88966C12.1592 8.00466 12.2524 8.09789 12.3673 8.09789Z" fill="#1A1B1B"/>
<path d="M12.3855 6.80675C12.5205 6.80675 12.63 6.69719 12.63 6.56205C12.63 6.42691 12.5205 6.31735 12.3855 6.31735C12.2505 6.31735 12.141 6.42691 12.141 6.56205C12.141 6.69719 12.2505 6.80675 12.3855 6.80675Z" fill="#1A1B1B"/>
<path d="M12.4037 5.51587C12.559 5.51587 12.6849 5.38987 12.6849 5.23444C12.6849 5.07901 12.559 4.95301 12.4037 4.95301C12.2484 4.95301 12.1225 5.07901 12.1225 5.23444C12.1225 5.38987 12.2484 5.51587 12.4037 5.51587Z" fill="#1A1B1B"/>
<path d="M12.4217 4.22446C12.5971 4.22446 12.7393 4.08213 12.7393 3.90656C12.7393 3.73099 12.5971 3.58866 12.4217 3.58866C12.2462 3.58866 12.104 3.73099 12.104 3.90656C12.104 4.08213 12.2462 4.22446 12.4217 4.22446Z" fill="#1A1B1B"/>
<path d="M12.4399 2.93358C12.6356 2.93358 12.7942 2.77481 12.7942 2.57895C12.7942 2.38309 12.6356 2.22432 12.4399 2.22432C12.2442 2.22432 12.0855 2.38309 12.0855 2.57895C12.0855 2.77481 12.2442 2.93358 12.4399 2.93358Z" fill="#1A1B1B"/>
<path d="M12.7567 8.9591C12.8513 8.9591 12.9281 8.88231 12.9281 8.7876C12.9281 8.69288 12.8513 8.6161 12.7567 8.6161C12.6621 8.6161 12.5853 8.69288 12.5853 8.7876C12.5853 8.88231 12.6621 8.9591 12.7567 8.9591Z" fill="#1A1B1B"/>
<path d="M12.7963 7.60427C12.9065 7.60427 12.9959 7.51482 12.9959 7.40449C12.9959 7.29416 12.9065 7.20472 12.7963 7.20472C12.6861 7.20472 12.5967 7.29416 12.5967 7.40449C12.5967 7.51482 12.6861 7.60427 12.7963 7.60427Z" fill="#1A1B1B"/>
<path d="M12.8356 6.2497C12.9616 6.2497 13.0638 6.14748 13.0638 6.02139C13.0638 5.89529 12.9616 5.79307 12.8356 5.79307C12.7097 5.79307 12.6075 5.89529 12.6075 6.02139C12.6075 6.14748 12.7097 6.2497 12.8356 6.2497Z" fill="#1A1B1B"/>
<path d="M12.8752 4.89487C13.0168 4.89487 13.1316 4.77999 13.1316 4.63828C13.1316 4.49657 13.0168 4.38169 12.8752 4.38169C12.7337 4.38169 12.6189 4.49657 12.6189 4.63828C12.6189 4.77999 12.7337 4.89487 12.8752 4.89487Z" fill="#1A1B1B"/>
<path d="M12.9149 3.54004C13.072 3.54004 13.1995 3.4125 13.1995 3.25517C13.1995 3.09785 13.072 2.97031 12.9149 2.97031C12.7577 2.97031 12.6302 3.09785 12.6302 3.25517C12.6302 3.4125 12.7577 3.54004 12.9149 3.54004Z" fill="#1A1B1B"/>
<path d="M13.1913 8.33361C13.2859 8.33361 13.3626 8.25682 13.3626 8.16211C13.3626 8.06739 13.2859 7.99061 13.1913 7.99061C13.0967 7.99061 13.0199 8.06739 13.0199 8.16211C13.0199 8.25682 13.0967 8.33361 13.1913 8.33361Z" fill="#1A1B1B"/>
<path d="M13.2441 7.03427C13.3596 7.03427 13.4532 6.94057 13.4532 6.82498C13.4532 6.70939 13.3596 6.61569 13.2441 6.61569C13.1286 6.61569 13.035 6.70939 13.035 6.82498C13.035 6.94057 13.1286 7.03427 13.2441 7.03427Z" fill="#1A1B1B"/>
<path d="M13.2966 5.73493C13.433 5.73493 13.5435 5.62431 13.5435 5.48786C13.5435 5.3514 13.433 5.24078 13.2966 5.24078C13.1603 5.24078 13.0498 5.3514 13.0498 5.48786C13.0498 5.62431 13.1603 5.73493 13.2966 5.73493Z" fill="#1A1B1B"/>
<path d="M13.3494 4.43586C13.5066 4.43586 13.6341 4.30832 13.6341 4.151C13.6341 3.99367 13.5066 3.86613 13.3494 3.86613C13.1922 3.86613 13.0648 3.99367 13.0648 4.151C13.0648 4.30832 13.1922 4.43586 13.3494 4.43586Z" fill="#1A1B1B"/>
<path d="M11.6504 9.38904C11.7451 9.38904 11.8218 9.31225 11.8218 9.21754C11.8218 9.12282 11.7451 9.04604 11.6504 9.04604C11.5558 9.04604 11.4791 9.12282 11.4791 9.21754C11.4791 9.31225 11.5558 9.38904 11.6504 9.38904Z" fill="#1A1B1B"/>
<path d="M11.6322 8.09789C11.7471 8.09789 11.8403 8.00466 11.8403 7.88966C11.8403 7.77466 11.7471 7.68143 11.6322 7.68143C11.5173 7.68143 11.4242 7.77466 11.4242 7.88966C11.4242 8.00466 11.5173 8.09789 11.6322 8.09789Z" fill="#1A1B1B"/>
<path d="M11.614 6.80675C11.749 6.80675 11.8585 6.69719 11.8585 6.56205C11.8585 6.42691 11.749 6.31735 11.614 6.31735C11.479 6.31735 11.3695 6.42691 11.3695 6.56205C11.3695 6.69719 11.479 6.80675 11.614 6.80675Z" fill="#1A1B1B"/>
<path d="M11.5958 5.51587C11.7511 5.51587 11.877 5.38987 11.877 5.23444C11.877 5.07901 11.7511 4.95301 11.5958 4.95301C11.4405 4.95301 11.3146 5.07901 11.3146 5.23444C11.3146 5.38987 11.4405 5.51587 11.5958 5.51587Z" fill="#1A1B1B"/>
<path d="M11.5778 4.22446C11.7532 4.22446 11.8954 4.08213 11.8954 3.90656C11.8954 3.73099 11.7532 3.58866 11.5778 3.58866C11.4024 3.58866 11.2602 3.73099 11.2602 3.90656C11.2602 4.08213 11.4024 4.22446 11.5778 4.22446Z" fill="#1A1B1B"/>
<path d="M11.5596 2.93358C11.7553 2.93358 11.9139 2.77481 11.9139 2.57895C11.9139 2.38309 11.7553 2.22432 11.5596 2.22432C11.3639 2.22432 11.2053 2.38309 11.2053 2.57895C11.2053 2.77481 11.3639 2.93358 11.5596 2.93358Z" fill="#1A1B1B"/>
<path d="M11.2428 8.9591C11.3374 8.9591 11.4141 8.88231 11.4141 8.7876C11.4141 8.69288 11.3374 8.6161 11.2428 8.6161C11.1481 8.6161 11.0714 8.69288 11.0714 8.7876C11.0714 8.88231 11.1481 8.9591 11.2428 8.9591Z" fill="#1A1B1B"/>
<path d="M11.2034 7.60427C11.3137 7.60427 11.403 7.51482 11.403 7.40449C11.403 7.29416 11.3137 7.20472 11.2034 7.20472C11.0932 7.20472 11.0038 7.29416 11.0038 7.40449C11.0038 7.51482 11.0932 7.60427 11.2034 7.60427Z" fill="#1A1B1B"/>
<path d="M11.1638 6.2497C11.2898 6.2497 11.3919 6.14748 11.3919 6.02139C11.3919 5.89529 11.2898 5.79307 11.1638 5.79307C11.0378 5.79307 10.9357 5.89529 10.9357 6.02139C10.9357 6.14748 11.0378 6.2497 11.1638 6.2497Z" fill="#1A1B1B"/>
<path d="M11.1242 4.89487C11.2658 4.89487 11.3806 4.77999 11.3806 4.63828C11.3806 4.49657 11.2658 4.38169 11.1242 4.38169C10.9826 4.38169 10.8679 4.49657 10.8679 4.63828C10.8679 4.77999 10.9826 4.89487 11.1242 4.89487Z" fill="#1A1B1B"/>
<path d="M11.0846 3.54004C11.2418 3.54004 11.3692 3.4125 11.3692 3.25517C11.3692 3.09785 11.2418 2.97031 11.0846 2.97031C10.9274 2.97031 10.8 3.09785 10.8 3.25517C10.8 3.4125 10.9274 3.54004 11.0846 3.54004Z" fill="#1A1B1B"/>
<path d="M10.8082 8.33361C10.9028 8.33361 10.9795 8.25682 10.9795 8.16211C10.9795 8.06739 10.9028 7.99061 10.8082 7.99061C10.7135 7.99061 10.6368 8.06739 10.6368 8.16211C10.6368 8.25682 10.7135 8.33361 10.8082 8.33361Z" fill="#1A1B1B"/>
<path d="M10.7554 7.03427C10.8709 7.03427 10.9645 6.94057 10.9645 6.82498C10.9645 6.70939 10.8709 6.61569 10.7554 6.61569C10.6399 6.61569 10.5463 6.70939 10.5463 6.82498C10.5463 6.94057 10.6399 7.03427 10.7554 7.03427Z" fill="#1A1B1B"/>
<path d="M10.7028 5.73493C10.8392 5.73493 10.9497 5.62431 10.9497 5.48786C10.9497 5.3514 10.8392 5.24078 10.7028 5.24078C10.5665 5.24078 10.456 5.3514 10.456 5.48786C10.456 5.62431 10.5665 5.73493 10.7028 5.73493Z" fill="#1A1B1B"/>
<path d="M10.65 4.43586C10.8072 4.43586 10.9347 4.30832 10.9347 4.151C10.9347 3.99367 10.8072 3.86613 10.65 3.86613C10.4928 3.86613 10.3654 3.99367 10.3654 4.151C10.3654 4.30832 10.4928 4.43586 10.65 4.43586Z" fill="#1A1B1B"/>
<path d="M13.3415 10.3393C13.4362 10.3393 13.5129 10.2625 13.5129 10.1678C13.5129 10.0731 13.4362 9.99629 13.3415 9.99629C13.2469 9.99629 13.1702 10.0731 13.1702 10.1678C13.1702 10.2625 13.2469 10.3393 13.3415 10.3393Z" fill="#1A1B1B"/>
<path d="M14.1077 9.32139C14.2232 9.32139 14.3168 9.22769 14.3168 9.1121C14.3168 8.99651 14.2232 8.90281 14.1077 8.90281C13.9922 8.90281 13.8986 8.99651 13.8986 9.1121C13.8986 9.22769 13.9922 9.32139 14.1077 9.32139Z" fill="#1A1B1B"/>
<path d="M14.8742 8.30375C15.0107 8.30375 15.1213 8.19301 15.1213 8.05641C15.1213 7.9198 15.0107 7.80906 14.8742 7.80906C14.7377 7.80906 14.6271 7.9198 14.6271 8.05641C14.6271 8.19301 14.7377 8.30375 14.8742 8.30375Z" fill="#1A1B1B"/>
<path d="M15.6407 7.28558C15.798 7.28558 15.9255 7.15792 15.9255 7.00045C15.9255 6.84297 15.798 6.71532 15.6407 6.71532C15.4833 6.71532 15.3558 6.84297 15.3558 7.00045C15.3558 7.15792 15.4833 7.28558 15.6407 7.28558Z" fill="#1A1B1B"/>
<path d="M16.4069 6.26767C16.5851 6.26767 16.7295 6.1231 16.7295 5.94475C16.7295 5.76641 16.5851 5.62183 16.4069 5.62183C16.2287 5.62183 16.0842 5.76641 16.0842 5.94475C16.0842 6.1231 16.2287 6.26767 16.4069 6.26767Z" fill="#1A1B1B"/>
<path d="M17.1733 5.24976C17.3724 5.24976 17.5337 5.08827 17.5337 4.88906C17.5337 4.68984 17.3724 4.52835 17.1733 4.52835C16.9743 4.52835 16.8129 4.68984 16.8129 4.88906C16.8129 5.08827 16.9743 5.24976 17.1733 5.24976Z" fill="#1A1B1B"/>
<path d="M17.9398 4.23186C18.1597 4.23186 18.338 4.05345 18.338 3.83336C18.338 3.61328 18.1597 3.43487 17.9398 3.43487C17.7199 3.43487 17.5417 3.61328 17.5417 3.83336C17.5417 4.05345 17.7199 4.23186 17.9398 4.23186Z" fill="#1A1B1B"/>
<path d="M13.9166 10.1258C14.0112 10.1258 14.0879 10.049 14.0879 9.95428C14.0879 9.85956 14.0112 9.78278 13.9166 9.78278C13.8219 9.78278 13.7452 9.85956 13.7452 9.95428C13.7452 10.049 13.8219 10.1258 13.9166 10.1258Z" fill="#1A1B1B"/>
<path d="M14.711 9.09915C14.8259 9.09915 14.9191 9.00592 14.9191 8.89092C14.9191 8.77592 14.8259 8.68269 14.711 8.68269C14.5961 8.68269 14.503 8.77592 14.503 8.89092C14.503 9.00592 14.5961 9.09915 14.711 9.09915Z" fill="#1A1B1B"/>
<path d="M15.5055 8.07226C15.6405 8.07226 15.75 7.96271 15.75 7.82756C15.75 7.69242 15.6405 7.58286 15.5055 7.58286C15.3705 7.58286 15.261 7.69242 15.261 7.82756C15.261 7.96271 15.3705 8.07226 15.5055 8.07226Z" fill="#1A1B1B"/>
<path d="M16.2997 7.04537C16.455 7.04537 16.5809 6.91937 16.5809 6.76394C16.5809 6.60851 16.455 6.48251 16.2997 6.48251C16.1444 6.48251 16.0185 6.60851 16.0185 6.76394C16.0185 6.91937 16.1444 7.04537 16.2997 7.04537Z" fill="#1A1B1B"/>
<path d="M17.0941 6.01848C17.2695 6.01848 17.4117 5.87615 17.4117 5.70058C17.4117 5.52501 17.2695 5.38268 17.0941 5.38268C16.9187 5.38268 16.7765 5.52501 16.7765 5.70058C16.7765 5.87615 16.9187 6.01848 17.0941 6.01848Z" fill="#1A1B1B"/>
<path d="M17.8886 4.99185C18.0843 4.99185 18.2429 4.83308 18.2429 4.63722C18.2429 4.44137 18.0843 4.28259 17.8886 4.28259C17.6929 4.28259 17.5343 4.44137 17.5343 4.63722C17.5343 4.83308 17.6929 4.99185 17.8886 4.99185Z" fill="#1A1B1B"/>
<path d="M14.4987 10.0177C14.5934 10.0177 14.6701 9.94092 14.6701 9.8462C14.6701 9.75148 14.5934 9.6747 14.4987 9.6747C14.4041 9.6747 14.3274 9.75148 14.3274 9.8462C14.3274 9.94092 14.4041 10.0177 14.4987 10.0177Z" fill="#1A1B1B"/>
<path d="M15.3431 8.95038C15.4533 8.95038 15.5427 8.86093 15.5427 8.7506C15.5427 8.64027 15.4533 8.55083 15.3431 8.55083C15.2329 8.55083 15.1435 8.64027 15.1435 8.7506C15.1435 8.86093 15.2329 8.95038 15.3431 8.95038Z" fill="#1A1B1B"/>
<path d="M16.1872 7.88332C16.3132 7.88332 16.4153 7.7811 16.4153 7.655C16.4153 7.52891 16.3132 7.42669 16.1872 7.42669C16.0612 7.42669 15.9591 7.52891 15.9591 7.655C15.9591 7.7811 16.0612 7.88332 16.1872 7.88332Z" fill="#1A1B1B"/>
<path d="M17.0316 6.81573C17.1731 6.81573 17.2879 6.70085 17.2879 6.55914C17.2879 6.41743 17.1731 6.30255 17.0316 6.30255C16.89 6.30255 16.7752 6.41743 16.7752 6.55914C16.7752 6.70085 16.89 6.81573 17.0316 6.81573Z" fill="#1A1B1B"/>
<path d="M17.8756 5.74841C18.0328 5.74841 18.1603 5.62087 18.1603 5.46355C18.1603 5.30622 18.0328 5.17868 17.8756 5.17868C17.7185 5.17868 17.591 5.30622 17.591 5.46355C17.591 5.62087 17.7185 5.74841 17.8756 5.74841Z" fill="#1A1B1B"/>
<path d="M15.2177 9.76771C15.3123 9.76771 15.389 9.69093 15.389 9.59621C15.389 9.5015 15.3123 9.42471 15.2177 9.42471C15.1231 9.42471 15.0463 9.5015 15.0463 9.59621C15.0463 9.69093 15.1231 9.76771 15.2177 9.76771Z" fill="#1A1B1B"/>
<path d="M16.0454 8.75456C16.1609 8.75456 16.2545 8.66086 16.2545 8.54528C16.2545 8.42969 16.1609 8.33599 16.0454 8.33599C15.9299 8.33599 15.8363 8.42969 15.8363 8.54528C15.8363 8.66086 15.9299 8.75456 16.0454 8.75456Z" fill="#1A1B1B"/>
<path d="M16.8734 7.74168C17.0097 7.74168 17.1203 7.63106 17.1203 7.4946C17.1203 7.35814 17.0097 7.24752 16.8734 7.24752C16.7371 7.24752 16.6265 7.35814 16.6265 7.4946C16.6265 7.63106 16.7371 7.74168 16.8734 7.74168Z" fill="#1A1B1B"/>
<path d="M17.7014 6.72879C17.8586 6.72879 17.986 6.60125 17.986 6.44393C17.986 6.2866 17.8586 6.15906 17.7014 6.15906C17.5442 6.15906 17.4168 6.2866 17.4168 6.44393C17.4168 6.60125 17.5442 6.72879 17.7014 6.72879Z" fill="#1A1B1B"/>
<path d="M13.3513 9.71486C13.4459 9.71486 13.5226 9.63808 13.5226 9.54336C13.5226 9.44865 13.4459 9.37186 13.3513 9.37186C13.2567 9.37186 13.1799 9.44865 13.1799 9.54336C13.1799 9.63808 13.2567 9.71486 13.3513 9.71486Z" fill="#1A1B1B"/>
<path d="M14.1162 8.66683C14.2311 8.66683 14.3242 8.5736 14.3242 8.4586C14.3242 8.3436 14.2311 8.25037 14.1162 8.25037C14.0013 8.25037 13.9081 8.3436 13.9081 8.4586C13.9081 8.5736 14.0013 8.66683 14.1162 8.66683Z" fill="#1A1B1B"/>
<path d="M14.8813 7.61827C15.0163 7.61827 15.1258 7.50872 15.1258 7.37357C15.1258 7.23843 15.0163 7.12887 14.8813 7.12887C14.7463 7.12887 14.6368 7.23843 14.6368 7.37357C14.6368 7.50872 14.7463 7.61827 14.8813 7.61827Z" fill="#1A1B1B"/>
<path d="M15.6465 6.57024C15.8018 6.57024 15.9277 6.44424 15.9277 6.28881C15.9277 6.13338 15.8018 6.00738 15.6465 6.00738C15.4912 6.00738 15.3653 6.13338 15.3653 6.28881C15.3653 6.44424 15.4912 6.57024 15.6465 6.57024Z" fill="#1A1B1B"/>
<path d="M16.4114 5.52195C16.5868 5.52195 16.729 5.37962 16.729 5.20405C16.729 5.02848 16.5868 4.88615 16.4114 4.88615C16.2359 4.88615 16.0937 5.02848 16.0937 5.20405C16.0937 5.37962 16.2359 5.52195 16.4114 5.52195Z" fill="#1A1B1B"/>
<path d="M17.1765 4.47391C17.3722 4.47391 17.5308 4.31514 17.5308 4.11929C17.5308 3.92343 17.3722 3.76466 17.1765 3.76466C16.9808 3.76466 16.8222 3.92343 16.8222 4.11929C16.8222 4.31514 16.9808 4.47391 17.1765 4.47391Z" fill="#1A1B1B"/>
<path d="M13.2739 9.12716C13.3686 9.12716 13.4453 9.05038 13.4453 8.95566C13.4453 8.86095 13.3686 8.78416 13.2739 8.78416C13.1793 8.78416 13.1026 8.86095 13.1026 8.95566C13.1026 9.05038 13.1793 9.12716 13.2739 9.12716Z" fill="#1A1B1B"/>
<path d="M14.0544 8.01333C14.1646 8.01333 14.254 7.92389 14.254 7.81356C14.254 7.70322 14.1646 7.61378 14.0544 7.61378C13.9442 7.61378 13.8548 7.70322 13.8548 7.81356C13.8548 7.92389 13.9442 8.01333 14.0544 8.01333Z" fill="#1A1B1B"/>
<path d="M14.8346 6.8995C14.9606 6.8995 15.0627 6.79728 15.0627 6.67119C15.0627 6.54509 14.9606 6.44287 14.8346 6.44287C14.7086 6.44287 14.6065 6.54509 14.6065 6.67119C14.6065 6.79728 14.7086 6.8995 14.8346 6.8995Z" fill="#1A1B1B"/>
<path d="M15.615 5.78567C15.7566 5.78567 15.8714 5.67079 15.8714 5.52908C15.8714 5.38737 15.7566 5.27249 15.615 5.27249C15.4735 5.27249 15.3587 5.38737 15.3587 5.52908C15.3587 5.67079 15.4735 5.78567 15.615 5.78567Z" fill="#1A1B1B"/>
<path d="M16.3952 4.67184C16.5524 4.67184 16.6799 4.5443 16.6799 4.38697C16.6799 4.22965 16.5524 4.10211 16.3952 4.10211C16.2381 4.10211 16.1106 4.22965 16.1106 4.38697C16.1106 4.5443 16.2381 4.67184 16.3952 4.67184Z" fill="#1A1B1B"/>
<path d="M13.2898 8.36558C13.3844 8.36558 13.4611 8.2888 13.4611 8.19408C13.4611 8.09936 13.3844 8.02258 13.2898 8.02258C13.1951 8.02258 13.1184 8.09936 13.1184 8.19408C13.1184 8.2888 13.1951 8.36558 13.2898 8.36558Z" fill="#1A1B1B"/>
<path d="M14.0322 7.2906C14.1477 7.2906 14.2413 7.1969 14.2413 7.08131C14.2413 6.96572 14.1477 6.87202 14.0322 6.87202C13.9167 6.87202 13.8231 6.96572 13.8231 7.08131C13.8231 7.1969 13.9167 7.2906 14.0322 7.2906Z" fill="#1A1B1B"/>
<path d="M14.7749 6.21588C14.9113 6.21588 15.0218 6.10526 15.0218 5.9688C15.0218 5.83234 14.9113 5.72172 14.7749 5.72172C14.6386 5.72172 14.5281 5.83234 14.5281 5.9688C14.5281 6.10526 14.6386 6.21588 14.7749 6.21588Z" fill="#1A1B1B"/>
<path d="M15.5174 5.14089C15.6746 5.14089 15.802 5.01335 15.802 4.85603C15.802 4.6987 15.6746 4.57116 15.5174 4.57116C15.3602 4.57116 15.2327 4.6987 15.2327 4.85603C15.2327 5.01335 15.3602 5.14089 15.5174 5.14089Z" fill="#1A1B1B"/>
<path d="M14.1613 11.4785C14.256 11.4785 14.3327 11.4017 14.3327 11.307C14.3327 11.2123 14.256 11.1355 14.1613 11.1355C14.0667 11.1355 13.99 11.2123 13.99 11.307C13.99 11.4017 14.0667 11.4785 14.1613 11.4785Z" fill="#1A1B1B"/>
<path d="M15.4012 11.113C15.5167 11.113 15.6103 11.0193 15.6103 10.9037C15.6103 10.7882 15.5167 10.6945 15.4012 10.6945C15.2857 10.6945 15.1921 10.7882 15.1921 10.9037C15.1921 11.0193 15.2857 11.113 15.4012 11.113Z" fill="#1A1B1B"/>
<path d="M16.6413 10.7478C16.7778 10.7478 16.8884 10.6371 16.8884 10.5005C16.8884 10.3639 16.7778 10.2531 16.6413 10.2531C16.5048 10.2531 16.3942 10.3639 16.3942 10.5005C16.3942 10.6371 16.5048 10.7478 16.6413 10.7478Z" fill="#1A1B1B"/>
<path d="M17.8815 10.3824C18.0388 10.3824 18.1663 10.2547 18.1663 10.0972C18.1663 9.93977 18.0388 9.81211 17.8815 9.81211C17.7241 9.81211 17.5966 9.93977 17.5966 10.0972C17.5966 10.2547 17.7241 10.3824 17.8815 10.3824Z" fill="#1A1B1B"/>
<path d="M19.1213 10.0169C19.2995 10.0169 19.444 9.87233 19.444 9.69399C19.444 9.51564 19.2995 9.37107 19.1213 9.37107C18.9431 9.37107 18.7987 9.51564 18.7987 9.69399C18.7987 9.87233 18.9431 10.0169 19.1213 10.0169Z" fill="#1A1B1B"/>
<path d="M20.3615 9.65144C20.5605 9.65144 20.7218 9.48995 20.7218 9.29074C20.7218 9.09152 20.5605 8.93003 20.3615 8.93003C20.1624 8.93003 20.0011 9.09152 20.0011 9.29074C20.0011 9.48995 20.1624 9.65144 20.3615 9.65144Z" fill="#1A1B1B"/>
<path d="M21.6013 9.28598C21.8212 9.28598 21.9995 9.10757 21.9995 8.88748C21.9995 8.6674 21.8212 8.48899 21.6013 8.48899C21.3814 8.48899 21.2032 8.6674 21.2032 8.88748C21.2032 9.10757 21.3814 9.28598 21.6013 9.28598Z" fill="#1A1B1B"/>
<path d="M14.7519 11.6442C14.8466 11.6442 14.9233 11.5674 14.9233 11.4727C14.9233 11.378 14.8466 11.3012 14.7519 11.3012C14.6573 11.3012 14.5806 11.378 14.5806 11.4727C14.5806 11.5674 14.6573 11.6442 14.7519 11.6442Z" fill="#1A1B1B"/>
<path d="M16.019 11.288C16.1339 11.288 16.2271 11.1947 16.2271 11.0797C16.2271 10.9647 16.1339 10.8715 16.019 10.8715C15.9041 10.8715 15.811 10.9647 15.811 11.0797C15.811 11.1947 15.9041 11.288 16.019 11.288Z" fill="#1A1B1B"/>
<path d="M17.2863 10.9315C17.4214 10.9315 17.5308 10.8219 17.5308 10.6868C17.5308 10.5516 17.4214 10.4421 17.2863 10.4421C17.1513 10.4421 17.0418 10.5516 17.0418 10.6868C17.0418 10.8219 17.1513 10.9315 17.2863 10.9315Z" fill="#1A1B1B"/>
<path d="M18.5534 10.5753C18.7087 10.5753 18.8346 10.4493 18.8346 10.2938C18.8346 10.1384 18.7087 10.0124 18.5534 10.0124C18.3981 10.0124 18.2722 10.1384 18.2722 10.2938C18.2722 10.4493 18.3981 10.5753 18.5534 10.5753Z" fill="#1A1B1B"/>
<path d="M19.8207 10.2185C19.9961 10.2185 20.1383 10.0762 20.1383 9.90063C20.1383 9.72506 19.9961 9.58274 19.8207 9.58274C19.6453 9.58274 19.5031 9.72506 19.5031 9.90063C19.5031 10.0762 19.6453 10.2185 19.8207 10.2185Z" fill="#1A1B1B"/>
<path d="M21.0881 9.86232C21.2837 9.86232 21.4424 9.70354 21.4424 9.50769C21.4424 9.31183 21.2837 9.15306 21.0881 9.15306C20.8924 9.15306 20.7337 9.31183 20.7337 9.50769C20.7337 9.70354 20.8924 9.86232 21.0881 9.86232Z" fill="#1A1B1B"/>
<path d="M15.2863 11.8992C15.381 11.8992 15.4577 11.8224 15.4577 11.7277C15.4577 11.633 15.381 11.5562 15.2863 11.5562C15.1917 11.5562 15.115 11.633 15.115 11.7277C15.115 11.8224 15.1917 11.8992 15.2863 11.8992Z" fill="#1A1B1B"/>
<path d="M16.6128 11.5377C16.723 11.5377 16.8124 11.4482 16.8124 11.3379C16.8124 11.2276 16.723 11.1381 16.6128 11.1381C16.5026 11.1381 16.4132 11.2276 16.4132 11.3379C16.4132 11.4482 16.5026 11.5377 16.6128 11.5377Z" fill="#1A1B1B"/>
<path d="M17.9393 11.1765C18.0653 11.1765 18.1674 11.0742 18.1674 10.9481C18.1674 10.822 18.0653 10.7198 17.9393 10.7198C17.8133 10.7198 17.7112 10.822 17.7112 10.9481C17.7112 11.0742 17.8133 11.1765 17.9393 11.1765Z" fill="#1A1B1B"/>
<path d="M19.2657 10.815C19.4073 10.815 19.5221 10.7001 19.5221 10.5584C19.5221 10.4167 19.4073 10.3018 19.2657 10.3018C19.1242 10.3018 19.0094 10.4167 19.0094 10.5584C19.0094 10.7001 19.1242 10.815 19.2657 10.815Z" fill="#1A1B1B"/>
<path d="M20.5922 10.4535C20.7494 10.4535 20.8768 10.3259 20.8768 10.1686C20.8768 10.0113 20.7494 9.88372 20.5922 9.88372C20.435 9.88372 20.3076 10.0113 20.3076 10.1686C20.3076 10.3259 20.435 10.4535 20.5922 10.4535Z" fill="#1A1B1B"/>
<path d="M16.0148 12.1198C16.1094 12.1198 16.1861 12.0431 16.1861 11.9483C16.1861 11.8536 16.1094 11.7768 16.0148 11.7768C15.9201 11.7768 15.8434 11.8536 15.8434 11.9483C15.8434 12.0431 15.9201 12.1198 16.0148 12.1198Z" fill="#1A1B1B"/>
<path d="M17.3017 11.7945C17.4171 11.7945 17.5108 11.7008 17.5108 11.5853C17.5108 11.4697 17.4171 11.376 17.3017 11.376C17.1862 11.376 17.0925 11.4697 17.0925 11.5853C17.0925 11.7008 17.1862 11.7945 17.3017 11.7945Z" fill="#1A1B1B"/>
<path d="M18.5885 11.4692C18.7249 11.4692 18.8354 11.3586 18.8354 11.2222C18.8354 11.0857 18.7249 10.9751 18.5885 10.9751C18.4522 10.9751 18.3417 11.0857 18.3417 11.2222C18.3417 11.3586 18.4522 11.4692 18.5885 11.4692Z" fill="#1A1B1B"/>
<path d="M19.8754 11.1442C20.0326 11.1442 20.16 11.0167 20.16 10.8593C20.16 10.702 20.0326 10.5745 19.8754 10.5745C19.7182 10.5745 19.5908 10.702 19.5908 10.8593C19.5908 11.0167 19.7182 11.1442 19.8754 11.1442Z" fill="#1A1B1B"/>
<path d="M14.536 10.9791C14.6306 10.9791 14.7073 10.9023 14.7073 10.8076C14.7073 10.7128 14.6306 10.6361 14.536 10.6361C14.4413 10.6361 14.3646 10.7128 14.3646 10.8076C14.3646 10.9023 14.4413 10.9791 14.536 10.9791Z" fill="#1A1B1B"/>
<path d="M15.7919 10.5882C15.9069 10.5882 16 10.495 16 10.38C16 10.265 15.9069 10.1718 15.7919 10.1718C15.677 10.1718 15.5839 10.265 15.5839 10.38C15.5839 10.495 15.677 10.5882 15.7919 10.5882Z" fill="#1A1B1B"/>
<path d="M17.0479 10.1971C17.1829 10.1971 17.2924 10.0876 17.2924 9.95243C17.2924 9.81728 17.1829 9.70773 17.0479 9.70773C16.9129 9.70773 16.8034 9.81728 16.8034 9.95243C16.8034 10.0876 16.9129 10.1971 17.0479 10.1971Z" fill="#1A1B1B"/>
<path d="M18.3039 9.8063C18.4592 9.8063 18.5851 9.68029 18.5851 9.52487C18.5851 9.36944 18.4592 9.24343 18.3039 9.24343C18.1486 9.24343 18.0227 9.36944 18.0227 9.52487C18.0227 9.68029 18.1486 9.8063 18.3039 9.8063Z" fill="#1A1B1B"/>
<path d="M19.5599 9.4152C19.7353 9.4152 19.8775 9.27287 19.8775 9.0973C19.8775 8.92173 19.7353 8.7794 19.5599 8.7794C19.3844 8.7794 19.2422 8.92173 19.2422 9.0973C19.2422 9.27287 19.3844 9.4152 19.5599 9.4152Z" fill="#1A1B1B"/>
<path d="M20.8158 9.02437C21.0115 9.02437 21.1702 8.8656 21.1702 8.66974C21.1702 8.47388 21.0115 8.31511 20.8158 8.31511C20.6202 8.31511 20.4615 8.47388 20.4615 8.66974C20.4615 8.8656 20.6202 9.02437 20.8158 9.02437Z" fill="#1A1B1B"/>
<path d="M14.8185 10.4582C14.9131 10.4582 14.9898 10.3814 14.9898 10.2867C14.9898 10.192 14.9131 10.1152 14.8185 10.1152C14.7238 10.1152 14.6471 10.192 14.6471 10.2867C14.6471 10.3814 14.7238 10.4582 14.8185 10.4582Z" fill="#1A1B1B"/>
<path d="M16.1207 10.0217C16.2309 10.0217 16.3203 9.93222 16.3203 9.82189C16.3203 9.71155 16.2309 9.62211 16.1207 9.62211C16.0104 9.62211 15.9211 9.71155 15.9211 9.82189C15.9211 9.93222 16.0104 10.0217 16.1207 10.0217Z" fill="#1A1B1B"/>
<path d="M17.4226 9.58511C17.5486 9.58511 17.6507 9.48289 17.6507 9.3568C17.6507 9.2307 17.5486 9.12848 17.4226 9.12848C17.2966 9.12848 17.1945 9.2307 17.1945 9.3568C17.1945 9.48289 17.2966 9.58511 17.4226 9.58511Z" fill="#1A1B1B"/>
<path d="M18.7248 9.1483C18.8663 9.1483 18.9811 9.03342 18.9811 8.89171C18.9811 8.75 18.8663 8.63512 18.7248 8.63512C18.5832 8.63512 18.4684 8.75 18.4684 8.89171C18.4684 9.03342 18.5832 9.1483 18.7248 9.1483Z" fill="#1A1B1B"/>
<path d="M20.0267 8.71149C20.1839 8.71149 20.3113 8.58395 20.3113 8.42663C20.3113 8.2693 20.1839 8.14176 20.0267 8.14176C19.8695 8.14176 19.742 8.2693 19.742 8.42663C19.742 8.58395 19.8695 8.71149 20.0267 8.71149Z" fill="#1A1B1B"/>
<path d="M15.2784 9.85122C15.3731 9.85122 15.4498 9.77444 15.4498 9.67972C15.4498 9.585 15.3731 9.50822 15.2784 9.50822C15.1838 9.50822 15.1071 9.585 15.1071 9.67972C15.1071 9.77444 15.1838 9.85122 15.2784 9.85122Z" fill="#1A1B1B"/>
<path d="M16.5328 9.42577C16.6483 9.42577 16.7419 9.33207 16.7419 9.21648C16.7419 9.10089 16.6483 9.00719 16.5328 9.00719C16.4173 9.00719 16.3237 9.10089 16.3237 9.21648C16.3237 9.33207 16.4173 9.42577 16.5328 9.42577Z" fill="#1A1B1B"/>
<path d="M17.7869 9.00032C17.9233 9.00032 18.0338 8.8897 18.0338 8.75324C18.0338 8.61679 17.9233 8.50617 17.7869 8.50617C17.6506 8.50617 17.5401 8.61679 17.5401 8.75324C17.5401 8.8897 17.6506 9.00032 17.7869 9.00032Z" fill="#1A1B1B"/>
<path d="M19.0413 8.57461C19.1985 8.57461 19.3259 8.44707 19.3259 8.28974C19.3259 8.13241 19.1985 8.00488 19.0413 8.00488C18.8841 8.00488 18.7567 8.13241 18.7567 8.28974C18.7567 8.44707 18.8841 8.57461 19.0413 8.57461Z" fill="#1A1B1B"/>
<path d="M14.1552 12.8825C14.2499 12.8825 14.3266 12.8057 14.3266 12.711C14.3266 12.6163 14.2499 12.5395 14.1552 12.5395C14.0606 12.5395 13.9839 12.6163 13.9839 12.711C13.9839 12.8057 14.0606 12.8825 14.1552 12.8825Z" fill="#1A1B1B"/>
<path d="M15.3954 13.3235C15.5109 13.3235 15.6045 13.2298 15.6045 13.1142C15.6045 12.9986 15.5109 12.9049 15.3954 12.9049C15.2799 12.9049 15.1863 12.9986 15.1863 13.1142C15.1863 13.2298 15.2799 13.3235 15.3954 13.3235Z" fill="#1A1B1B"/>
<path d="M16.6355 13.7648C16.772 13.7648 16.8826 13.6541 16.8826 13.5175C16.8826 13.3809 16.772 13.2701 16.6355 13.2701C16.499 13.2701 16.3884 13.3809 16.3884 13.5175C16.3884 13.6541 16.499 13.7648 16.6355 13.7648Z" fill="#1A1B1B"/>
<path d="M17.8754 14.2059C18.0327 14.2059 18.1603 14.0782 18.1603 13.9207C18.1603 13.7633 18.0327 13.6356 17.8754 13.6356C17.718 13.6356 17.5905 13.7633 17.5905 13.9207C17.5905 14.0782 17.718 14.2059 17.8754 14.2059Z" fill="#1A1B1B"/>
<path d="M19.1155 14.6469C19.2937 14.6469 19.4382 14.5023 19.4382 14.324C19.4382 14.1456 19.2937 14.0011 19.1155 14.0011C18.9373 14.0011 18.7929 14.1456 18.7929 14.324C18.7929 14.5023 18.9373 14.6469 19.1155 14.6469Z" fill="#1A1B1B"/>
<path d="M20.3556 15.0879C20.5547 15.0879 20.716 14.9264 20.716 14.7272C20.716 14.528 20.5547 14.3665 20.3556 14.3665C20.1566 14.3665 19.9952 14.528 19.9952 14.7272C19.9952 14.9264 20.1566 15.0879 20.3556 15.0879Z" fill="#1A1B1B"/>
<path d="M21.5955 15.529C21.8154 15.529 21.9937 15.3506 21.9937 15.1305C21.9937 14.9104 21.8154 14.732 21.5955 14.732C21.3756 14.732 21.1974 14.9104 21.1974 15.1305C21.1974 15.3506 21.3756 15.529 21.5955 15.529Z" fill="#1A1B1B"/>
<path d="M14.536 13.3639C14.6306 13.3639 14.7073 13.2872 14.7073 13.1924C14.7073 13.0977 14.6306 13.0209 14.536 13.0209C14.4413 13.0209 14.3646 13.0977 14.3646 13.1924C14.3646 13.2872 14.4413 13.3639 14.536 13.3639Z" fill="#1A1B1B"/>
<path d="M15.7919 13.8282C15.9069 13.8282 16 13.735 16 13.62C16 13.505 15.9069 13.4118 15.7919 13.4118C15.677 13.4118 15.5839 13.505 15.5839 13.62C15.5839 13.735 15.677 13.8282 15.7919 13.8282Z" fill="#1A1B1B"/>
<path d="M17.0479 14.2923C17.1829 14.2923 17.2924 14.1827 17.2924 14.0476C17.2924 13.9124 17.1829 13.8029 17.0479 13.8029C16.9129 13.8029 16.8034 13.9124 16.8034 14.0476C16.8034 14.1827 16.9129 14.2923 17.0479 14.2923Z" fill="#1A1B1B"/>
<path d="M18.3039 14.7566C18.4592 14.7566 18.5851 14.6306 18.5851 14.4751C18.5851 14.3197 18.4592 14.1937 18.3039 14.1937C18.1486 14.1937 18.0227 14.3197 18.0227 14.4751C18.0227 14.6306 18.1486 14.7566 18.3039 14.7566Z" fill="#1A1B1B"/>
<path d="M19.5599 15.2206C19.7353 15.2206 19.8775 15.0783 19.8775 14.9027C19.8775 14.7271 19.7353 14.5848 19.5599 14.5848C19.3844 14.5848 19.2422 14.7271 19.2422 14.9027C19.2422 15.0783 19.3844 15.2206 19.5599 15.2206Z" fill="#1A1B1B"/>
<path d="M20.8158 15.6849C21.0115 15.6849 21.1702 15.5261 21.1702 15.3303C21.1702 15.1344 21.0115 14.9756 20.8158 14.9756C20.6202 14.9756 20.4615 15.1344 20.4615 15.3303C20.4615 15.5261 20.6202 15.6849 20.8158 15.6849Z" fill="#1A1B1B"/>
<path d="M14.8185 13.8848C14.9131 13.8848 14.9898 13.808 14.9898 13.7133C14.9898 13.6186 14.9131 13.5418 14.8185 13.5418C14.7238 13.5418 14.6471 13.6186 14.6471 13.7133C14.6471 13.808 14.7238 13.8848 14.8185 13.8848Z" fill="#1A1B1B"/>
<path d="M16.1207 14.3782C16.2309 14.3782 16.3203 14.2887 16.3203 14.1784C16.3203 14.068 16.2309 13.9786 16.1207 13.9786C16.0104 13.9786 15.9211 14.068 15.9211 14.1784C15.9211 14.2887 16.0104 14.3782 16.1207 14.3782Z" fill="#1A1B1B"/>
<path d="M17.4226 14.8715C17.5486 14.8715 17.6507 14.7693 17.6507 14.6432C17.6507 14.5171 17.5486 14.4149 17.4226 14.4149C17.2966 14.4149 17.1945 14.5171 17.1945 14.6432C17.1945 14.7693 17.2966 14.8715 17.4226 14.8715Z" fill="#1A1B1B"/>
<path d="M18.7248 15.3649C18.8663 15.3649 18.9811 15.25 18.9811 15.1083C18.9811 14.9666 18.8663 14.8517 18.7248 14.8517C18.5832 14.8517 18.4684 14.9666 18.4684 15.1083C18.4684 15.25 18.5832 15.3649 18.7248 15.3649Z" fill="#1A1B1B"/>
<path d="M20.0267 15.8582C20.1839 15.8582 20.3113 15.7307 20.3113 15.5734C20.3113 15.416 20.1839 15.2885 20.0267 15.2885C19.8695 15.2885 19.742 15.416 19.742 15.5734C19.742 15.7307 19.8695 15.8582 20.0267 15.8582Z" fill="#1A1B1B"/>
<path d="M15.2784 14.4918C15.3731 14.4918 15.4498 14.415 15.4498 14.3203C15.4498 14.2256 15.3731 14.1488 15.2784 14.1488C15.1838 14.1488 15.1071 14.2256 15.1071 14.3203C15.1071 14.415 15.1838 14.4918 15.2784 14.4918Z" fill="#1A1B1B"/>
<path d="M16.5325 14.9928C16.648 14.9928 16.7416 14.8991 16.7416 14.7835C16.7416 14.6679 16.648 14.5742 16.5325 14.5742C16.4171 14.5742 16.3234 14.6679 16.3234 14.7835C16.3234 14.8991 16.4171 14.9928 16.5325 14.9928Z" fill="#1A1B1B"/>
<path d="M17.7869 15.4941C17.9233 15.4941 18.0338 15.3835 18.0338 15.247C18.0338 15.1106 17.9233 14.9999 17.7869 14.9999C17.6506 14.9999 17.5401 15.1106 17.5401 15.247C17.5401 15.3835 17.6506 15.4941 17.7869 15.4941Z" fill="#1A1B1B"/>
<path d="M19.0411 15.9951C19.1982 15.9951 19.3257 15.8676 19.3257 15.7103C19.3257 15.5529 19.1982 15.4254 19.0411 15.4254C18.8839 15.4254 18.7564 15.5529 18.7564 15.7103C18.7564 15.8676 18.8839 15.9951 19.0411 15.9951Z" fill="#1A1B1B"/>
<path d="M14.7519 12.6988C14.8466 12.6988 14.9233 12.622 14.9233 12.5273C14.9233 12.4326 14.8466 12.3558 14.7519 12.3558C14.6573 12.3558 14.5806 12.4326 14.5806 12.5273C14.5806 12.622 14.6573 12.6988 14.7519 12.6988Z" fill="#1A1B1B"/>
<path d="M16.019 13.1285C16.1339 13.1285 16.2271 13.0353 16.2271 12.9203C16.2271 12.8053 16.1339 12.712 16.019 12.712C15.9041 12.712 15.811 12.8053 15.811 12.9203C15.811 13.0353 15.9041 13.1285 16.019 13.1285Z" fill="#1A1B1B"/>
<path d="M17.2863 13.5579C17.4214 13.5579 17.5308 13.4484 17.5308 13.3132C17.5308 13.1781 17.4214 13.0685 17.2863 13.0685C17.1513 13.0685 17.0418 13.1781 17.0418 13.3132C17.0418 13.4484 17.1513 13.5579 17.2863 13.5579Z" fill="#1A1B1B"/>
<path d="M18.5534 13.9879C18.7087 13.9879 18.8346 13.8619 18.8346 13.7064C18.8346 13.551 18.7087 13.425 18.5534 13.425C18.3981 13.425 18.2722 13.551 18.2722 13.7064C18.2722 13.8619 18.3981 13.9879 18.5534 13.9879Z" fill="#1A1B1B"/>
<path d="M19.8207 14.4173C19.9961 14.4173 20.1383 14.2749 20.1383 14.0994C20.1383 13.9238 19.9961 13.7815 19.8207 13.7815C19.6453 13.7815 19.5031 13.9238 19.5031 14.0994C19.5031 14.2749 19.6453 14.4173 19.8207 14.4173Z" fill="#1A1B1B"/>
<path d="M21.0881 14.8469C21.2837 14.8469 21.4424 14.6882 21.4424 14.4923C21.4424 14.2965 21.2837 14.1377 21.0881 14.1377C20.8924 14.1377 20.7337 14.2965 20.7337 14.4923C20.7337 14.6882 20.8924 14.8469 21.0881 14.8469Z" fill="#1A1B1B"/>
<path d="M15.2863 12.4438C15.381 12.4438 15.4577 12.367 15.4577 12.2723C15.4577 12.1776 15.381 12.1008 15.2863 12.1008C15.1917 12.1008 15.115 12.1776 15.115 12.2723C15.115 12.367 15.1917 12.4438 15.2863 12.4438Z" fill="#1A1B1B"/>
<path d="M16.6128 12.8619C16.723 12.8619 16.8124 12.7724 16.8124 12.6621C16.8124 12.5518 16.723 12.4623 16.6128 12.4623C16.5026 12.4623 16.4132 12.5518 16.4132 12.6621C16.4132 12.7724 16.5026 12.8619 16.6128 12.8619Z" fill="#1A1B1B"/>
<path d="M17.9393 13.2802C18.0653 13.2802 18.1674 13.178 18.1674 13.0519C18.1674 12.9258 18.0653 12.8235 17.9393 12.8235C17.8133 12.8235 17.7112 12.9258 17.7112 13.0519C17.7112 13.178 17.8133 13.2802 17.9393 13.2802Z" fill="#1A1B1B"/>
<path d="M19.2657 13.6982C19.4073 13.6982 19.5221 13.5833 19.5221 13.4416C19.5221 13.2999 19.4073 13.185 19.2657 13.185C19.1242 13.185 19.0094 13.2999 19.0094 13.4416C19.0094 13.5833 19.1242 13.6982 19.2657 13.6982Z" fill="#1A1B1B"/>
<path d="M20.5922 14.1163C20.7494 14.1163 20.8768 13.9887 20.8768 13.8314C20.8768 13.6741 20.7494 13.5465 20.5922 13.5465C20.435 13.5465 20.3076 13.6741 20.3076 13.8314C20.3076 13.9887 20.435 14.1163 20.5922 14.1163Z" fill="#1A1B1B"/>
<path d="M16.0148 12.2232C16.1094 12.2232 16.1861 12.1464 16.1861 12.0517C16.1861 11.9569 16.1094 11.8802 16.0148 11.8802C15.9201 11.8802 15.8434 11.9569 15.8434 12.0517C15.8434 12.1464 15.9201 12.2232 16.0148 12.2232Z" fill="#1A1B1B"/>
<path d="M17.3017 12.624C17.4171 12.624 17.5108 12.5303 17.5108 12.4147C17.5108 12.2992 17.4171 12.2055 17.3017 12.2055C17.1862 12.2055 17.0925 12.2992 17.0925 12.4147C17.0925 12.5303 17.1862 12.624 17.3017 12.624Z" fill="#1A1B1B"/>
<path d="M18.5885 13.0249C18.7249 13.0249 18.8354 12.9143 18.8354 12.7778C18.8354 12.6414 18.7249 12.5308 18.5885 12.5308C18.4522 12.5308 18.3417 12.6414 18.3417 12.7778C18.3417 12.9143 18.4522 13.0249 18.5885 13.0249Z" fill="#1A1B1B"/>
<path d="M19.8754 13.4258C20.0326 13.4258 20.16 13.2982 20.16 13.1409C20.16 12.9836 20.0326 12.8561 19.8754 12.8561C19.7182 12.8561 19.5908 12.9836 19.5908 13.1409C19.5908 13.2982 19.7182 13.4258 19.8754 13.4258Z" fill="#1A1B1B"/>
<path d="M13.3262 14.0148C13.4208 14.0148 13.4976 13.938 13.4976 13.8433C13.4976 13.7486 13.4208 13.6718 13.3262 13.6718C13.2316 13.6718 13.1549 13.7486 13.1549 13.8433C13.1549 13.938 13.2316 14.0148 13.3262 14.0148Z" fill="#1A1B1B"/>
<path d="M14.0924 15.1083C14.2079 15.1083 14.3015 15.0146 14.3015 14.899C14.3015 14.7834 14.2079 14.6897 14.0924 14.6897C13.9769 14.6897 13.8833 14.7834 13.8833 14.899C13.8833 15.0146 13.9769 15.1083 14.0924 15.1083Z" fill="#1A1B1B"/>
<path d="M14.8589 16.202C14.9954 16.202 15.106 16.0913 15.106 15.9547C15.106 15.8181 14.9954 15.7074 14.8589 15.7074C14.7224 15.7074 14.6117 15.8181 14.6117 15.9547C14.6117 16.0913 14.7224 16.202 14.8589 16.202Z" fill="#1A1B1B"/>
<path d="M15.6253 17.2958C15.7827 17.2958 15.9102 17.1681 15.9102 17.0107C15.9102 16.8532 15.7827 16.7255 15.6253 16.7255C15.468 16.7255 15.3405 16.8532 15.3405 17.0107C15.3405 17.1681 15.468 17.2958 15.6253 17.2958Z" fill="#1A1B1B"/>
<path d="M16.3918 18.3893C16.57 18.3893 16.7145 18.2447 16.7145 18.0663C16.7145 17.888 16.57 17.7434 16.3918 17.7434C16.2136 17.7434 16.0692 17.888 16.0692 18.0663C16.0692 18.2447 16.2136 18.3893 16.3918 18.3893Z" fill="#1A1B1B"/>
<path d="M17.158 19.4827C17.3571 19.4827 17.5184 19.3213 17.5184 19.122C17.5184 18.9228 17.3571 18.7613 17.158 18.7613C16.959 18.7613 16.7976 18.9228 16.7976 19.122C16.7976 19.3213 16.959 19.4827 17.158 19.4827Z" fill="#1A1B1B"/>
<path d="M17.9245 20.5762C18.1444 20.5762 18.3226 20.3978 18.3226 20.1777C18.3226 19.9577 18.1444 19.7792 17.9245 19.7792C17.7046 19.7792 17.5263 19.9577 17.5263 20.1777C17.5263 20.3978 17.7046 20.5762 17.9245 20.5762Z" fill="#1A1B1B"/>
<path d="M13.3513 14.6281C13.4459 14.6281 13.5226 14.5514 13.5226 14.4566C13.5226 14.3619 13.4459 14.2851 13.3513 14.2851C13.2567 14.2851 13.1799 14.3619 13.1799 14.4566C13.1799 14.5514 13.2567 14.6281 13.3513 14.6281Z" fill="#1A1B1B"/>
<path d="M14.1162 15.7496C14.2311 15.7496 14.3242 15.6564 14.3242 15.5414C14.3242 15.4264 14.2311 15.3332 14.1162 15.3332C14.0013 15.3332 13.9081 15.4264 13.9081 15.5414C13.9081 15.6564 14.0013 15.7496 14.1162 15.7496Z" fill="#1A1B1B"/>
<path d="M14.8813 16.8711C15.0163 16.8711 15.1258 16.7616 15.1258 16.6264C15.1258 16.4913 15.0163 16.3817 14.8813 16.3817C14.7463 16.3817 14.6368 16.4913 14.6368 16.6264C14.6368 16.7616 14.7463 16.8711 14.8813 16.8711Z" fill="#1A1B1B"/>
<path d="M15.6465 17.9926C15.8018 17.9926 15.9277 17.8666 15.9277 17.7112C15.9277 17.5558 15.8018 17.4298 15.6465 17.4298C15.4912 17.4298 15.3653 17.5558 15.3653 17.7112C15.3653 17.8666 15.4912 17.9926 15.6465 17.9926Z" fill="#1A1B1B"/>
<path d="M16.4114 19.1138C16.5868 19.1138 16.729 18.9715 16.729 18.796C16.729 18.6204 16.5868 18.4781 16.4114 18.4781C16.2359 18.4781 16.0937 18.6204 16.0937 18.796C16.0937 18.9715 16.2359 19.1138 16.4114 19.1138Z" fill="#1A1B1B"/>
<path d="M17.1765 20.2353C17.3722 20.2353 17.5308 20.0766 17.5308 19.8807C17.5308 19.6849 17.3722 19.5261 17.1765 19.5261C16.9808 19.5261 16.8222 19.6849 16.8222 19.8807C16.8222 20.0766 16.9808 20.2353 17.1765 20.2353Z" fill="#1A1B1B"/>
<path d="M13.2742 15.2158C13.3688 15.2158 13.4455 15.1391 13.4455 15.0443C13.4455 14.9496 13.3688 14.8728 13.2742 14.8728C13.1796 14.8728 13.1028 14.9496 13.1028 15.0443C13.1028 15.1391 13.1796 15.2158 13.2742 15.2158Z" fill="#1A1B1B"/>
<path d="M14.0544 16.3862C14.1646 16.3862 14.254 16.2968 14.254 16.1864C14.254 16.0761 14.1646 15.9867 14.0544 15.9867C13.9442 15.9867 13.8548 16.0761 13.8548 16.1864C13.8548 16.2968 13.9442 16.3862 14.0544 16.3862Z" fill="#1A1B1B"/>
<path d="M14.8346 17.5571C14.9606 17.5571 15.0627 17.4549 15.0627 17.3288C15.0627 17.2027 14.9606 17.1005 14.8346 17.1005C14.7086 17.1005 14.6065 17.2027 14.6065 17.3288C14.6065 17.4549 14.7086 17.5571 14.8346 17.5571Z" fill="#1A1B1B"/>
<path d="M15.615 18.7275C15.7566 18.7275 15.8714 18.6126 15.8714 18.4709C15.8714 18.3292 15.7566 18.2143 15.615 18.2143C15.4735 18.2143 15.3587 18.3292 15.3587 18.4709C15.3587 18.6126 15.4735 18.7275 15.615 18.7275Z" fill="#1A1B1B"/>
<path d="M16.3952 19.8979C16.5524 19.8979 16.6799 19.7704 16.6799 19.613C16.6799 19.4557 16.5524 19.3282 16.3952 19.3282C16.2381 19.3282 16.1106 19.4557 16.1106 19.613C16.1106 19.7704 16.2381 19.8979 16.3952 19.8979Z" fill="#1A1B1B"/>
<path d="M13.2898 15.9774C13.3844 15.9774 13.4611 15.9006 13.4611 15.8059C13.4611 15.7112 13.3844 15.6344 13.2898 15.6344C13.1951 15.6344 13.1184 15.7112 13.1184 15.8059C13.1184 15.9006 13.1951 15.9774 13.2898 15.9774Z" fill="#1A1B1B"/>
<path d="M14.0322 17.128C14.1477 17.128 14.2413 17.0343 14.2413 16.9187C14.2413 16.8031 14.1477 16.7094 14.0322 16.7094C13.9167 16.7094 13.8231 16.8031 13.8231 16.9187C13.8231 17.0343 13.9167 17.128 14.0322 17.128Z" fill="#1A1B1B"/>
<path d="M14.7749 18.2785C14.9113 18.2785 15.0218 18.1679 15.0218 18.0315C15.0218 17.895 14.9113 17.7844 14.7749 17.7844C14.6386 17.7844 14.5281 17.895 14.5281 18.0315C14.5281 18.1679 14.6386 18.2785 14.7749 18.2785Z" fill="#1A1B1B"/>
<path d="M15.5174 19.4288C15.6746 19.4288 15.802 19.3013 15.802 19.144C15.802 18.9866 15.6746 18.8591 15.5174 18.8591C15.3602 18.8591 15.2327 18.9866 15.2327 19.144C15.2327 19.3013 15.3602 19.4288 15.5174 19.4288Z" fill="#1A1B1B"/>
<path d="M13.9166 14.2172C14.0112 14.2172 14.0879 14.1404 14.0879 14.0457C14.0879 13.951 14.0112 13.8742 13.9166 13.8742C13.8219 13.8742 13.7452 13.951 13.7452 14.0457C13.7452 14.1404 13.8219 14.2172 13.9166 14.2172Z" fill="#1A1B1B"/>
<path d="M14.711 15.3173C14.8259 15.3173 14.9191 15.2241 14.9191 15.1091C14.9191 14.9941 14.8259 14.9008 14.711 14.9008C14.5961 14.9008 14.503 14.9941 14.503 15.1091C14.503 15.2241 14.5961 15.3173 14.711 15.3173Z" fill="#1A1B1B"/>
<path d="M15.5055 16.4171C15.6405 16.4171 15.75 16.3076 15.75 16.1724C15.75 16.0373 15.6405 15.9277 15.5055 15.9277C15.3705 15.9277 15.261 16.0373 15.261 16.1724C15.261 16.3076 15.3705 16.4171 15.5055 16.4171Z" fill="#1A1B1B"/>
<path d="M16.2999 17.5175C16.4552 17.5175 16.5811 17.3915 16.5811 17.2361C16.5811 17.0806 16.4552 16.9546 16.2999 16.9546C16.1446 16.9546 16.0187 17.0806 16.0187 17.2361C16.0187 17.3915 16.1446 17.5175 16.2999 17.5175Z" fill="#1A1B1B"/>
<path d="M17.0941 18.6173C17.2695 18.6173 17.4117 18.475 17.4117 18.2994C17.4117 18.1238 17.2695 17.9815 17.0941 17.9815C16.9187 17.9815 16.7765 18.1238 16.7765 18.2994C16.7765 18.475 16.9187 18.6173 17.0941 18.6173Z" fill="#1A1B1B"/>
<path d="M17.8886 19.7174C18.0843 19.7174 18.2429 19.5586 18.2429 19.3628C18.2429 19.1669 18.0843 19.0081 17.8886 19.0081C17.6929 19.0081 17.5343 19.1669 17.5343 19.3628C17.5343 19.5586 17.6929 19.7174 17.8886 19.7174Z" fill="#1A1B1B"/>
<path d="M14.4987 14.3253C14.5934 14.3253 14.6701 14.2485 14.6701 14.1538C14.6701 14.0591 14.5934 13.9823 14.4987 13.9823C14.4041 13.9823 14.3274 14.0591 14.3274 14.1538C14.3274 14.2485 14.4041 14.3253 14.4987 14.3253Z" fill="#1A1B1B"/>
<path d="M15.3431 15.4492C15.4533 15.4492 15.5427 15.3597 15.5427 15.2494C15.5427 15.1391 15.4533 15.0496 15.3431 15.0496C15.2329 15.0496 15.1435 15.1391 15.1435 15.2494C15.1435 15.3597 15.2329 15.4492 15.3431 15.4492Z" fill="#1A1B1B"/>
<path d="M16.1872 16.5733C16.3132 16.5733 16.4153 16.4711 16.4153 16.345C16.4153 16.2189 16.3132 16.1167 16.1872 16.1167C16.0612 16.1167 15.9591 16.2189 15.9591 16.345C15.9591 16.4711 16.0612 16.5733 16.1872 16.5733Z" fill="#1A1B1B"/>
<path d="M17.0316 17.6974C17.1731 17.6974 17.2879 17.5826 17.2879 17.4409C17.2879 17.2991 17.1731 17.1843 17.0316 17.1843C16.89 17.1843 16.7752 17.2991 16.7752 17.4409C16.7752 17.5826 16.89 17.6974 17.0316 17.6974Z" fill="#1A1B1B"/>
<path d="M17.8756 18.8213C18.0328 18.8213 18.1603 18.6938 18.1603 18.5365C18.1603 18.3791 18.0328 18.2516 17.8756 18.2516C17.7185 18.2516 17.591 18.3791 17.591 18.5365C17.591 18.6938 17.7185 18.8213 17.8756 18.8213Z" fill="#1A1B1B"/>
<path d="M15.2177 14.5753C15.3123 14.5753 15.389 14.4985 15.389 14.4038C15.389 14.3091 15.3123 14.2323 15.2177 14.2323C15.1231 14.2323 15.0463 14.3091 15.0463 14.4038C15.0463 14.4985 15.1231 14.5753 15.2177 14.5753Z" fill="#1A1B1B"/>
<path d="M16.0454 15.664C16.1609 15.664 16.2545 15.5703 16.2545 15.4547C16.2545 15.3391 16.1609 15.2454 16.0454 15.2454C15.9299 15.2454 15.8363 15.3391 15.8363 15.4547C15.8363 15.5703 15.9299 15.664 16.0454 15.664Z" fill="#1A1B1B"/>
<path d="M16.8734 16.7525C17.0097 16.7525 17.1203 16.6419 17.1203 16.5054C17.1203 16.3689 17.0097 16.2583 16.8734 16.2583C16.7371 16.2583 16.6265 16.3689 16.6265 16.5054C16.6265 16.6419 16.7371 16.7525 16.8734 16.7525Z" fill="#1A1B1B"/>
<path d="M17.7014 17.8409C17.8586 17.8409 17.986 17.7134 17.986 17.5561C17.986 17.3987 17.8586 17.2712 17.7014 17.2712C17.5442 17.2712 17.4168 17.3987 17.4168 17.5561C17.4168 17.7134 17.5442 17.8409 17.7014 17.8409Z" fill="#1A1B1B"/>
</svg>
