<svg width="27" height="24" viewBox="0 0 27 24" fill="none" xmlns="http://www.w3.org/2000/svg">
<g clip-path="url(#clip0_902_283)">
<path opacity="0.7" d="M7.5263 19.4607L7.52235 19.4591L7.56029 19.3678C7.56424 19.3575 7.56898 19.3473 7.57293 19.337L11.7798 9.22018H11.7822C12.3015 8.04061 13.483 7.2146 14.8589 7.2146C16.7146 7.2146 18.2186 8.71307 18.2186 10.562C18.2186 10.9927 18.1341 11.4029 17.9855 11.7817H17.9871L17.9681 11.8273C17.9594 11.8486 17.9507 11.8707 17.9412 11.8919L13.7636 21.9379C13.7596 21.9482 13.7557 21.9584 13.7509 21.9678L13.7288 22.0214L13.7256 22.0198C13.2008 23.186 12.0272 23.9994 10.6615 23.9994C8.80584 23.9994 7.30185 22.5009 7.30185 20.652C7.30185 20.2316 7.38325 19.8308 7.52472 19.4599L7.5263 19.4607Z" fill="#1A1F2A"/>
<path d="M13.781 19.4607L13.7849 19.4591L13.747 19.3678C13.743 19.3575 13.7383 19.3473 13.7343 19.337L9.52744 9.22018H9.52507C9.00583 8.04061 7.82429 7.2146 6.44833 7.2146C4.59264 7.2146 3.08865 8.71307 3.08865 10.562C3.08865 10.9927 3.17322 11.4029 3.3218 11.7817H3.32022L3.33919 11.8273C3.34788 11.8486 3.35657 11.8707 3.36606 11.8919L7.54372 21.9379C7.54767 21.9482 7.55163 21.9584 7.55637 21.9678L7.5785 22.0214L7.58166 22.0198C8.10644 23.186 9.28007 23.9994 10.6458 23.9994C12.5014 23.9994 14.0054 22.5009 14.0054 20.652C14.0054 20.2316 13.924 19.8308 13.7826 19.4599L13.781 19.4607Z" fill="#1A1F2A"/>
<path opacity="0.7" d="M15.952 19.4607L15.948 19.4591L15.9859 19.3678C15.9899 19.3575 15.9946 19.3473 15.9986 19.337L20.2055 9.22018H20.2079C20.7271 8.04061 21.9086 7.2146 23.2846 7.2146C25.1403 7.2146 26.6443 8.71307 26.6443 10.562C26.6443 10.9927 26.5597 11.4029 26.4111 11.7817H26.4127L26.3938 11.8273C26.3851 11.8486 26.3764 11.8707 26.3669 11.8919L22.1892 21.9379C22.1853 21.9482 22.1813 21.9584 22.1766 21.9678L22.1544 22.0214L22.1513 22.0198C21.6265 23.186 20.4529 23.9994 19.0872 23.9994C17.2315 23.9994 15.7275 22.5009 15.7275 20.652C15.7275 20.2316 15.8089 19.8308 15.9504 19.4599L15.952 19.4607Z" fill="#1A1F2A"/>
<path d="M23.411 19.0236C22.386 18.7236 21.5727 17.9543 21.2092 16.9748C21.2021 16.97 21.1942 16.9661 21.191 16.9629L17.9712 9.22018H17.9689C17.4496 8.04061 16.2681 7.2146 14.8921 7.2146C13.0364 7.2146 11.5324 8.71307 11.5324 10.562C11.5324 10.9927 11.617 11.4029 11.7656 11.7817H11.764L11.783 11.8273C11.7917 11.8486 11.8004 11.8707 11.8098 11.8919L15.9875 21.9379C15.9915 21.9482 15.9954 21.9584 16.0002 21.9678L16.0223 22.0214L16.0254 22.0198C16.5502 23.186 17.7239 23.9994 19.0895 23.9994C20.4552 23.9994 21.7253 23.1175 22.2153 21.8733L23.4126 19.0236H23.411Z" fill="#1A1F2A"/>
<path d="M3.35968 6.69471C5.21518 6.69471 6.71936 5.19605 6.71936 3.34735C6.71936 1.49866 5.21518 0 3.35968 0C1.50418 0 0 1.49866 0 3.34735C0 5.19605 1.50418 6.69471 3.35968 6.69471Z" fill="#1A1F2A"/>
<path d="M13.7304 19.3889L13.7343 19.3873L13.6964 19.296C13.6924 19.2857 13.6877 19.2755 13.6838 19.2653L9.47684 9.1484H9.47447C8.95523 7.96883 7.77369 7.14282 6.39773 7.14282C4.54205 7.14282 3.03806 8.6413 3.03806 10.4902C3.03806 10.9209 3.12262 11.3311 3.2712 11.7099H3.26962L3.28859 11.7556C3.29728 11.7768 3.30598 11.7989 3.31546 11.8201L7.49312 21.8661C7.49708 21.8764 7.50103 21.8866 7.50577 21.8961L7.5279 21.9496L7.53106 21.948C8.05584 23.1142 9.22947 23.9276 10.5952 23.9276C12.4508 23.9276 13.9548 22.4291 13.9548 20.5803C13.9548 20.1598 13.8734 19.759 13.732 19.3881L13.7304 19.3889Z" fill="#1A1F2A"/>
</g>
<defs>
<clipPath id="clip0_902_283">
<rect width="27" height="24" fill="white"/>
</clipPath>
</defs>
</svg>
